<?xml version="1.0" encoding="UTF-8" standalone="no"?>
<svg
   xmlns:dc="http://purl.org/dc/elements/1.1/"
   xmlns:cc="http://creativecommons.org/ns#"
   xmlns:rdf="http://www.w3.org/1999/02/22-rdf-syntax-ns#"
   xmlns:svg="http://www.w3.org/2000/svg"
   xmlns="http://www.w3.org/2000/svg"
   xmlns:sodipodi="http://sodipodi.sourceforge.net/DTD/sodipodi-0.dtd"
   xmlns:inkscape="http://www.inkscape.org/namespaces/inkscape"
   version="1.1"
   viewBox="0 -200 360 360"
   id="svg2"
   inkscape:version="0.91 r13725"
   sodipodi:docname="cocalc-ring.svg"
   width="360"
   height="360">
  <metadata
     id="metadata12">
    <rdf:RDF>
      <cc:Work
         rdf:about="">
        <dc:format>image/svg+xml</dc:format>
        <dc:type
           rdf:resource="http://purl.org/dc/dcmitype/StillImage" />
        <dc:title></dc:title>
      </cc:Work>
    </rdf:RDF>
  </metadata>
  <defs
     id="defs10" />
  <sodipodi:namedview
     pagecolor="#ffffff"
     bordercolor="#666666"
     borderopacity="1"
     objecttolerance="10"
     gridtolerance="10"
     guidetolerance="10"
     inkscape:pageopacity="0"
     inkscape:pageshadow="2"
     inkscape:window-width="1920"
     inkscape:window-height="1056"
     id="namedview8"
     showgrid="false"
     fit-margin-top="5"
     fit-margin-left="5"
     fit-margin-right="5"
     fit-margin-bottom="5"
     inkscape:zoom="1.3350176"
     inkscape:cx="29.274142"
     inkscape:cy="208.4783"
     inkscape:window-x="0"
     inkscape:window-y="24"
     inkscape:window-maximized="1"
     inkscape:current-layer="g4"
     inkscape:snap-page="true"
     inkscape:snap-bbox="true"
     inkscape:bbox-paths="true"
     inkscape:bbox-nodes="true" />
  <g
     transform="matrix(0.44303803,0,0,-0.44303803,-27.126903,157.18649)"
     id="g4"
     style="fill:#000000;fill-opacity:1">
    <path
       style="fill:#000000;fill-opacity:1"
       d="M 428.01496,792.96011 C 231.77896,773.23741 72.515001,597.16457 72.515001,399.93955 l 0,-0.004 c 0.09766,-46.83501 15.858383,-119.47114 35.179689,-162.13513 l 68.60038,39.62344 c -7.95117,18.8008 -14.13217,38.51168 -18.33047,58.94139 -4.2207,20.5391 -6.44961,41.81251 -6.44961,63.5703 0,21.75881 2.2289,42.99945 6.44961,63.53945 4.22071,20.53999 10.4412,40.35739 18.4539,59.24999 8.0127,18.89161 17.81697,36.84896 29.19297,53.66445 11.376,16.81641 24.32643,32.50307 38.63593,46.81367 14.3105,14.31049 29.99817,27.26003 46.81367,38.63592 16.81639,11.376 34.77194,21.17927 53.66445,29.19297 18.8916,8.0127 38.70999,14.23321 59.24999,18.45391 7.90332,1.625 15.93886,2.86777 24.03945,3.88828 z m 78.99999,-0.40117 0,-79.18515 c 8.11231,-1.02051 16.16112,-2.26231 24.07031,-3.88828 20.53909,-4.2207 40.35841,-10.44221 59.24999,-18.45391 18.8926,-8.01367 36.84805,-17.81697 53.66444,-29.19297 16.8154,-11.376 32.50308,-24.32642 46.81368,-38.63592 14.31049,-14.31051 27.26003,-29.99918 38.63594,-46.81367 11.376,-16.81639 21.18026,-34.77095 29.19296,-53.66445 8.0127,-18.89161 14.2332,-38.71 18.4539,-59.24999 4.22167,-20.5391 6.41875,-41.78154 6.41875,-63.53945 0,-21.7579 -2.19708,-43.0312 -6.41875,-63.5703 -4.19921,-20.4326 -10.40723,-40.1377 -18.36134,-58.94139 l 68.47697,-39.53088 c 19.34669,42.63181 35.16251,115.22657 35.30311,162.04257 -0.19727,197.026 -159.46195,372.92078 -355.49996,392.62379 z M 216.22709,209.25509 147.22554,169.41564 C 212.37984,78.755452 355.87095,5.0671948 467.51496,4.9351971 579.13795,5.1060628 722.58579,78.821067 787.71181,169.47737 l -68.87813,39.77772 C 710.13641,197.82148 700.95207,186.77534 690.81337,176.63673 676.50286,162.32625 660.8152,149.3777 643.99969,138.0008 627.1833,126.62581 609.22776,116.82054 590.33525,108.80784 c -18.89158,-8.0127 -38.7109,-14.233204 -59.24999,-18.453903 -20.5391,-4.220698 -41.81149,-6.418749 -63.5703,-6.418749 -21.7578,0 -42.99936,2.198028 -63.53945,6.418749 -20.54011,4.220722 -40.35839,10.441203 -59.24999,18.453903 -18.8926,8.0127 -36.84806,17.81797 -53.66445,29.19296 -16.8154,11.37701 -32.50307,24.32545 -46.81367,38.63593 -10.1387,10.13871 -19.323,21.18475 -28.02031,32.61836 z"
       id="path6"
       inkscape:connector-curvature="0"
       sodipodi:nodetypes="cscccssscccccccccccccccccsccccccccccsccsssccsc" />
  </g>
</svg>
