<?xml version="1.0" encoding="UTF-8" standalone="no"?>
<svg
   xmlns:dc="http://purl.org/dc/elements/1.1/"
   xmlns:cc="http://creativecommons.org/ns#"
   xmlns:rdf="http://www.w3.org/1999/02/22-rdf-syntax-ns#"
   xmlns:svg="http://www.w3.org/2000/svg"
   xmlns="http://www.w3.org/2000/svg"
   xmlns:sodipodi="http://sodipodi.sourceforge.net/DTD/sodipodi-0.dtd"
   xmlns:inkscape="http://www.inkscape.org/namespaces/inkscape"
   width="1536"
   height="1792"
   viewBox="0 0 1536 1792"
   id="svg2"
   version="1.1"
   inkscape:version="0.91 r13725"
   sodipodi:docname="ipynb-file.svg">
  <metadata
     id="metadata10">
    <rdf:RDF>
      <cc:Work
         rdf:about="">
        <dc:format>image/svg+xml</dc:format>
        <dc:type
           rdf:resource="http://purl.org/dc/dcmitype/StillImage" />
        <dc:title></dc:title>
      </cc:Work>
    </rdf:RDF>
  </metadata>
  <defs
     id="defs8" />
  <sodipodi:namedview
     pagecolor="#ffffff"
     bordercolor="#666666"
     borderopacity="1"
     objecttolerance="10"
     gridtolerance="10"
     guidetolerance="10"
     inkscape:pageopacity="0"
     inkscape:pageshadow="2"
     inkscape:window-width="1920"
     inkscape:window-height="1056"
     id="namedview6"
     showgrid="false"
     fit-margin-top="0"
     fit-margin-left="0"
     fit-margin-right="0"
     fit-margin-bottom="0"
     inkscape:zoom="0.32593203"
     inkscape:cx="593.42056"
     inkscape:cy="828.94447"
     inkscape:window-x="0"
     inkscape:window-y="24"
     inkscape:window-maximized="1"
     inkscape:current-layer="svg2"
     showguides="true"
     inkscape:guide-bbox="true"
     inkscape:object-paths="true"
     inkscape:snap-bbox="true"
     inkscape:bbox-nodes="false"
     inkscape:bbox-paths="true"
     inkscape:object-nodes="true"
     inkscape:snap-intersection-paths="true"
     inkscape:snap-smooth-nodes="true">
    <sodipodi:guide
       position="1408,1148.7458"
       orientation="1,0"
       id="guide4239" />
    <sodipodi:guide
       position="897.1167,1663.966"
       orientation="0,1"
       id="guide4241" />
  </sodipodi:namedview>
  <path
     d="m 1468,380 c 18.6667,18.66667 34.6667,44 48,76 13.3333,32 20,61.33333 20,88 l 0,1152 c 0,26.6667 -9.3333,49.3333 -28,68 -18.6667,18.6667 -41.3333,28 -68,28 l -1344,0 c -26.66667,0 -49.33333,-9.3333 -68,-28 C 9.33333,1745.3333 0,1722.6667 0,1696 L 0,96 C 0,69.33333 9.33333,46.66667 28,28 46.66667,9.33333 69.33333,0 96,0 l 896,0 c 26.6667,0 56,6.66667 88,20 32,13.33333 57.3333,29.33333 76,48 z m -60,146.10169 C 1408,501.31222 1386,479 1378,471 L 1065,158 c -8,-8 -27.0583,-29.95638 -58.3559,-29.966 L 896,128 l -768,0 0,1536 1280,0 0,-1024 z"
     id="path4"
     inkscape:connector-curvature="0"
     sodipodi:nodetypes="sssssssssssssssssssscccccs" />
  <g
     id="g4358"
     transform="matrix(3.1897226,0,0,3.1897226,210.1827,324.06709)">
    <path
       inkscape:connector-curvature="0"
       id="circle8"
       d="m 304.39999,21.399999 a 21.4,21.4 0 0 1 -21.4,21.4 21.4,21.4 0 0 1 -21.4,-21.4 21.4,21.4 0 0 1 21.4,-21.399999 21.4,21.4 0 0 1 21.4,21.399999 z"
       style="fill:#000000;fill-opacity:1" />
    <path
       inkscape:connector-curvature="0"
       style="fill:#000000;fill-opacity:1"
       id="path25"
       d="m 173.2,307.2 c -65.5,0 -122.6,-23.5 -152.3,-58.3 22.5,62.3 82.2,106.9 152.3,106.9 70.1,0 129.8,-44.6 152.3,-106.9 -29.7,34.8 -86.8,58.3 -152.3,58.3 z" />
    <path
       inkscape:connector-curvature="0"
       style="fill:#000000;fill-opacity:1"
       id="path42"
       d="M 173.2,80.800001 C 238.7,80.800001 295.8,104.3 325.5,139.1 303,76.800001 243.3,32.200001 173.2,32.200001 103.1,32.200001 43.4,76.800001 21,139.1 50.7,104.4 107.7,80.800001 173.2,80.800001 Z" />
    <path
       inkscape:connector-curvature="0"
       id="circle44"
       d="m 89.5,375.19999 a 25.799999,25.799999 0 0 1 -25.8,25.8 25.799999,25.799999 0 0 1 -25.799999,-25.8 25.799999,25.799999 0 0 1 25.799999,-25.8 25.799999,25.799999 0 0 1 25.8,25.8 z"
       style="fill:#000000;fill-opacity:1" />
    <path
       inkscape:connector-curvature="0"
       id="circle46"
       d="m 54,50.800001 a 15.7,15.7 0 0 1 -15.700002,15.7 15.7,15.7 0 0 1 -15.699999,-15.7 15.7,15.7 0 0 1 15.699999,-15.7 15.7,15.7 0 0 1 15.700002,15.7 z"
       style="fill:#000000;fill-opacity:1" />
    <g
       transform="translate(0,-6)"
       id="text4267"
       style="font-style:normal;font-variant:normal;font-weight:normal;font-stretch:normal;font-size:125px;line-height:100%;font-family:'DejaVu Sans';-inkscape-font-specification:'DejaVu Sans';text-align:start;letter-spacing:0px;word-spacing:0px;writing-mode:lr-tb;text-anchor:start;fill:#000000;fill-opacity:1;stroke:none;stroke-width:1px;stroke-linecap:butt;stroke-linejoin:miter;stroke-opacity:1">
      <path
         sodipodi:nodetypes="ccccc"
         inkscape:connector-curvature="0"
         id="path4272"
         d="m 10.84758,171.36945 11.230469,0 0,68.35937 -11.230469,0 z" />
      <path
         inkscape:connector-curvature="0"
         id="path4274"
         d="m 56.379807,229.47491 0,36.25489 -11.291504,0 0,-94.36035 11.291504,0 0,10.37597 q 3.540039,-6.10351 8.911133,-9.0332 5.432129,-2.99072 12.939453,-2.99072 12.451172,0 20.202637,9.88769 7.8125,9.8877 7.8125,26.00098 0,16.11328 -7.8125,26.00098 -7.751465,9.88769 -20.202637,9.88769 -7.507324,0 -12.939453,-2.92969 -5.371094,-2.99072 -8.911133,-9.09424 z m 38.208008,-23.86474 q 0,-12.39014 -5.126953,-19.40918 -5.065918,-7.08008 -13.977051,-7.08008 -8.911133,0 -14.038086,7.08008 -5.065918,7.01904 -5.065918,19.40918 0,12.39014 5.065918,19.47021 5.126953,7.01905 14.038086,7.01905 8.911133,0 13.977051,-7.01905 5.126953,-7.08007 5.126953,-19.47021 z" />
      <path
         inkscape:connector-curvature="0"
         id="path4276"
         d="m 153.30364,246.07648 q -4.76075,12.20703 -9.27735,15.93017 -4.5166,3.72315 -12.08496,3.72315 l -8.97217,0 0,-9.39942 6.5918,0 q 4.63867,0 7.20215,-2.19726 2.56347,-2.19727 5.67627,-10.37598 l 2.01416,-5.12695 -27.64893,-67.26074 11.90186,0 21.3623,53.46679 21.36231,-53.46679 11.90185,0 -30.02929,74.70703 z" />
      <path
         inkscape:connector-curvature="0"
         id="path4278"
         d="m 255.65959,198.46906 0,41.25976 -11.23047,0 0,-40.89355 q 0,-9.70459 -3.78418,-14.52637 -3.78418,-4.82178 -11.35254,-4.82178 -9.09423,0 -14.34326,5.79834 -5.24902,5.79834 -5.24902,15.80811 l 0,38.63525 -11.2915,0 0,-68.35937 11.2915,0 0,10.62011 q 4.02832,-6.16455 9.46045,-9.21631 5.49316,-3.05175 12.63428,-3.05175 11.77978,0 17.82226,7.32422 6.04248,7.26318 6.04248,21.42334 z" />
      <path
         inkscape:connector-curvature="0"
         id="path4280"
         d="m 327.25383,205.61017 q 0,-12.39014 -5.12695,-19.40918 -5.06592,-7.08008 -13.97705,-7.08008 -8.91114,0 -14.03809,7.08008 -5.06592,7.01904 -5.06592,19.40918 0,12.39014 5.06592,19.47021 5.12695,7.01905 14.03809,7.01905 8.91113,0 13.97705,-7.01905 5.12695,-7.08007 5.12695,-19.47021 z m -38.20801,-23.86475 q 3.54004,-6.10351 8.91114,-9.0332 5.43212,-2.99072 12.93945,-2.99072 12.45117,0 20.20264,9.88769 7.8125,9.8877 7.8125,26.00098 0,16.11328 -7.8125,26.00098 -7.75147,9.88769 -20.20264,9.88769 -7.50733,0 -12.93945,-2.92969 -5.3711,-2.99072 -8.91114,-9.09424 l 0,10.25391 -11.2915,0 0,-94.9707 11.2915,0 0,36.9873 z" />
    </g>
  </g>
</svg>
