<?xml version="1.0" encoding="UTF-8" standalone="no"?>
<svg
   xmlns:dc="http://purl.org/dc/elements/1.1/"
   xmlns:cc="http://creativecommons.org/ns#"
   xmlns:rdf="http://www.w3.org/1999/02/22-rdf-syntax-ns#"
   xmlns:svg="http://www.w3.org/2000/svg"
   xmlns="http://www.w3.org/2000/svg"
   xmlns:sodipodi="http://sodipodi.sourceforge.net/DTD/sodipodi-0.dtd"
   xmlns:inkscape="http://www.inkscape.org/namespaces/inkscape"
   version="1.1"
   viewBox="0 -200 350 400"
   id="svg2"
   inkscape:version="0.91 r13725"
   sodipodi:docname="cocalc.svg"
   width="350"
   height="400">
  <metadata
     id="metadata12">
    <rdf:RDF>
      <cc:Work
         rdf:about="">
        <dc:format>image/svg+xml</dc:format>
        <dc:type
           rdf:resource="http://purl.org/dc/dcmitype/StillImage" />
        <dc:title></dc:title>
      </cc:Work>
    </rdf:RDF>
  </metadata>
  <defs
     id="defs10" />
  <sodipodi:namedview
     pagecolor="#ffffff"
     bordercolor="#666666"
     borderopacity="1"
     objecttolerance="10"
     gridtolerance="10"
     guidetolerance="10"
     inkscape:pageopacity="0"
     inkscape:pageshadow="2"
     inkscape:window-width="1920"
     inkscape:window-height="1056"
     id="namedview8"
     showgrid="false"
     fit-margin-top="0"
     fit-margin-left="0"
     fit-margin-right="0"
     fit-margin-bottom="0"
     inkscape:zoom="1.3350176"
     inkscape:cx="-15.800236"
     inkscape:cy="142.80493"
     inkscape:window-x="0"
     inkscape:window-y="24"
     inkscape:window-maximized="1"
     inkscape:current-layer="svg2"
     inkscape:snap-page="true"
     inkscape:snap-bbox="true"
     inkscape:bbox-paths="true"
     inkscape:bbox-nodes="true" />
  <g
     transform="matrix(0.44303803,0,0,-0.44303803,-32.126903,202.18648)"
     id="g4"
     style="fill:#000000;fill-opacity:1">
    <path
       d="m 466.525,635.218 c -16.2324,0 -32.0449,-1.63867 -47.3281,-4.74805 -15.2852,-3.11035 -30.0371,-7.69824 -44.0635,-13.6094 -14.0273,-5.91113 -27.3369,-13.1592 -39.7988,-21.5615 -12.4609,-8.4043 -24.0703,-17.9629 -34.6572,-28.5488 -10.5869,-10.5879 -20.1455,-22.1963 -28.5479,-34.6582 -8.4043,-12.4609 -15.6523,-25.7705 -21.5635,-39.7979 -5.9112,-14.0274 -10.499,-28.7793 -13.6084,-44.0635 -3.11035,-15.2842 -4.74805,-31.0967 -4.74805,-47.3291 0,-16.2324 1.6377,-32.0742 4.74805,-47.3594 3.10938,-15.2832 7.69727,-30.0049 13.6084,-44.0322 5.91113,-14.0273 13.1592,-27.3672 21.5635,-39.8291 8.40234,-12.4609 17.9609,-24.0703 28.5479,-34.6572 10.587,-10.5869 22.1963,-20.1455 34.6572,-28.5488 12.4619,-8.40234 25.7715,-15.6514 39.7988,-21.5615 14.0264,-5.91113 28.7783,-10.499 44.0635,-13.6094 15.2832,-3.10938 31.0957,-4.71875 47.3281,-4.71875 16.2324,0 32.0752,1.60938 47.3584,4.71875 15.2852,3.11035 30.0361,7.69824 44.0635,13.6094 14.0273,5.91016 27.3369,13.1592 39.7988,21.5615 12.4609,8.40332 24.0703,17.9619 34.6572,28.5488 10.5869,10.5869 20.1455,22.1963 28.5479,34.6572 8.40332,12.4619 15.6523,25.8018 21.5635,39.8291 5.9112,14.0273 10.499,28.749 13.6084,44.0322 3.11035,15.2852 4.71777,31.127 4.71777,47.3594 0,16.2324 -1.60742,32.0449 -4.71777,47.3291 -3.10938,15.2842 -7.69727,30.0361 -13.6084,44.0635 -5.91113,14.0274 -13.1602,27.3369 -21.5635,39.7979 -8.40234,12.4619 -17.9609,24.0703 -28.5479,34.6582 -10.5869,10.5859 -22.1963,20.1445 -34.6572,28.5488 -12.4619,8.40234 -25.7715,15.6504 -39.7988,21.5615 -14.0273,5.9111 -28.7783,10.499 -44.0635,13.6094 -15.2832,3.10938 -31.126,4.74805 -47.3584,4.74805 z M 428.015,792.96 C 231.779,773.2373 72.515,597.164 72.515,399.939 l 0,-0.005 c 0.09766,-46.835 15.8584,-119.472 35.1797,-162.136 l 68.6006,39.624 c -7.95117,18.8008 -14.1318,38.5117 -18.3301,58.9414 -4.2207,20.5391 -6.4502,41.8125 -6.4502,63.5703 0,21.7588 2.22949,43 6.4502,63.54 4.22071,20.54 10.4404,40.3574 18.4531,59.25 8.0127,18.8916 17.8174,36.8486 29.1934,53.6641 11.376,16.8164 24.3262,32.5039 38.6357,46.8145 14.3105,14.3105 29.998,27.2598 46.8135,38.6357 16.8164,11.376 34.7725,21.1797 53.665,29.1934 18.8916,8.0127 38.71,14.2324 59.25,18.4531 7.90332,1.625 15.9385,2.86816 24.0391,3.88867 l 0,79.5869 z m 79,-0.399 0,-79.1855 c 8.1123,-1.02051 16.1611,-2.2627 24.0703,-3.88867 20.5391,-4.2207 40.3584,-10.4414 59.25,-18.4531 18.8926,-8.01367 36.8486,-17.8174 53.665,-29.1934 16.8154,-11.376 32.5029,-24.3262 46.8135,-38.6357 14.3105,-14.3105 27.2598,-29.999 38.6357,-46.8135 11.376,-16.8164 21.1807,-34.7725 29.1934,-53.666 8.0127,-18.8916 14.2324,-38.71 18.4531,-59.25 4.22168,-20.5391 6.41895,-41.7812 6.41895,-63.5391 0,-21.7579 -2.19727,-43.0312 -6.41895,-63.5703 -4.19922,-20.4326 -10.4072,-40.1377 -18.3613,-58.9414 l 68.4775,-39.5312 c 19.3467,42.6318 35.1621,115.227 35.3027,162.043 -0.19727,197.026 -159.462,372.922 -355.5,392.625 z M 216.227,209.256 147.226,169.4152 C 212.3803,78.755 355.871,5.0672 467.515,4.9352 579.138,5.106098 722.586,78.8209 787.712,169.4772 l -68.8779,39.7793 c -8.69727,-11.4336 -17.8818,-22.4805 -28.0205,-32.6191 -14.3105,-14.3105 -29.998,-27.2598 -46.8135,-38.6367 -16.8164,-11.375 -34.7725,-21.1797 -53.665,-29.1924 -18.8916,-8.0127 -38.7109,-14.2334 -59.25,-18.4541 -20.5391,-4.2207 -41.8115,-6.41895 -63.5703,-6.41895 -21.7578,0 -42.999,2.19824 -63.5391,6.41895 -20.5401,4.22071 -40.3584,10.4414 -59.25,18.4541 -18.8926,8.0127 -36.8486,17.8174 -53.665,29.1924 -16.8154,11.377 -32.5029,24.3262 -46.8135,38.6367 -10.1387,10.1387 -19.3232,21.1855 -28.0205,32.6191 z"
       id="path6"
       inkscape:connector-curvature="0"
       style="fill:#000000;fill-opacity:1" />
  </g>
</svg>
