<?xml version="1.0" encoding="UTF-8" standalone="no"?>
<svg
   xmlns:dc="http://purl.org/dc/elements/1.1/"
   xmlns:cc="http://creativecommons.org/ns#"
   xmlns:rdf="http://www.w3.org/1999/02/22-rdf-syntax-ns#"
   xmlns:svg="http://www.w3.org/2000/svg"
   xmlns="http://www.w3.org/2000/svg"
   xmlns:sodipodi="http://sodipodi.sourceforge.net/DTD/sodipodi-0.dtd"
   xmlns:inkscape="http://www.inkscape.org/namespaces/inkscape"
   width="1536"
   height="1792"
   viewBox="0 0 1536 1792"
   id="svg2"
   version="1.1"
   inkscape:version="0.91 r13725"
   sodipodi:docname="file-o.svg">
  <metadata
     id="metadata10">
    <rdf:RDF>
      <cc:Work
         rdf:about="">
        <dc:format>image/svg+xml</dc:format>
        <dc:type
           rdf:resource="http://purl.org/dc/dcmitype/StillImage" />
        <dc:title></dc:title>
      </cc:Work>
    </rdf:RDF>
  </metadata>
  <defs
     id="defs8" />
  <sodipodi:namedview
     pagecolor="#ffffff"
     bordercolor="#666666"
     borderopacity="1"
     objecttolerance="10"
     gridtolerance="10"
     guidetolerance="10"
     inkscape:pageopacity="0"
     inkscape:pageshadow="2"
     inkscape:window-width="2560"
     inkscape:window-height="1410"
     id="namedview6"
     showgrid="false"
     fit-margin-top="0"
     fit-margin-left="0"
     fit-margin-right="0"
     fit-margin-bottom="0"
     inkscape:zoom="0.4609375"
     inkscape:cx="798.09629"
     inkscape:cy="919.69551"
     inkscape:window-x="0"
     inkscape:window-y="30"
     inkscape:window-maximized="1"
     inkscape:current-layer="svg2" />
  <path
     d="m 1468,380 c 18.6667,18.66667 34.6667,44 48,76 13.3333,32 20,61.33333 20,88 l 0,1152 c 0,26.6667 -9.3333,49.3333 -28,68 -18.6667,18.6667 -41.3333,28 -68,28 l -1344,0 c -26.66667,0 -49.33333,-9.3333 -68,-28 C 9.33333,1745.3333 0,1722.6667 0,1696 L 0,96 C 0,69.33333 9.33333,46.66667 28,28 46.66667,9.33333 69.33333,0 96,0 l 896,0 c 26.6667,0 56,6.66667 88,20 32,13.33333 57.3333,29.33333 76,48 z m -444,-244 0,376 376,0 c -6.6667,-19.33333 -14,-33 -22,-41 L 1065,158 c -8,-8 -21.6667,-15.33333 -41,-22 z m 384,1528 0,-1024 -416,0 c -26.6667,0 -49.3333,-9.33333 -68,-28 -18.6667,-18.66667 -28,-41.33333 -28,-68 l 0,-416 -768,0 0,1536 z"
     id="path4"
     inkscape:connector-curvature="0"
     sodipodi:nodetypes="sssssssssssssssscccsscccssscccc" />
</svg>
