<?xml version="1.0" encoding="UTF-8" standalone="no"?>
<svg
   xmlns:dc="http://purl.org/dc/elements/1.1/"
   xmlns:cc="http://creativecommons.org/ns#"
   xmlns:rdf="http://www.w3.org/1999/02/22-rdf-syntax-ns#"
   xmlns:svg="http://www.w3.org/2000/svg"
   xmlns="http://www.w3.org/2000/svg"
   xmlns:sodipodi="http://sodipodi.sourceforge.net/DTD/sodipodi-0.dtd"
   xmlns:inkscape="http://www.inkscape.org/namespaces/inkscape"
   width="1536"
   height="1792"
   viewBox="0 0 1536 1792"
   id="svg2"
   version="1.1"
   inkscape:version="0.91 r13725"
   sodipodi:docname="tex-file.svg">
  <metadata
     id="metadata10">
    <rdf:RDF>
      <cc:Work
         rdf:about="">
        <dc:format>image/svg+xml</dc:format>
        <dc:type
           rdf:resource="http://purl.org/dc/dcmitype/StillImage" />
        <dc:title></dc:title>
      </cc:Work>
    </rdf:RDF>
  </metadata>
  <defs
     id="defs8" />
  <sodipodi:namedview
     pagecolor="#ffffff"
     bordercolor="#666666"
     borderopacity="1"
     objecttolerance="10"
     gridtolerance="10"
     guidetolerance="10"
     inkscape:pageopacity="0"
     inkscape:pageshadow="2"
     inkscape:window-width="2560"
     inkscape:window-height="1410"
     id="namedview6"
     showgrid="false"
     fit-margin-top="0"
     fit-margin-left="0"
     fit-margin-right="0"
     fit-margin-bottom="0"
     inkscape:zoom="0.11523438"
     inkscape:cx="4585.2601"
     inkscape:cy="56.661219"
     inkscape:window-x="0"
     inkscape:window-y="30"
     inkscape:window-maximized="1"
     inkscape:current-layer="svg2" />
  <path
     d="m 1468,380 c 18.6667,18.66667 34.6667,44 48,76 13.3333,32 20,61.33333 20,88 l 0,1152 c 0,26.6667 -9.3333,49.3333 -28,68 -18.6667,18.6667 -41.3333,28 -68,28 l -1344,0 c -26.66667,0 -49.33333,-9.3333 -68,-28 C 9.33333,1745.3333 0,1722.6667 0,1696 L 0,96 C 0,69.33333 9.33333,46.66667 28,28 46.66667,9.33333 69.33333,0 96,0 l 896,0 c 26.6667,0 56,6.66667 88,20 32,13.33333 57.3333,29.33333 76,48 z m -444,-244 0,376 376,0 c -6.6667,-19.33333 -14,-33 -22,-41 L 1065,158 c -8,-8 -21.6667,-15.33333 -41,-22 z m 384,1528 0,-1024 -416,0 c -26.6667,0 -49.3333,-9.33333 -68,-28 -18.6667,-18.66667 -28,-41.33333 -28,-68 l 0,-416 -768,0 0,1536 z"
     id="path4"
     inkscape:connector-curvature="0"
     sodipodi:nodetypes="sssssssssssssssscccsscccssscccc" />
  <g
     id="g4185"
     transform="matrix(1.1900627,0,0,1.1900627,161.27567,841.6654)">
    <path
       sodipodi:type="inkscape:offset"
       inkscape:radius="8.1797323"
       inkscape:original="M 14.820312 23.890625 L 4.609375 157.66016 L 15.480469 157.66016 C 23.300469 57.470156 31.889453 39.929688 125.68945 39.929688 L 159.08008 39.929688 C 170.63008 41.739688 170.63086 49.089766 170.63086 63.009766 L 170.63086 392.26953 C 170.63086 414.12953 168.79961 420.80078 117.84961 420.80078 L 100.67969 420.80078 L 100.67969 435.41016 C 129.69969 434.85016 159.93937 434.25977 189.60938 434.25977 C 219.18937 434.25977 249.51953 434.85016 278.51953 435.41016 L 278.51953 420.80078 L 261.64062 420.80078 C 211.45063 420.80078 209.64062 414.12953 209.64062 392.26953 L 209.64062 63.019531 C 209.64062 49.659531 209.6393 42.409453 220.5293 39.939453 L 253.7207 39.939453 C 346.2707 39.939453 355.33062 57.379922 363.14062 157.66992 L 374.0293 157.66992 L 364.08984 23.890625 L 14.820312 23.890625 z "
       id="path4190"
       d="m 14.820312,15.710938 a 8.1805503,8.1805503 0 0 0 -8.1562495,7.55664 L -3.546875,157.03711 a 8.1805503,8.1805503 0 0 0 8.15625,8.80273 l 10.871094,0 a 8.1805503,8.1805503 0 0 0 8.154297,-7.54296 C 27.529569,108.39657 32.251245,80.554964 44.488281,66.621094 50.606799,59.654159 58.775674,55.176511 71.810547,52.212891 84.84542,49.24927 102.49439,48.109375 125.68945,48.109375 l 32.63477,0 c 3.07506,0.474032 2.71207,0.398201 3.21484,1.722656 0.54636,1.439268 0.91211,6.217887 0.91211,13.177735 l 0,329.259764 c 0,5.3508 -0.22112,9.3338 -0.8164,11.60938 -0.59529,2.27558 -0.92911,2.82367 -2.72071,3.97851 -3.5832,2.30969 -15.94646,4.76367 -41.06445,4.76367 l -17.16992,0 A 8.1805503,8.1805503 0 0 0 92.5,420.80078 l 0,14.60938 a 8.1805503,8.1805503 0 0 0 8.33789,8.17773 c 29.02129,-0.56002 59.20998,-1.14844 88.77149,-1.14844 29.47114,0 59.75106,0.58842 88.75195,1.14844 a 8.1805503,8.1805503 0 0 0 8.33789,-8.17773 l 0,-14.60938 a 8.1805503,8.1805503 0 0 0 -8.17969,-8.17969 l -16.87891,0 c -24.73257,0 -36.86571,-2.45904 -40.34374,-4.73437 -1.73902,-1.13767 -2.07684,-1.68596 -2.66797,-3.97852 -0.59113,-2.29255 -0.8086,-6.28655 -0.8086,-11.63867 l 0,-329.249999 c 0,-6.680269 0.31433,-11.286567 0.87891,-12.859375 0.49716,-1.385004 0.46974,-1.472645 2.91797,-2.041015 l 32.10351,0 c 22.8806,0 40.31847,1.132934 53.2168,4.085937 12.89833,2.953003 21.0123,7.415656 27.11914,14.382813 12.21369,13.934314 17.04085,41.779299 20.92969,91.716799 a 8.1805503,8.1805503 0 0 0 8.15429,7.54492 l 10.88868,0 a 8.1805503,8.1805503 0 0 0 8.1582,-8.78516 L 372.24805,23.285156 a 8.1805503,8.1805503 0 0 0 -8.15821,-7.574218 l -349.269528,0 z" />
    <path
       sodipodi:type="inkscape:offset"
       inkscape:radius="6.1145487"
       inkscape:original="M 331.09961 155.16992 L 331.09961 171.7793 C 373.93961 171.7793 380.80078 171.7807 380.80078 198.9707 L 380.80078 525.39062 C 380.80078 552.58063 374.02961 552.58008 331.09961 552.58008 L 331.09961 567.18945 L 645.85938 567.18945 L 667.59961 414.32031 L 656.73047 414.32031 C 643.47047 504.01031 635.64977 552.75977 529.25977 552.75977 L 445.31055 552.75977 C 421.15055 552.75977 420.00977 549.71039 420.00977 528.90039 L 420.00977 359.83008 L 477.07031 359.83008 C 534.13031 359.83008 539.57031 380.73906 539.57031 431.78906 L 549.28906 431.78906 L 549.28906 274.43945 L 539.57031 274.43945 C 539.57031 324.62945 534.12031 345.15039 477.07031 345.15039 L 420 345.15039 L 420 195.25 C 420 174.83 421.15078 171.7793 445.30078 171.7793 L 528 171.7793 C 621.6 171.7793 632.4907 208.97922 640.9707 288.94922 L 651.86914 288.94922 L 637.35938 155.16992 L 331.09961 155.16992 z "
       id="path4192"
       d="m 331.09961,149.05469 a 6.1151601,6.1151601 0 0 0 -6.11523,6.11523 l 0,16.60938 a 6.1151601,6.1151601 0 0 0 6.11523,6.11523 c 21.41993,0 33.71642,0.60786 38.26562,2.79492 2.27461,1.09354 3.00668,1.91499 3.91016,4.54688 0.90348,2.63189 1.41016,7.19403 1.41016,13.73437 l 0,326.41992 c 0,6.54372 -0.50133,11.11114 -1.40039,13.74415 -0.89906,2.633 -1.62261,3.4461 -3.88868,4.53711 -4.53213,2.18201 -16.83184,2.79296 -38.29687,2.79296 a 6.1151601,6.1151601 0 0 0 -6.11523,6.11524 l 0,14.60937 a 6.1151601,6.1151601 0 0 0 6.11523,6.11524 l 314.75977,0 a 6.1151601,6.1151601 0 0 0 6.05273,-5.25391 l 21.74023,-152.86914 a 6.1151601,6.1151601 0 0 0 -6.05273,-6.97656 l -10.86914,0 a 6.1151601,6.1151601 0 0 0 -6.04883,5.2207 c -6.628,44.83151 -12.13085,78.59863 -27.71875,100.16602 -15.5879,21.56739 -41.44205,33.05273 -93.70312,33.05273 l -83.94922,0 c -5.91138,0 -10.27153,-0.21851 -13.09571,-0.71094 -2.82418,-0.49242 -3.80614,-1.13026 -4.2539,-1.58593 -0.44777,-0.45568 -0.96617,-1.30903 -1.34961,-3.85157 -0.38344,-2.54253 -0.48633,-6.44906 -0.48633,-11.5957 l 0,-162.95508 50.94531,0 c 27.78313,0 40.81415,4.90011 47.71289,14.33008 6.89875,9.42997 8.67188,26.20587 8.67188,51.51367 a 6.1151601,6.1151601 0 0 0 6.11523,6.11524 l 9.71875,0 a 6.1151601,6.1151601 0 0 0 6.11524,-6.11524 l 0,-157.34961 a 6.1151601,6.1151601 0 0 0 -6.11524,-6.11523 l -9.71875,0 a 6.1151601,6.1151601 0 0 0 -6.11523,6.11523 c 0,24.87368 -1.77186,41.29596 -8.64453,50.52344 -6.87268,9.22748 -19.94837,14.07227 -47.74024,14.07227 l -50.95508,0 0,-143.78516 c 0,-5.04757 0.10565,-8.87626 0.48633,-11.35352 0.38069,-2.47725 0.88017,-3.27744 1.32227,-3.7207 0.44209,-0.44326 1.44341,-1.08715 4.27539,-1.57617 2.83198,-0.48903 7.1928,-0.70508 13.10156,-0.70508 l 82.69922,0 c 45.98995,0 69.65487,8.88091 83.63672,26.30664 13.98185,17.42574 19.03237,45.58167 23.2539,85.39258 a 6.1151601,6.1151601 0 0 0 6.08008,5.4707 l 10.89844,0 a 6.1151601,6.1151601 0 0 0 6.07813,-6.77539 L 643.4375,154.50977 a 6.1151601,6.1151601 0 0 0 -6.07812,-5.45508 l -306.25977,0 z" />
    <path
       sodipodi:type="inkscape:offset"
       inkscape:radius="7.5948091"
       inkscape:original="M 625.80078 23.029297 L 625.80078 37.640625 C 659.02078 37.640625 669.89 38.889922 683.25 57.669922 L 799.92969 229.03906 L 694.71094 382.75 C 668.75094 420.34 629.45062 421 617.89062 421 L 617.89062 435.60938 C 631.71063 434.45938 654.72047 434.46094 669.23047 434.46094 C 685.55047 434.46094 713.98078 434.45938 729.05078 435.60938 L 729.05078 421 C 710.34078 419.19 704.91992 407.08008 704.91992 397.33008 C 704.91992 389.51008 707.87969 385.21992 710.92969 380.91992 L 807.67969 239.7207 L 912.90039 394.38086 C 917.66039 401.07086 917.66016 402.87945 917.66016 404.68945 C 917.66016 409.44945 912.24055 419.85961 891.06055 421.09961 L 891.06055 435.71094 C 910.43055 434.56094 940.00945 434.56055 959.93945 434.56055 C 975.59945 434.56055 1005.8298 434.56094 1020.5098 435.71094 L 1020.5098 421.09961 C 981.76977 421.09961 975.67039 418.14031 963.65039 401.07031 L 830.66016 206.50977 L 920.15039 77.130859 C 929.11039 64.430859 947.3407 38.290859 996.9707 37.630859 L 996.9707 23.029297 C 983.1207 24.179297 960.14086 24.179687 945.63086 24.179688 C 925.70086 24.179688 900.88055 24.179297 885.81055 23.029297 L 885.81055 37.640625 C 905.18055 39.450625 909.93945 51.560547 909.93945 61.310547 C 909.93945 68.540547 906.97945 73.419688 902.68945 79.429688 L 822.83984 195.25 L 733.34961 64.259766 C 729.14961 57.669766 728.56055 55.759219 728.56055 53.949219 C 728.56055 48.499219 735.14969 38.200859 755.17969 37.630859 L 755.17969 23.029297 C 735.80969 24.179297 706.23078 24.179688 686.30078 24.179688 C 670.64078 24.179688 640.41078 24.179297 625.80078 23.029297 z "
       id="path4194"
       d="m 625.63867,15.435547 a 7.5955685,7.5955685 0 0 0 -7.43359,7.59375 l 0,14.611328 a 7.5955685,7.5955685 0 0 0 7.5957,7.595703 c 16.5148,0 26.98459,0.468686 33.91406,2.626953 6.9288,2.158058 11.18255,5.546807 17.34375,14.207031 6e-4,8.41e-4 0.001,0.0011 0.002,0.002 L 790.73438,229.02734 688.46094,378.43359 C 664.51406,413.1086 629.16155,413.4043 617.89062,413.4043 A 7.5955685,7.5955685 0 0 0 610.29492,421 l 0,14.60938 a 7.5955685,7.5955685 0 0 0 8.22461,7.56835 c 13.12518,-1.09218 36.20039,-1.12109 50.71094,-1.12109 16.32048,0 44.8953,0.0302 59.24219,1.125 a 7.5955685,7.5955685 0 0 0 8.17382,-7.57226 l 0,-14.60938 a 7.5955685,7.5955685 0 0 0 -6.86523,-7.55859 c -7.80915,-0.75546 -11.61669,-3.30119 -13.95703,-6.13477 -2.34034,-2.83357 -3.30859,-6.5091 -3.3086,-9.97656 10e-6,-5.90364 1.59711,-7.76882 4.60938,-12.01563 a 7.5955685,7.5955685 0 0 0 0.0703,-0.10156 l 90.46289,-132.02344 98.96289,145.46289 a 7.5955685,7.5955685 0 0 0 0.0918,0.13086 c 2.19254,3.08154 3.06455,4.80271 3.2832,5.35938 0.21866,0.55666 0.0684,-0.35845 0.0684,0.54687 0,-1.00483 -0.66767,7.72866 -19.44726,8.82813 a 7.5955685,7.5955685 0 0 0 -7.15235,7.58203 l 0,14.61133 a 7.5955685,7.5955685 0 0 0 8.04493,7.58203 c 18.91348,-1.1229 48.49978,-1.13672 68.42968,-1.13672 15.65988,0 46.10575,0.0403 59.97655,1.12695 a 7.5955685,7.5955685 0 0 0 8.1895,-7.57226 l 0,-14.61133 a 7.5955685,7.5955685 0 0 0 -7.5957,-7.5957 c -19.1767,0 -29.76403,-0.93169 -35.84574,-3.15235 -6.07945,-2.21983 -9.0223,-5.44376 -14.79883,-13.64648 -0.002,-0.003 -0.004,-0.005 -0.006,-0.008 L 839.87695,206.53516 926.35547,81.509766 l 0.006,-0.0078 c 8.99294,-12.74741 23.73065,-35.652581 70.71094,-36.277344 a 7.5955685,7.5955685 0 0 0 7.49413,-7.59375 l 0,-14.601562 a 7.5955685,7.5955685 0 0 0 -8.2246,-7.568359 c -13.15975,1.092686 -36.20108,1.123045 -50.71094,1.123046 -19.9299,0 -44.8029,-0.02508 -59.24219,-1.126953 a 7.5955685,7.5955685 0 0 0 -8.17383,7.572266 l 0,14.611328 a 7.5955685,7.5955685 0 0 0 6.88868,7.5625 c 8.18014,0.764381 11.90336,3.312313 14.12695,6.066406 2.22359,2.754093 3.11328,6.401672 3.11328,10.041016 0,5.157097 -1.71545,7.934502 -5.83594,13.707031 a 7.5955685,7.5955685 0 0 0 -0.0703,0.101563 L 822.86914,181.82812 739.7207,60.121094 c -1.97,-3.09647 -3.01313,-5.015785 -3.38867,-5.869141 -0.37917,-0.861623 -0.17578,-0.221638 -0.17578,-0.302734 0,0.671499 1.76297,-8.229207 19.24023,-8.726563 a 7.5955685,7.5955685 0 0 0 7.37891,-7.591797 l 0,-14.601562 a 7.5955685,7.5955685 0 0 0 -8.04492,-7.582031 c -18.91348,1.122896 -48.49979,1.136718 -68.42969,1.136718 -15.65987,0 -46.11119,-0.04125 -59.9043,-1.126953 a 7.5955685,7.5955685 0 0 0 -0.75781,-0.02148 z" />
  </g>
</svg>
