<?xml version="1.0" encoding="UTF-8" standalone="no"?>
<svg
   xmlns:dc="http://purl.org/dc/elements/1.1/"
   xmlns:cc="http://creativecommons.org/ns#"
   xmlns:rdf="http://www.w3.org/1999/02/22-rdf-syntax-ns#"
   xmlns:svg="http://www.w3.org/2000/svg"
   xmlns="http://www.w3.org/2000/svg"
   xmlns:sodipodi="http://sodipodi.sourceforge.net/DTD/sodipodi-0.dtd"
   xmlns:inkscape="http://www.inkscape.org/namespaces/inkscape"
   width="26.47578mm"
   height="5.7204299mm"
   viewBox="0 0 93.81182 20.26924"
   id="svg4182"
   version="1.1"
   inkscape:version="1.0.1 (c497b03c, 2020-09-10)"
   sodipodi:docname="cocalc-word.svg">
  <defs
     id="defs4184" />
  <sodipodi:namedview
     id="base"
     pagecolor="#c8c8c8"
     bordercolor="#666666"
     borderopacity="1.0"
     inkscape:pageopacity="1"
     inkscape:pageshadow="2"
     inkscape:zoom="5.6"
     inkscape:cx="36.368492"
     inkscape:cy="25.48054"
     inkscape:document-units="px"
     inkscape:current-layer="layer1"
     showgrid="false"
     fit-margin-top="1"
     fit-margin-left="1"
     fit-margin-right="1"
     fit-margin-bottom="1"
     inkscape:window-width="1252"
     inkscape:window-height="847"
     inkscape:window-x="129"
     inkscape:window-y="63"
     inkscape:window-maximized="0"
     inkscape:document-rotation="0" />
  <metadata
     id="metadata4187">
    <rdf:RDF>
      <cc:Work
         rdf:about="">
        <dc:format>image/svg+xml</dc:format>
        <dc:type
           rdf:resource="http://purl.org/dc/dcmitype/StillImage" />
        <dc:title></dc:title>
      </cc:Work>
    </rdf:RDF>
  </metadata>
  <g
     inkscape:label="Layer 1"
     inkscape:groupmode="layer"
     id="layer1"
     transform="translate(-277.37982,-439.5954)">
    <g
       transform="matrix(1.0014175,0,0,0.99858451,0.50223214,-55.078125)"
       style="font-style:normal;font-variant:normal;font-weight:normal;font-stretch:normal;font-size:19.5517px;line-height:100%;font-family:CoCalc;-inkscape-font-specification:CoCalc;text-align:start;letter-spacing:0px;word-spacing:0px;writing-mode:lr-tb;text-anchor:start;fill:#ffffff;fill-opacity:1;stroke:none;stroke-width:1px;stroke-linecap:butt;stroke-linejoin:miter;stroke-opacity:1"
       id="text4159">
      <path
         d="m 286.6124,513.50683 c 0.99713,0.25418 2.05293,0.29328 3.10872,0.0978 1.05579,-0.19551 2.01382,-0.54744 2.8741,-1.11444 l -2.34621,-1.68145 c -0.70386,0.37148 -2.11158,0.39103 -3.05006,0.17597 -0.66476,-0.15642 -1.27086,-0.43014 -1.81831,-0.84073 -0.54745,-0.39103 -0.99714,-0.84072 -1.38817,-1.40772 -0.39103,-0.58655 -0.62565,-1.23176 -0.76252,-1.93562 -0.13686,-0.70386 -0.0977,-1.38817 0.0587,-2.07248 0.15641,-0.66475 0.43014,-1.29041 0.82117,-1.8183 0.39103,-0.54745 0.84072,-0.99714 1.42727,-1.38818 0.567,-0.37148 1.23176,-0.6061 1.93562,-0.74296 1.38817,-0.25417 2.67858,0.0391 3.89079,0.86027 l 1.50548,-2.13113 c -0.84072,-0.58655 -1.75965,-0.97759 -2.75679,-1.23176 -0.99714,-0.25417 -2.03338,-0.27372 -3.08917,-0.0782 -1.05579,0.19551 -2.01382,0.567 -2.8741,1.13399 -0.87982,0.567 -1.60324,1.25131 -2.18979,2.09204 -0.567,0.82117 -0.95803,1.72055 -1.2122,2.71768 -0.25417,1.01669 -0.29328,2.05293 -0.0978,3.10872 0.19552,1.03624 0.54745,1.97472 1.11445,2.85455 0.567,0.87983 1.29041,1.60324 2.11158,2.18979 0.84072,0.567 1.72055,0.95803 2.73724,1.2122 z"
         id="path4745" />
      <path
         d="m 301.6529,498.1001 c -2.17023,0 -4.00809,0.78207 -5.51357,2.3071 -1.52504,1.52503 -2.30711,3.36289 -2.30711,5.51358 0,2.17023 0.78207,3.98854 2.30711,5.51357 1.52503,1.52504 3.34334,2.30711 5.51357,2.30711 2.17024,0 3.98855,-0.78207 5.51358,-2.30711 1.54459,-1.50548 2.32665,-3.34334 2.32665,-5.51357 0,-2.15069 -0.78206,-3.98855 -2.32665,-5.51358 -1.52503,-1.52503 -3.34334,-2.3071 -5.51358,-2.3071 z m 0,2.61993 c 1.42728,0 2.65903,0.50834 3.67572,1.52503 1.01669,1.01669 1.52503,2.24844 1.52503,3.67572 0,1.42727 -0.48879,2.65903 -1.52503,3.69527 -1.01669,1.01669 -2.24844,1.50548 -3.67572,1.50548 -1.42727,0 -2.67858,-0.48879 -3.69527,-1.50548 -1.01669,-1.01669 -1.50548,-2.268 -1.50548,-3.69527 0,-1.42728 0.48879,-2.65903 1.50548,-3.67572 1.03624,-1.03624 2.268,-1.52503 3.69527,-1.52503 z"
         id="path4747" />
      <path
         d="m 317.2583,513.50683 c 0.99714,0.25418 2.05293,0.29328 3.10872,0.0978 1.05579,-0.19551 2.01382,-0.54744 2.8741,-1.11444 l -2.3462,-1.68145 c -0.70387,0.37148 -2.11159,0.39103 -3.05007,0.17597 -0.66476,-0.15642 -1.27086,-0.43014 -1.81831,-0.84073 -0.54744,-0.39103 -0.99713,-0.84072 -1.38817,-1.40772 -0.39103,-0.58655 -0.62565,-1.23176 -0.76251,-1.93562 -0.13687,-0.70386 -0.0978,-1.38817 0.0587,-2.07248 0.15642,-0.66475 0.43014,-1.29041 0.82117,-1.8183 0.39104,-0.54745 0.84073,-0.99714 1.42728,-1.38818 0.567,-0.37148 1.23175,-0.6061 1.93561,-0.74296 1.38818,-0.25417 2.67859,0.0391 3.89079,0.86027 l 1.50548,-2.13113 c -0.84072,-0.58655 -1.75965,-0.97759 -2.75679,-1.23176 -0.99713,-0.25417 -2.03337,-0.27372 -3.08916,-0.0782 -1.0558,0.19551 -2.01383,0.567 -2.8741,1.13399 -0.87983,0.567 -1.60324,1.25131 -2.18979,2.09204 -0.567,0.82117 -0.95804,1.72055 -1.21221,2.71768 -0.25417,1.01669 -0.29327,2.05293 -0.0978,3.10872 0.19552,1.03624 0.54745,1.97472 1.11445,2.85455 0.567,0.87983 1.29041,1.60324 2.11158,2.18979 0.84073,0.567 1.72055,0.95803 2.73724,1.2122 z"
         id="path4749" />
      <path
         d="m 330.03826,508.5407 2.3071,-4.59465 2.28754,4.59465 h 2.93276 l -5.2203,-10.4406 -7.82068,15.64136 h 2.89365 l 1.32951,-2.61993 z m 8.81781,2.60038 h -2.89365 l 1.29041,2.60038 h 2.9132 z"
         id="path4751" />
      <path
         d="m 345.57551,511.12153 -2.60037,2.61993 h 10.42105 v -2.61993 z m -2.60037,-13.02143 v 0.43013 11.67237 l 2.60037,-2.61993 v -9.05244 -0.43013 z"
         id="path4753" />
      <path
         d="m 360.87138,513.50683 c 0.99714,0.25418 2.05293,0.29328 3.10872,0.0978 1.0558,-0.19551 2.01383,-0.54744 2.8741,-1.11444 l -2.3462,-1.68145 c -0.70386,0.37148 -2.11158,0.39103 -3.05006,0.17597 -0.66476,-0.15642 -1.27086,-0.43014 -1.81831,-0.84073 -0.54745,-0.39103 -0.99714,-0.84072 -1.38817,-1.40772 -0.39104,-0.58655 -0.62566,-1.23176 -0.76252,-1.93562 -0.13686,-0.70386 -0.0978,-1.38817 0.0587,-2.07248 0.15641,-0.66475 0.43013,-1.29041 0.82117,-1.8183 0.39103,-0.54745 0.84072,-0.99714 1.42727,-1.38818 0.567,-0.37148 1.23176,-0.6061 1.93562,-0.74296 1.38817,-0.25417 2.67858,0.0391 3.89079,0.86027 l 1.50548,-2.13113 c -0.84073,-0.58655 -1.75965,-0.97759 -2.75679,-1.23176 -0.99714,-0.25417 -2.03338,-0.27372 -3.08917,-0.0782 -1.05579,0.19551 -2.01382,0.567 -2.8741,1.13399 -0.87983,0.567 -1.60324,1.25131 -2.18979,2.09204 -0.567,0.82117 -0.95803,1.72055 -1.2122,2.71768 -0.25418,1.01669 -0.29328,2.05293 -0.0978,3.10872 0.19551,1.03624 0.54744,1.97472 1.11444,2.85455 0.567,0.87983 1.29042,1.60324 2.11159,2.18979 0.84072,0.567 1.72055,0.95803 2.73723,1.2122 z"
         id="path4755" />
    </g>
  </g>
</svg>
