<?xml version="1.0" encoding="UTF-8" standalone="no"?>
<!-- Created with Inkscape (http://www.inkscape.org/) -->

<svg
   xmlns:dc="http://purl.org/dc/elements/1.1/"
   xmlns:cc="http://creativecommons.org/ns#"
   xmlns:rdf="http://www.w3.org/1999/02/22-rdf-syntax-ns#"
   xmlns:svg="http://www.w3.org/2000/svg"
   xmlns="http://www.w3.org/2000/svg"
   xmlns:sodipodi="http://sodipodi.sourceforge.net/DTD/sodipodi-0.dtd"
   xmlns:inkscape="http://www.inkscape.org/namespaces/inkscape"
   width="42.590805mm"
   height="4.4578185mm"
   viewBox="0 0 150.91229 15.795421"
   id="svg4171"
   version="1.1"
   inkscape:version="0.91 r13725"
   sodipodi:docname="open-cocalc-font-dark.svg">
  <defs
     id="defs4173" />
  <sodipodi:namedview
     id="base"
     pagecolor="#c0c0c0"
     bordercolor="#666666"
     borderopacity="1.0"
     inkscape:pageopacity="0"
     inkscape:pageshadow="2"
     inkscape:zoom="3.959798"
     inkscape:cx="37.304809"
     inkscape:cy="-16.858535"
     inkscape:document-units="px"
     inkscape:current-layer="text4140"
     showgrid="false"
     inkscape:window-width="1920"
     inkscape:window-height="1056"
     inkscape:window-x="0"
     inkscape:window-y="24"
     inkscape:window-maximized="1"
     borderlayer="true"
     inkscape:showpageshadow="true"
     fit-margin-top="0"
     fit-margin-left="0"
     fit-margin-right="0"
     fit-margin-bottom="0"
     showguides="true"
     inkscape:guide-bbox="true"
     inkscape:snap-page="true"
     inkscape:snap-text-baseline="true"
     inkscape:snap-intersection-paths="true"
     inkscape:object-paths="true"
     inkscape:object-nodes="true">
    <sodipodi:guide
       position="89.997925,15.795291"
       orientation="0,1"
       id="guide4146" />
  </sodipodi:namedview>
  <metadata
     id="metadata4176">
    <rdf:RDF>
      <cc:Work
         rdf:about="">
        <dc:format>image/svg+xml</dc:format>
        <dc:type
           rdf:resource="http://purl.org/dc/dcmitype/StillImage" />
        <dc:title></dc:title>
      </cc:Work>
    </rdf:RDF>
  </metadata>
  <g
     inkscape:label="Layer 1"
     inkscape:groupmode="layer"
     id="layer1"
     transform="translate(-190.39056,-301.82079)">
    <g
       transform="scale(1.0014175,0.99858451)"
       style="font-style:normal;font-variant:normal;font-weight:normal;font-stretch:normal;font-size:19.55169678px;line-height:100%;font-family:CoCalc;-inkscape-font-specification:CoCalc;text-align:start;letter-spacing:0px;word-spacing:0px;writing-mode:lr-tb;text-anchor:start;fill:#000000;fill-opacity:1;stroke:none;stroke-width:1px;stroke-linecap:butt;stroke-linejoin:miter;stroke-opacity:1"
       id="text4155">
      <g
         id="g4144"
         transform="translate(35.431389,0.14249141)">
        <path
           inkscape:connector-curvature="0"
           id="path4136"
           style="fill:#000000;fill-opacity:1"
           d="m 224.87277,317.54672 c 0.99714,0.25417 2.05293,0.29328 3.10872,0.0978 1.05579,-0.19552 2.01383,-0.54745 2.8741,-1.11445 l -2.3462,-1.68144 c -0.70386,0.37148 -2.11159,0.39103 -3.05007,0.17596 -0.66475,-0.15641 -1.27086,-0.43014 -1.8183,-0.84072 -0.54745,-0.39103 -0.99714,-0.84072 -1.38818,-1.40772 -0.39103,-0.58655 -0.62565,-1.23176 -0.76251,-1.93562 -0.13686,-0.70386 -0.0978,-1.38817 0.0587,-2.07248 0.15642,-0.66476 0.43014,-1.29041 0.82117,-1.81831 0.39104,-0.54745 0.84073,-0.99713 1.42728,-1.38817 0.567,-0.37148 1.23176,-0.6061 1.93562,-0.74296 1.38817,-0.25418 2.67858,0.0391 3.89078,0.86027 l 1.50549,-2.13113 c -0.84073,-0.58655 -1.75966,-0.97759 -2.75679,-1.23176 -0.99714,-0.25417 -2.03338,-0.27372 -3.08917,-0.0782 -1.05579,0.19552 -2.01383,0.567 -2.8741,1.134 -0.87983,0.567 -1.60324,1.25131 -2.18979,2.09203 -0.567,0.82117 -0.95803,1.72055 -1.21221,2.71769 -0.25417,1.01669 -0.29327,2.05293 -0.0978,3.10872 0.19552,1.03624 0.54745,1.97472 1.11445,2.85455 0.567,0.87982 1.29041,1.60324 2.11158,2.18979 0.84073,0.567 1.72055,0.95803 2.73724,1.2122 z" />
        <path
           inkscape:connector-curvature="0"
           id="path4138"
           style="fill:#000000;fill-opacity:1"
           d="m 239.91328,302.13998 c -2.17024,0 -4.0081,0.78207 -5.51358,2.3071 -1.52503,1.52504 -2.3071,3.3629 -2.3071,5.51358 0,2.17024 0.78207,3.98855 2.3071,5.51358 1.52503,1.52503 3.34334,2.3071 5.51358,2.3071 2.17024,0 3.98854,-0.78207 5.51358,-2.3071 1.54458,-1.50548 2.32665,-3.34334 2.32665,-5.51358 0,-2.15068 -0.78207,-3.98854 -2.32665,-5.51358 -1.52504,-1.52503 -3.34334,-2.3071 -5.51358,-2.3071 z m 0,2.61993 c 1.42727,0 2.65903,0.50835 3.67572,1.52503 1.01669,1.01669 1.52503,2.24845 1.52503,3.67572 0,1.42728 -0.48879,2.65903 -1.52503,3.69527 -1.01669,1.01669 -2.24845,1.50548 -3.67572,1.50548 -1.42728,0 -2.67858,-0.48879 -3.69527,-1.50548 -1.01669,-1.01668 -1.50548,-2.26799 -1.50548,-3.69527 0,-1.42727 0.48879,-2.65903 1.50548,-3.67572 1.03624,-1.03624 2.26799,-1.52503 3.69527,-1.52503 z" />
        <path
           inkscape:connector-curvature="0"
           id="path4140"
           style="fill:#000000;fill-opacity:1"
           d="m 255.51867,317.54672 c 0.99714,0.25417 2.05293,0.29328 3.10872,0.0978 1.0558,-0.19552 2.01383,-0.54745 2.8741,-1.11445 l -2.3462,-1.68144 c -0.70386,0.37148 -2.11158,0.39103 -3.05006,0.17596 -0.66476,-0.15641 -1.27086,-0.43014 -1.81831,-0.84072 -0.54745,-0.39103 -0.99714,-0.84072 -1.38817,-1.40772 -0.39104,-0.58655 -0.62566,-1.23176 -0.76252,-1.93562 -0.13686,-0.70386 -0.0978,-1.38817 0.0587,-2.07248 0.15641,-0.66476 0.43013,-1.29041 0.82117,-1.81831 0.39103,-0.54745 0.84072,-0.99713 1.42727,-1.38817 0.567,-0.37148 1.23176,-0.6061 1.93562,-0.74296 1.38817,-0.25418 2.67858,0.0391 3.89079,0.86027 l 1.50548,-2.13113 c -0.84073,-0.58655 -1.75965,-0.97759 -2.75679,-1.23176 -0.99714,-0.25417 -2.03338,-0.27372 -3.08917,-0.0782 -1.05579,0.19552 -2.01382,0.567 -2.8741,1.134 -0.87983,0.567 -1.60324,1.25131 -2.18979,2.09203 -0.567,0.82117 -0.95803,1.72055 -1.2122,2.71769 -0.25418,1.01669 -0.29328,2.05293 -0.0978,3.10872 0.19551,1.03624 0.54744,1.97472 1.11444,2.85455 0.567,0.87982 1.29042,1.60324 2.11159,2.18979 0.84072,0.567 1.72055,0.95803 2.73723,1.2122 z" />
        <path
           inkscape:connector-curvature="0"
           id="path4142"
           style="fill:#000000;fill-opacity:1"
           d="m 268.29863,312.58059 2.3071,-4.59465 2.28755,4.59465 2.93275,0 -5.2203,-10.44061 -7.82068,15.64136 2.89365,0 1.32952,-2.61993 1.29041,-2.58082 z m 8.81782,2.60038 -2.89366,0 1.29042,2.60037 2.9132,0 -1.30996,-2.60037 z" />
        <path
           inkscape:connector-curvature="0"
           id="path4144"
           style="fill:#000000;fill-opacity:1"
           d="m 283.83589,315.16141 -2.60038,2.61993 10.42105,0 0,-2.61993 -7.82067,0 z m -2.60038,-13.02143 0,0.43014 0,11.67236 2.60038,-2.61992 0,-9.05244 0,-0.43014 -2.60038,0 z" />
        <path
           inkscape:connector-curvature="0"
           id="path4146"
           style="fill:#000000;fill-opacity:1"
           d="m 299.13176,317.54672 c 0.99714,0.25417 2.05293,0.29328 3.10872,0.0978 1.05579,-0.19552 2.01382,-0.54745 2.8741,-1.11445 l -2.3462,-1.68144 c -0.70387,0.37148 -2.11159,0.39103 -3.05007,0.17596 -0.66476,-0.15641 -1.27086,-0.43014 -1.81831,-0.84072 -0.54744,-0.39103 -0.99713,-0.84072 -1.38817,-1.40772 -0.39103,-0.58655 -0.62565,-1.23176 -0.76251,-1.93562 -0.13687,-0.70386 -0.0978,-1.38817 0.0587,-2.07248 0.15641,-0.66476 0.43014,-1.29041 0.82117,-1.81831 0.39104,-0.54745 0.84073,-0.99713 1.42728,-1.38817 0.567,-0.37148 1.23175,-0.6061 1.93561,-0.74296 1.38817,-0.25418 2.67859,0.0391 3.89079,0.86027 l 1.50548,-2.13113 c -0.84072,-0.58655 -1.75965,-0.97759 -2.75679,-1.23176 -0.99713,-0.25417 -2.03337,-0.27372 -3.08916,-0.0782 -1.0558,0.19552 -2.01383,0.567 -2.8741,1.134 -0.87983,0.567 -1.60324,1.25131 -2.18979,2.09203 -0.567,0.82117 -0.95804,1.72055 -1.21221,2.71769 -0.25417,1.01669 -0.29327,2.05293 -0.0978,3.10872 0.19552,1.03624 0.54745,1.97472 1.11445,2.85455 0.567,0.87982 1.29041,1.60324 2.11158,2.18979 0.84073,0.567 1.72055,0.95803 2.73724,1.2122 z" />
      </g>
      <g
         transform="scale(0.99858451,1.0014175)"
         style="font-style:normal;font-variant:normal;font-weight:normal;font-stretch:normal;font-size:19.56624985px;line-height:100%;font-family:CoCalc;-inkscape-font-specification:CoCalc;text-align:start;letter-spacing:0px;word-spacing:0px;writing-mode:lr-tb;text-anchor:start;fill:#666666;fill-opacity:1;stroke:none;stroke-width:1px;stroke-linecap:butt;stroke-linejoin:miter;stroke-opacity:1"
         id="text4140">
        <path
           d="m 198.28818,301.82092 c -2.19159,0 -4.04753,0.78976 -5.56783,2.32981 -1.54004,1.54003 -2.3298,3.39599 -2.3298,5.56785 0,2.19158 0.78976,4.02778 2.3298,5.56782 1.54004,1.54005 3.37624,2.32981 5.56783,2.32981 2.19161,0 4.02781,-0.78976 5.56785,-2.32981 1.55979,-1.52028 2.34956,-3.37624 2.34956,-5.56782 0,-2.17186 -0.78977,-4.02782 -2.34956,-5.56785 -1.54004,-1.54005 -3.37624,-2.32981 -5.56785,-2.32981 z m 0,2.64572 c 1.44133,0 2.6852,0.51334 3.71189,1.54004 1.02671,1.02669 1.54006,2.27056 1.54006,3.7119 0,1.44131 -0.4936,2.68519 -1.54006,3.73162 -1.02669,1.02671 -2.27056,1.52029 -3.71189,1.52029 -1.44131,0 -2.70492,-0.49358 -3.73162,-1.52029 -1.0267,-1.02669 -1.5203,-2.29031 -1.5203,-3.73162 0,-1.44134 0.4936,-2.68521 1.5203,-3.7119 1.04643,-1.04646 2.29031,-1.54004 3.73162,-1.54004 z"
           style="fill:#666666"
           id="path4145"
           inkscape:connector-curvature="0" />
        <path
           d="m 220.36789,303.36097 c -1.02669,-1.0267 -2.27056,-1.54005 -3.7119,-1.54005 l -7.89763,0 2.62596,2.64572 5.27167,0 c 0.71079,0 1.32286,0.25668 1.83621,0.77001 0.53309,0.51335 0.78976,1.14515 0.78976,1.85594 0,0.73054 -0.2764,1.34261 -0.78976,1.85596 -0.51335,0.51335 -1.12542,0.77003 -1.83621,0.77003 l -5.27167,0 -2.62596,0 0,7.89763 2.62596,0 0,-5.25193 5.27167,0 c 1.44134,0 2.68521,-0.51334 3.7119,-1.54005 1.04644,-1.02668 1.54003,-2.29031 1.54003,-3.73164 0,-1.44131 -0.51335,-2.68519 -1.54003,-3.73162 z"
           style="fill:#666666"
           id="path4147"
           inkscape:connector-curvature="0" />
        <path
           d="m 224.47727,317.39903 0,0.21718 10.52363,0 0,-2.64572 -7.89764,0 -2.62599,2.42854 z m 0,-15.57811 2.62599,2.64572 7.89764,0 0,-2.64572 -10.52363,0 z m 0,6.59453 0,2.62598 2.62599,0 7.89764,0 0,-2.62598 -7.89764,0 -2.62599,0 z"
           style="fill:#666666"
           id="path4149"
           inkscape:connector-curvature="0" />
        <path
           d="m 248.34506,301.82092 0,9.45742 -10.50387,-9.45742 0,3.9883 13.12983,11.80699 0,-0.0198 0,-0.0198 0,-15.75582 -2.62596,0 z"
           style="fill:#666666"
           id="path4151"
           inkscape:connector-curvature="0" />
      </g>
    </g>
  </g>
</svg>
