<?xml version="1.0" standalone="no"?>
<!DOCTYPE svg PUBLIC "-//W3C//DTD SVG 20010904//EN"
 "http://www.w3.org/TR/2001/REC-SVG-20010904/DTD/svg10.dtd">
<svg version="1.0" xmlns="http://www.w3.org/2000/svg"
 width="16.000000pt" height="16.000000pt" viewBox="0 0 16.000000 16.000000"
 preserveAspectRatio="xMidYMid meet">
<metadata>
Created by potrace 1.11, written by Peter Selinger 2001-2013
</metadata>
<g transform="translate(0.000000,16.000000) scale(0.002399,-0.002399)"
fill="#000000" stroke="none">
<path d="M2865 6480 c-808 -123 -1541 -553 -2038 -1195 -697 -901 -856 -2097
-420 -3155 19 -47 36 -87 38 -89 3 -3 537 301 554 315 2 2 -15 52 -37 111
-172 459 -203 993 -86 1471 223 911 931 1625 1839 1857 72 18 169 39 218 46
l87 12 0 324 c0 301 -1 323 -17 322 -10 0 -72 -9 -138 -19z"/>
<path d="M3650 6175 l0 -322 83 -12 c114 -16 300 -62 427 -106 812 -284 1430
-962 1634 -1795 117 -481 86 -1014 -86 -1473 -22 -59 -39 -109 -37 -111 16
-13 551 -317 554 -315 14 16 123 317 155 427 88 307 123 556 123 877 1 508
-105 958 -334 1415 -370 739 -1012 1303 -1791 1575 -190 67 -470 132 -655 153
l-73 8 0 -321z"/>
<path d="M3050 5211 c-828 -127 -1464 -766 -1585 -1592 -20 -139 -20 -400 1
-538 47 -321 171 -617 364 -871 483 -633 1315 -893 2075 -650 300 97 549 253
775 487 144 149 230 268 323 453 231 457 268 967 106 1455 -200 595 -696 1058
-1305 1215 -235 61 -521 76 -754 41z"/>
<path d="M1038 1657 l-277 -161 22 -30 c62 -91 206 -256 321 -371 501 -499
1126 -803 1851 -901 176 -24 578 -25 755 -1 683 91 1257 357 1774 821 146 131
422 452 413 480 -2 6 -39 31 -83 57 -43 25 -165 95 -271 156 l-192 111 -75
-91 c-230 -284 -562 -537 -904 -691 -942 -424 -2041 -233 -2784 483 -65 62
-152 155 -194 207 -42 52 -77 94 -78 93 0 -1 -126 -74 -278 -162z"/>
</g>
</svg>
