<?xml version="1.0" standalone="no"?>
<!DOCTYPE svg PUBLIC "-//W3C//DTD SVG 20010904//EN"
 "http://www.w3.org/TR/2001/REC-SVG-20010904/DTD/svg10.dtd">
<svg version="1.0" xmlns="http://www.w3.org/2000/svg"
 width="16.000000pt" height="16.000000pt" viewBox="0 0 16.000000 16.000000"
 preserveAspectRatio="xMidYMid meet">
<metadata>
Created by potrace 1.11, written by Peter Selinger 2001-2013
</metadata>
<g transform="translate(0.000000,16.000000) scale(0.002399,-0.002399)"
fill="#000000" stroke="none">
<path d="M2939 6646 c-2 -2 -33 -7 -69 -11 -36 -4 -74 -9 -85 -11 -275 -52
-471 -109 -710 -204 -101 -41 -330 -155 -419 -209 -37 -22 -70 -41 -71 -41 -8
0 -245 -167 -306 -216 -268 -213 -517 -480 -693 -744 -180 -269 -310 -531
-411 -835 -34 -101 -87 -301 -100 -375 -3 -19 -10 -53 -15 -75 -4 -22 -11 -67
-15 -100 -3 -32 -8 -62 -10 -65 -25 -43 -26 -796 0 -840 1 -3 6 -32 10 -65 18
-157 86 -433 156 -627 35 -98 95 -248 103 -256 5 -4 57 25 311 173 121 70 230
133 243 139 18 9 21 16 16 41 -3 17 -10 35 -14 40 -20 29 -112 329 -124 409
-4 21 -8 41 -10 45 -2 3 -7 29 -10 56 -4 28 -9 59 -12 70 -24 108 -34 404 -20
595 8 111 40 319 62 405 9 33 18 70 20 82 8 40 86 265 120 346 104 244 285
532 454 722 212 239 534 490 785 612 22 10 49 24 60 30 126 70 481 188 650
217 71 12 161 26 168 26 4 0 7 151 7 335 l0 335 -33 0 c-19 0 -36 -2 -38 -4z"/>
<path d="M3679 6637 c-4 -47 -3 -641 1 -647 3 -5 25 -11 50 -15 575 -83 1124
-367 1536 -795 222 -230 376 -461 529 -795 69 -149 159 -455 179 -605 3 -25 8
-56 11 -70 21 -105 28 -509 12 -658 -24 -224 -100 -526 -177 -706 l-19 -45
117 -67 c64 -37 189 -109 277 -160 179 -104 195 -111 195 -94 0 7 7 26 15 43
66 145 174 478 198 617 3 14 12 66 21 115 37 201 45 300 44 580 0 305 -5 374
-43 590 -36 206 -103 439 -187 650 -44 110 -191 411 -214 436 -8 8 -14 19 -14
23 0 22 -229 345 -317 448 -169 196 -292 313 -538 511 -174 140 -517 332 -775
435 -111 45 -321 115 -375 126 -11 3 -58 14 -105 25 -99 23 -291 57 -367 65
-37 3 -53 1 -54 -7z"/>
<path d="M3127 5314 c-1 -1 -25 -6 -52 -9 -28 -4 -57 -8 -65 -10 -8 -2 -31 -7
-50 -10 -155 -26 -388 -107 -550 -192 -398 -210 -721 -561 -895 -973 -56 -134
-102 -283 -120 -390 -3 -19 -8 -42 -10 -50 -4 -13 -7 -38 -20 -160 -6 -51 -6
-308 -1 -355 3 -22 8 -65 11 -95 4 -30 8 -57 10 -60 2 -3 6 -26 10 -50 13 -94
75 -295 128 -413 159 -360 432 -675 757 -878 215 -134 465 -232 685 -269 33
-5 70 -12 82 -14 90 -18 307 -24 458 -13 83 6 107 9 175 22 14 3 43 8 65 11
22 3 43 8 48 11 4 2 20 7 35 9 88 16 301 98 428 165 81 42 257 154 284 180 8
8 38 32 65 54 71 57 201 188 266 270 55 70 169 231 169 239 0 3 13 27 28 53
121 209 204 481 238 778 5 42 4 301 -1 355 -38 427 -220 845 -500 1148 -332
360 -729 568 -1216 637 -79 11 -452 18 -462 9z"/>
<path d="M985 1589 c-121 -72 -229 -134 -240 -140 -28 -13 -88 -49 -98 -58
-13 -13 203 -271 348 -416 254 -254 539 -460 861 -622 103 -52 264 -123 278
-123 4 0 22 -7 39 -15 141 -64 475 -148 757 -189 128 -19 490 -28 655 -17 714
48 1444 360 1980 844 118 107 248 242 325 337 25 30 47 57 50 60 17 15 100
130 100 137 -1 7 -525 314 -561 328 -11 4 -33 -15 -74 -67 -225 -280 -518
-517 -855 -691 -238 -124 -567 -228 -820 -262 -25 -3 -56 -8 -70 -10 -52 -9
-219 -17 -326 -17 -197 1 -363 18 -544 57 -14 3 -34 7 -45 9 -51 10 -179 48
-270 80 -459 160 -854 432 -1164 801 -46 55 -89 101 -95 102 -6 0 -110 -57
-231 -128z"/>
</g>
</svg>
