<?xml version="1.0" standalone="no"?>
<!DOCTYPE svg PUBLIC "-//W3C//DTD SVG 20010904//EN"
 "http://www.w3.org/TR/2001/REC-SVG-20010904/DTD/svg10.dtd">
<svg version="1.0" xmlns="http://www.w3.org/2000/svg"
 width="16.000000pt" height="16.000000pt" viewBox="0 0 16.000000 16.000000"
 preserveAspectRatio="xMidYMid meet">
<metadata>
Created by potrace 1.11, written by Peter Selinger 2001-2013
</metadata>
<g transform="translate(0.000000,16.000000) scale(0.004611,-0.004611)"
fill="#000000" stroke="none">
<path d="M1515 3392 c-395 -63 -698 -214 -960 -477 -205 -205 -350 -455 -428
-735 -15 -52 -29 -108 -31 -125 -5 -29 -14 -91 -22 -145 -4 -34 -4 -285 1
-338 8 -83 36 -218 66 -317 31 -102 68 -195 76 -195 11 0 272 150 278 160 3 5
-8 48 -24 97 -52 155 -65 242 -65 423 0 119 5 189 18 250 112 540 524 952
1053 1057 l93 18 0 167 c0 181 4 170 -55 160z"/>
<path d="M1902 3230 l0 -166 90 -17 c503 -95 909 -482 1038 -989 28 -108 35
-173 35 -323 0 -179 -21 -304 -76 -450 -11 -30 -18 -59 -15 -64 6 -9 267 -161
278 -161 3 0 16 26 28 57 12 32 26 67 31 78 13 29 56 200 68 270 58 333 7 687
-144 1000 -158 328 -413 587 -750 761 -113 59 -279 119 -390 140 -11 2 -31 6
-45 9 -29 6 -95 16 -126 20 -21 2 -21 -1 -22 -165z"/>
<path d="M1560 2734 c-346 -61 -643 -306 -767 -633 -14 -36 -26 -73 -28 -81
-2 -8 -8 -33 -13 -55 -17 -64 -25 -133 -25 -230 0 -357 186 -681 498 -867 83
-50 204 -96 325 -124 61 -14 287 -13 365 2 370 71 660 322 778 674 98 292 53
622 -120 883 -42 64 -153 185 -208 227 -127 98 -263 162 -420 196 -91 21 -290
24 -385 8z"/>
<path d="M581 880 c-46 -28 -86 -50 -87 -50 -11 0 -104 -63 -104 -70 0 -15 99
-130 181 -211 197 -194 429 -330 700 -409 101 -30 121 -34 264 -55 114 -17
363 -12 470 9 44 9 89 18 100 20 198 39 446 155 634 296 135 102 353 333 337
358 -3 4 -66 43 -141 86 l-137 78 -46 -53 c-203 -234 -454 -385 -737 -444
-441 -91 -894 40 -1209 350 -39 39 -84 87 -100 108 -16 20 -31 37 -35 37 -3 0
-44 -23 -90 -50z"/>
</g>
</svg>
