<?xml version="1.0" encoding="UTF-8" standalone="no"?>
<!-- Created with Inkscape (http://www.inkscape.org/) -->

<svg
   xmlns:dc="http://purl.org/dc/elements/1.1/"
   xmlns:cc="http://creativecommons.org/ns#"
   xmlns:rdf="http://www.w3.org/1999/02/22-rdf-syntax-ns#"
   xmlns:svg="http://www.w3.org/2000/svg"
   xmlns="http://www.w3.org/2000/svg"
   xmlns:sodipodi="http://sodipodi.sourceforge.net/DTD/sodipodi-0.dtd"
   xmlns:inkscape="http://www.inkscape.org/namespaces/inkscape"
   width="100.6414"
   height="100.00087"
   id="svg3168"
   version="1.1"
   inkscape:version="0.48.4 r9939"
   sodipodi:docname="New document 2">
  <defs
     id="defs3170" />
  <sodipodi:namedview
     id="base"
     pagecolor="#ffffff"
     bordercolor="#666666"
     borderopacity="1.0"
     inkscape:pageopacity="0"
     inkscape:pageshadow="2"
     inkscape:zoom="1.979899"
     inkscape:cx="-55.59868"
     inkscape:cy="73.160401"
     inkscape:document-units="px"
     inkscape:current-layer="layer1"
     showgrid="false"
     fit-margin-top="1"
     fit-margin-left="1"
     fit-margin-right="1"
     fit-margin-bottom="1"
     inkscape:window-width="1366"
     inkscape:window-height="744"
     inkscape:window-x="0"
     inkscape:window-y="24"
     inkscape:window-maximized="1" />
  <metadata
     id="metadata3173">
    <rdf:RDF>
      <cc:Work
         rdf:about="">
        <dc:format>image/svg+xml</dc:format>
        <dc:type
           rdf:resource="http://purl.org/dc/dcmitype/StillImage" />
        <dc:title></dc:title>
      </cc:Work>
    </rdf:RDF>
  </metadata>
  <g
     inkscape:label="Layer 1"
     inkscape:groupmode="layer"
     id="layer1"
     transform="translate(-324.6793,-482.36175)">
    <g
       style="display:inline"
       id="g3315"
       transform="translate(311,-456.00001)">
      <rect
         ry="7.247725"
         rx="7.247725"
         y="939.36176"
         x="14.679302"
         height="98.00087"
         width="98.641396"
         id="rect3225-2-4"
         style="color:#000000;fill:#1919bf;fill-opacity:1;fill-rule:nonzero;stroke:none;stroke-width:0;marker:none;visibility:visible;display:inline;overflow:visible;filter:url(#filter4103);enable-background:accumulate" />
      <g
         id="g4199-9-5-9"
         style="opacity:0.98999999;color:#000000;fill:#ffffff;fill-opacity:1;fill-rule:nonzero;stroke:none;stroke-width:1;marker:none;visibility:visible;display:inline;overflow:visible;enable-background:accumulate"
         transform="matrix(0.7993857,0,0,0.7993857,-238.72741,138.18865)">
        <path
           id="path5088-3-6-9"
           d="m 360.76623,1008.6494 c -3.68285,0.1551 -7.4547,1.1794 -11.1875,2.6563 -8.5321,3.3758 -13.14971,11.534 -13.71875,17.75 -0.12803,1.3986 -0.10381,2.6938 -0.0312,3.9375 -5.0441,1.8478 -8.66151,4.3946 -10.8125,7.4687 -2.37775,3.3982 -2.89652,7.3163 -2.125,10.7813 1.4864,6.6756 7.17187,12.1081 13.78125,12.5 l 0.34375,-6.8125 c -0.88377,-0.6165 -1.4375,-1.6597 -1.4375,-2.8438 0,-1.8945 1.47757,-3.4375 3.3125,-3.4375 0.71238,0 1.36531,0.2309 1.90625,0.625 l 7.21875,-4.875 c -0.01,-0.1193 -0.0312,-0.2218 -0.0312,-0.3437 0,-2.3039 1.79978,-4.1875 4.03125,-4.1875 0.38353,0 0.74222,0.084 1.09375,0.1875 l 8.1875,-9.8125 c -0.37329,-0.5547 -0.59375,-1.2109 -0.59375,-1.9375 0,-1.8945 1.47757,-3.4375 3.3125,-3.4375 1.44173,0 2.66524,0.956 3.125,2.2812 l 25.6875,0.9063 c 0.47739,-0.6117 1.21113,-1 2.03125,-1 1.43838,0 2.625,1.2024 2.625,2.6875 0,0.1533 -0.0386,0.2912 -0.0625,0.4375 l 16.53125,20.9062 c 0.16036,-0.032 0.33063,-0.062 0.5,-0.062 1.43838,0 2.59375,1.2024 2.59375,2.6875 0,0.824 -0.37224,1.538 -0.9375,2.0313 l 1.71875,5.9375 c 0.26713,0 0.38639,0 0.65625,0 9.11214,-1.0569 14.95565,-7.9389 16.125,-15.375 1.27168,-8.0869 -2.70707,-17.2056 -12,-20.6563 -5.22068,-1.9385 -9.5543,-1.8961 -13.09375,-1 -3.57317,-9.5182 -5.59893,-12.5154 -13,-15.6562 -7.40106,-3.1408 -18.38137,-0.9588 -22.1875,2.1875 -3.76017,-3.1171 -7.81906,-4.4198 -12,-4.5313 -0.52262,-0.014 -1.03638,-0.022 -1.5625,0 z m 57.0625,55.0313 c -0.97946,0 -1.46185,-3e-4 -2.40625,0 l 1.5,5.1562 -3.875,-5.1562 c -1.65877,6e-4 -2.81174,0 -4.375,0 l 1.3125,1.75 -3.1875,9.25 -19.3125,4.625 c -0.26841,-0.4802 -0.6025,-0.8826 -1,-1.25 l 3.5625,-14.3438 c -1.46263,0 -3.36614,0 -4.8125,0 l -3.25,13.125 c -0.21809,0.052 -0.41881,0.1382 -0.625,0.2188 l -11.40625,-13.3438 c -1.75462,0 -4.21774,0.028 -6.0625,0.031 l 14.40625,16.8125 c -0.0325,0.1237 -0.0702,0.2477 -0.0937,0.375 l -31.84375,3.5312 c -0.21654,-0.2295 -0.47864,-0.4338 -0.75,-0.5937 l 10.21875,-16.1563 c 0.20737,0.055 0.4323,0.094 0.65625,0.094 1.43838,0 2.59375,-1.2025 2.59375,-2.6875 0,-0.5073 -0.13784,-0.9651 -0.375,-1.375 -1.42507,0 -2.93502,0 -4.4375,0 -0.23085,0.4026 -0.375,0.8724 -0.375,1.375 0,0.8231 0.34202,1.538 0.90625,2.0312 l -8.65625,13.7188 3.1875,-17.125 c -0.86934,6e-4 -1.50729,0.031 -2.40625,0.031 l -3.625,19.7188 c -0.93269,0.197 -1.68685,0.8053 -2.15625,1.625 l -1.59375,-0.3125 c -0.0242,-1.0606 -0.64865,-1.9601 -1.53125,-2.375 l 0.96875,-18.6563 c -0.82689,10e-5 -1.11647,0 -1.96875,0 -0.11627,0 -0.22802,-0.024 -0.34375,-0.031 l -0.96875,18.7812 c -0.81186,0.4554 -1.375,1.3228 -1.375,2.3438 0,1.485 1.18662,2.6875 2.625,2.6875 0.11598,0 0.23178,-0.016 0.34375,-0.031 l 18.0625,19.125 c -0.006,0.075 0,0.1426 0,0.2188 0,1.485 1.15537,2.6875 2.59375,2.6875 0.53006,0 1.02613,-0.188 1.4375,-0.4688 l 9.78125,5.4688 c -0.0182,0.1453 -0.0312,0.287 -0.0312,0.4375 0,1.8944 1.47757,3.4375 3.3125,3.4375 1.74092,0 3.17074,-1.3967 3.3125,-3.1563 l 26.53125,-8 c 0.60547,0.8414 1.56301,1.4063 2.65625,1.4063 1.83493,0 3.34375,-1.5431 3.34375,-3.4375 0,-0.8056 -0.26849,-1.5397 -0.71875,-2.125 l 11.5,-26.125 c 1.82066,-0.017 3.3125,-1.5225 3.3125,-3.4063 0,-1.6577 -1.14227,-3.0551 -2.65625,-3.375 l -1.90625,-6.5312 z m -78.84375,0.094 c 3.33381,-4e-4 4.97217,0 7.9375,0 l 1.875,-10.0937 -6.625,0.7812 c -0.16755,1.5618 -1.34214,2.8214 -2.84375,3.0313 l -0.34375,6.2812 z m 10.34375,-0.031 c 1.7838,0 3.26573,0 4.9375,0 0.43135,-0.7524 1.19486,-1.2684 2.09375,-1.3125 l 1.28125,-5.9688 -2.96875,-3.4687 -3.4375,0.4062 -1.90625,10.3438 z m 9.375,0 c 1.66593,0 3.60901,0 5.1875,0 l -5.3125,-6.1875 -1.09375,5.0625 c 0.50907,0.2223 0.93516,0.6348 1.21875,1.125 z m 11.25,-0.031 c 4.57463,-0.01 10.93224,0.01 15.28125,0 l 4.9375,-19.875 -1.21875,0.1563 -14.0625,5.375 c 0.0477,0.2036 0.0937,0.4062 0.0937,0.625 0,1.485 -1.18662,2.6875 -2.625,2.6875 -1.00595,0 -1.84741,-0.6068 -2.28125,-1.4688 l -9.84375,1.1563 9.71875,11.3437 z m 20.09375,0 c 5.66059,-0.01 11.96998,-0.026 18.625,-0.031 l -14.03125,-18.5313 -4.59375,18.5625 z m 23,-0.031 c 0.90048,-4e-4 1.44286,2e-4 2.375,0 l -1.5625,-5.375 c -0.0604,-0.014 -0.1288,-0.013 -0.1875,-0.031 l -1.46875,4.3125 0.84375,1.0938 z m -45.90625,-32.2188 c -0.46515,1.3148 -1.69057,2.25 -3.125,2.25 -0.12009,0 -0.22695,-0.018 -0.34375,-0.031 l -1.90625,8.9063 28.25,-3.4062 c 0.51328,-1.1438 1.50616,-2.0137 2.71875,-2.3126 l 0.625,-2.9687 c -0.49378,-0.3694 -0.8521,-0.9005 -1,-1.5313 l -25.21875,-0.9062 z m 28.875,2.6875 c -0.11895,0.06 -0.24673,0.1154 -0.375,0.1563 l -0.53125,2.75 c 1.51308,0.6027 2.59375,2.1002 2.59375,3.875 0,0.6943 -0.17813,1.3303 -0.46875,1.9062 l 14.125,18.625 1.3125,-3.8125 c -0.50055,-0.49 -0.84375,-1.1691 -0.84375,-1.9375 0,-0.4445 0.12754,-0.8494 0.3125,-1.2187 l -16.125,-20.3438 z m -33.71875,0.5625 -7.21875,8.625 c 0.0143,0.017 0.0172,0.045 0.0312,0.062 l 5.46875,-0.6875 1.71875,-8 z m 21.84375,9.8438 -23.40625,2.8437 -0.8125,3.8438 9.84375,-1.125 c -0.002,-0.043 0,-0.082 0,-0.125 0,-1.4851 1.15537,-2.6875 2.59375,-2.6875 0.82012,0 1.55386,0.3883 2.03125,1 l 9.75,-3.75 z m -24.59375,2.9687 -3.125,0.375 2.4375,2.875 0.6875,-3.25 z m -10.6875,1.0938 -6.78125,4.5937 c 0.008,0.032 0.0242,0.062 0.0312,0.094 l 6.90625,-0.7813 0.59375,-3.1875 c -0.27369,-0.2142 -0.53712,-0.4407 -0.75,-0.7187 z m 2.96875,1.5625 -0.375,2.0625 2.34375,-0.2813 -1.53125,-1.7812 c -0.0846,0.01 -0.1641,0.031 -0.25,0.031 -0.0648,0 -0.1235,-0.028 -0.1875,-0.031 z m 59,16.375 4.59375,6.0625 -7.28125,1.75 2.6875,-7.8125 z m 4.84375,9.5625 -10.4375,23.6562 0.21875,-14.6875 c 1.14001,-0.2103 2,-1.2312 2,-2.4687 0,-0.9896 -0.57034,-1.8391 -1.375,-2.25 l 0.71875,-2.125 8.875,-2.125 z m -10.1875,2.4375 -0.53125,1.5312 c -1.31726,0.034 -2.375,1.1631 -2.375,2.5313 0,1.1359 0.7173,2.0936 1.71875,2.4062 l -0.28125,16.9375 c -0.80152,0.248 -1.4849,0.8049 -1.90625,1.5313 l -14.5,-3.1875 c 0,-1.4851 -1.15537,-2.6875 -2.59375,-2.6875 -1.39891,0 -2.56342,1.1338 -2.625,2.5625 l -3.5,0.875 4.375,-13.9688 c 2.44593,-0.064 4.43097,-1.9142 4.8125,-4.3437 l 17.40625,-4.1875 z m -26.75,5.8125 c 0.31669,0.5998 0.73963,1.1352 1.25,1.5625 l -5.0625,16.125 -10.78125,2.7187 -17.09375,-16.5937 c 0.0365,-0.089 0.0645,-0.1886 0.0937,-0.2813 l 31.59375,-3.5312 z m -38.46875,2.9375 0.46875,0.094 c 0.0294,0.1815 0.0691,0.3606 0.125,0.5313 l -0.59375,-0.625 z m 2.625,2.7812 c 0.33913,0.1205 0.71498,0.1875 1.09375,0.1875 0.0768,0 0.14325,-0.026 0.21875,-0.031 l 14.4375,14.0625 c -0.22145,-0.063 -0.44657,-0.125 -0.6875,-0.125 -0.49211,0 -0.95119,0.1613 -1.34375,0.4062 l -13.71875,-14.5 z m 39.71875,11.2188 c 0.38893,0.9797 1.31723,1.6875 2.40625,1.6875 1.05451,0 1.93413,-0.6633 2.34375,-1.5938 l 12.875,2.875 -24.6875,7.4063 2.9375,-9.3125 4.125,-1.0625 z m -8.09375,2.0625 -2.5625,8.25 c -0.20604,0.033 -0.40208,0.086 -0.59375,0.1562 l -6.21875,-6.0312 9.375,-2.375 z m -13.34375,3.375 1.6875,1.625 -2.3125,-1.2813 c 0.005,-0.064 -7.5e-4,-0.1224 0,-0.1875 l 0.625,-0.1562 z"
           style="opacity:0.98999999;color:#000000;fill:#ffffff;fill-opacity:1;fill-rule:nonzero;stroke:none;stroke-width:1;marker:none;visibility:visible;display:inline;overflow:visible;enable-background:accumulate"
           inkscape:connector-curvature="0" />
      </g>
    </g>
  </g>
</svg>
