<?xml version="1.0" encoding="UTF-8" standalone="no"?>
<!-- Created with Inkscape (http://www.inkscape.org/) -->

<svg
   xmlns:dc="http://purl.org/dc/elements/1.1/"
   xmlns:cc="http://creativecommons.org/ns#"
   xmlns:rdf="http://www.w3.org/1999/02/22-rdf-syntax-ns#"
   xmlns:svg="http://www.w3.org/2000/svg"
   xmlns="http://www.w3.org/2000/svg"
   xmlns:sodipodi="http://sodipodi.sourceforge.net/DTD/sodipodi-0.dtd"
   xmlns:inkscape="http://www.inkscape.org/namespaces/inkscape"
   width="26.47578mm"
   height="21.720434mm"
   viewBox="0 0 93.81182 76.962168"
   id="svg4182"
   version="1.1"
   inkscape:version="0.91 r13725"
   sodipodi:docname="cocalc-icon-white-transparent.svg">
  <defs
     id="defs4184" />
  <sodipodi:namedview
     id="base"
     pagecolor="#c8c8c8"
     bordercolor="#666666"
     borderopacity="1.0"
     inkscape:pageopacity="1"
     inkscape:pageshadow="2"
     inkscape:zoom="5.6"
     inkscape:cx="36.368492"
     inkscape:cy="25.48054"
     inkscape:document-units="px"
     inkscape:current-layer="layer1"
     showgrid="false"
     fit-margin-top="1"
     fit-margin-left="1"
     fit-margin-right="1"
     fit-margin-bottom="1"
     inkscape:window-width="2560"
     inkscape:window-height="1410"
     inkscape:window-x="0"
     inkscape:window-y="30"
     inkscape:window-maximized="1" />
  <metadata
     id="metadata4187">
    <rdf:RDF>
      <cc:Work
         rdf:about="">
        <dc:format>image/svg+xml</dc:format>
        <dc:type
           rdf:resource="http://purl.org/dc/dcmitype/StillImage" />
        <dc:title></dc:title>
      </cc:Work>
    </rdf:RDF>
  </metadata>
  <g
     inkscape:label="Layer 1"
     inkscape:groupmode="layer"
     id="layer1"
     transform="translate(-277.37982,-439.5954)">
    <g
       transform="scale(1.0014175,0.99858451)"
       style="font-style:normal;font-variant:normal;font-weight:normal;font-stretch:normal;font-size:19.55169678px;line-height:100%;font-family:CoCalc;-inkscape-font-specification:CoCalc;text-align:start;letter-spacing:0px;word-spacing:0px;writing-mode:lr-tb;text-anchor:start;fill:#ffffff;fill-opacity:1;stroke:none;stroke-width:1px;stroke-linecap:butt;stroke-linejoin:miter;stroke-opacity:1"
       id="text4159">
      <path
         d="m 286.6124,513.50683 c 0.99713,0.25418 2.05293,0.29328 3.10872,0.0978 1.05579,-0.19551 2.01382,-0.54744 2.8741,-1.11444 l -2.34621,-1.68145 c -0.70386,0.37148 -2.11158,0.39103 -3.05006,0.17597 -0.66476,-0.15642 -1.27086,-0.43014 -1.81831,-0.84073 -0.54745,-0.39103 -0.99714,-0.84072 -1.38817,-1.40772 -0.39103,-0.58655 -0.62565,-1.23176 -0.76252,-1.93562 -0.13686,-0.70386 -0.0977,-1.38817 0.0587,-2.07248 0.15641,-0.66475 0.43014,-1.29041 0.82117,-1.8183 0.39103,-0.54745 0.84072,-0.99714 1.42727,-1.38818 0.567,-0.37148 1.23176,-0.6061 1.93562,-0.74296 1.38817,-0.25417 2.67858,0.0391 3.89079,0.86027 l 1.50548,-2.13113 c -0.84072,-0.58655 -1.75965,-0.97759 -2.75679,-1.23176 -0.99714,-0.25417 -2.03338,-0.27372 -3.08917,-0.0782 -1.05579,0.19551 -2.01382,0.567 -2.8741,1.13399 -0.87982,0.567 -1.60324,1.25131 -2.18979,2.09204 -0.567,0.82117 -0.95803,1.72055 -1.2122,2.71768 -0.25417,1.01669 -0.29328,2.05293 -0.0978,3.10872 0.19552,1.03624 0.54745,1.97472 1.11445,2.85455 0.567,0.87983 1.29041,1.60324 2.11158,2.18979 0.84072,0.567 1.72055,0.95803 2.73724,1.2122 z"
         style=""
         id="path4745" />
      <path
         d="m 301.6529,498.1001 c -2.17023,0 -4.00809,0.78207 -5.51357,2.3071 -1.52504,1.52503 -2.30711,3.36289 -2.30711,5.51358 0,2.17023 0.78207,3.98854 2.30711,5.51357 1.52503,1.52504 3.34334,2.30711 5.51357,2.30711 2.17024,0 3.98855,-0.78207 5.51358,-2.30711 1.54459,-1.50548 2.32665,-3.34334 2.32665,-5.51357 0,-2.15069 -0.78206,-3.98855 -2.32665,-5.51358 -1.52503,-1.52503 -3.34334,-2.3071 -5.51358,-2.3071 z m 0,2.61993 c 1.42728,0 2.65903,0.50834 3.67572,1.52503 1.01669,1.01669 1.52503,2.24844 1.52503,3.67572 0,1.42727 -0.48879,2.65903 -1.52503,3.69527 -1.01669,1.01669 -2.24844,1.50548 -3.67572,1.50548 -1.42727,0 -2.67858,-0.48879 -3.69527,-1.50548 -1.01669,-1.01669 -1.50548,-2.268 -1.50548,-3.69527 0,-1.42728 0.48879,-2.65903 1.50548,-3.67572 1.03624,-1.03624 2.268,-1.52503 3.69527,-1.52503 z"
         style=""
         id="path4747" />
      <path
         d="m 317.2583,513.50683 c 0.99714,0.25418 2.05293,0.29328 3.10872,0.0978 1.05579,-0.19551 2.01382,-0.54744 2.8741,-1.11444 l -2.3462,-1.68145 c -0.70387,0.37148 -2.11159,0.39103 -3.05007,0.17597 -0.66476,-0.15642 -1.27086,-0.43014 -1.81831,-0.84073 -0.54744,-0.39103 -0.99713,-0.84072 -1.38817,-1.40772 -0.39103,-0.58655 -0.62565,-1.23176 -0.76251,-1.93562 -0.13687,-0.70386 -0.0978,-1.38817 0.0587,-2.07248 0.15642,-0.66475 0.43014,-1.29041 0.82117,-1.8183 0.39104,-0.54745 0.84073,-0.99714 1.42728,-1.38818 0.567,-0.37148 1.23175,-0.6061 1.93561,-0.74296 1.38818,-0.25417 2.67859,0.0391 3.89079,0.86027 l 1.50548,-2.13113 c -0.84072,-0.58655 -1.75965,-0.97759 -2.75679,-1.23176 -0.99713,-0.25417 -2.03337,-0.27372 -3.08916,-0.0782 -1.0558,0.19551 -2.01383,0.567 -2.8741,1.13399 -0.87983,0.567 -1.60324,1.25131 -2.18979,2.09204 -0.567,0.82117 -0.95804,1.72055 -1.21221,2.71768 -0.25417,1.01669 -0.29327,2.05293 -0.0978,3.10872 0.19552,1.03624 0.54745,1.97472 1.11445,2.85455 0.567,0.87983 1.29041,1.60324 2.11158,2.18979 0.84073,0.567 1.72055,0.95803 2.73724,1.2122 z"
         style=""
         id="path4749" />
      <path
         d="m 330.03826,508.5407 2.3071,-4.59465 2.28754,4.59465 2.93276,0 -5.2203,-10.4406 -7.82068,15.64136 2.89365,0 1.32951,-2.61993 1.29042,-2.58083 z m 8.81781,2.60038 -2.89365,0 1.29041,2.60038 2.9132,0 -1.30996,-2.60038 z"
         style=""
         id="path4751" />
      <path
         d="m 345.57551,511.12153 -2.60037,2.61993 10.42105,0 0,-2.61993 -7.82068,0 z m -2.60037,-13.02143 0,0.43013 0,11.67237 2.60037,-2.61993 0,-9.05244 0,-0.43013 -2.60037,0 z"
         style=""
         id="path4753" />
      <path
         d="m 360.87138,513.50683 c 0.99714,0.25418 2.05293,0.29328 3.10872,0.0978 1.0558,-0.19551 2.01383,-0.54744 2.8741,-1.11444 l -2.3462,-1.68145 c -0.70386,0.37148 -2.11158,0.39103 -3.05006,0.17597 -0.66476,-0.15642 -1.27086,-0.43014 -1.81831,-0.84073 -0.54745,-0.39103 -0.99714,-0.84072 -1.38817,-1.40772 -0.39104,-0.58655 -0.62566,-1.23176 -0.76252,-1.93562 -0.13686,-0.70386 -0.0978,-1.38817 0.0587,-2.07248 0.15641,-0.66475 0.43013,-1.29041 0.82117,-1.8183 0.39103,-0.54745 0.84072,-0.99714 1.42727,-1.38818 0.567,-0.37148 1.23176,-0.6061 1.93562,-0.74296 1.38817,-0.25417 2.67858,0.0391 3.89079,0.86027 l 1.50548,-2.13113 c -0.84073,-0.58655 -1.75965,-0.97759 -2.75679,-1.23176 -0.99714,-0.25417 -2.03338,-0.27372 -3.08917,-0.0782 -1.05579,0.19551 -2.01382,0.567 -2.8741,1.13399 -0.87983,0.567 -1.60324,1.25131 -2.18979,2.09204 -0.567,0.82117 -0.95803,1.72055 -1.2122,2.71768 -0.25418,1.01669 -0.29328,2.05293 -0.0978,3.10872 0.19551,1.03624 0.54744,1.97472 1.11444,2.85455 0.567,0.87983 1.29042,1.60324 2.11159,2.18979 0.84072,0.567 1.72055,0.95803 2.73723,1.2122 z"
         style=""
         id="path4755" />
    </g>
    <g
       id="g4163"
       transform="translate(30.610061,-39.893829)"
       style="fill:#ffffff;fill-opacity:1">
      <path
         style="color:#000000;clip-rule:nonzero;display:inline;overflow:visible;visibility:visible;opacity:1;isolation:auto;mix-blend-mode:normal;color-interpolation:sRGB;color-interpolation-filters:linearRGB;solid-color:#000000;solid-opacity:1;fill:#ffffff;fill-opacity:1;fill-rule:nonzero;stroke:none;stroke-width:1;stroke-linecap:square;stroke-linejoin:round;stroke-miterlimit:4;stroke-dasharray:none;stroke-dashoffset:0;stroke-opacity:1;color-rendering:auto;image-rendering:auto;shape-rendering:auto;text-rendering:auto;enable-background:accumulate"
         d="m 46.84375,14.449219 c -1.048339,0 -2.069543,0.105796 -3.056641,0.30664 -0.987098,0.200844 -1.939789,0.497162 -2.845703,0.878907 -0.905914,0.381744 -1.765526,0.849876 -2.570312,1.392578 -0.804787,0.542702 -1.554566,1.160034 -2.238282,1.84375 -0.683715,0.683716 -1.301048,1.433494 -1.84375,2.238281 -0.542701,0.804787 -1.010833,1.664399 -1.392578,2.570313 -0.381744,0.905913 -0.678062,1.858605 -0.878906,2.845703 -0.200844,0.987098 -0.30664,2.008302 -0.30664,3.05664 0,1.048339 0.105796,2.071496 0.30664,3.058594 0.200844,0.987098 0.497162,1.937836 0.878906,2.84375 0.381745,0.905914 0.849877,1.767478 1.392578,2.572266 0.542702,0.804787 1.160035,1.554564 1.84375,2.238281 0.683716,0.683716 1.433495,1.301047 2.238282,1.84375 0.804786,0.542702 1.664398,1.010833 2.570312,1.392578 0.905914,0.381745 1.858605,0.678062 2.845703,0.878906 0.987098,0.200844 2.008302,0.304688 3.056641,0.304688 1.048339,0 2.071496,-0.103844 3.058594,-0.304688 0.987098,-0.200844 1.939789,-0.497161 2.845703,-0.878906 0.905914,-0.381745 1.765526,-0.849876 2.570312,-1.392578 0.804787,-0.542703 1.554566,-1.160034 2.238282,-1.84375 0.683716,-0.683717 1.301048,-1.433494 1.84375,-2.238281 0.542702,-0.804788 1.010833,-1.666352 1.392578,-2.572266 0.381744,-0.905914 0.678062,-1.856652 0.878906,-2.84375 0.200844,-0.987098 0.304687,-2.010255 0.304687,-3.058594 0,-1.048338 -0.103843,-2.069542 -0.304687,-3.05664 -0.200844,-0.987098 -0.497162,-1.93979 -0.878906,-2.845703 -0.381745,-0.905914 -0.849876,-1.765526 -1.392578,-2.570313 -0.542702,-0.804787 -1.160034,-1.554565 -1.84375,-2.238281 -0.683716,-0.683716 -1.433495,-1.301048 -2.238282,-1.84375 -0.804786,-0.542702 -1.664398,-1.010834 -2.570312,-1.392578 -0.905914,-0.381745 -1.858605,-0.678063 -2.845703,-0.878907 -0.987098,-0.200844 -2.010255,-0.30664 -3.058594,-0.30664 z"
         id="path4165"
         transform="translate(246.83107,478.3255)"
         inkscape:connector-curvature="0" />
      <path
         style="color:#000000;clip-rule:nonzero;display:inline;overflow:visible;visibility:visible;opacity:1;isolation:auto;mix-blend-mode:normal;color-interpolation:sRGB;color-interpolation-filters:linearRGB;solid-color:#000000;solid-opacity:1;fill:#ffffff;fill-opacity:1;fill-rule:nonzero;stroke:none;stroke-width:1;stroke-linecap:square;stroke-linejoin:round;stroke-miterlimit:4;stroke-dasharray:none;stroke-dashoffset:0;stroke-opacity:1;color-rendering:auto;image-rendering:auto;shape-rendering:auto;text-rendering:auto;enable-background:accumulate"
         d="m 44.34375,4.7070312 a 25,25 0 0 0 -22.5,24.8749998 25,25 0 0 0 2.226562,10.261719 l 4.341797,-2.507812 c -0.503213,-1.189907 -0.894442,-2.437476 -1.160156,-3.730469 -0.26715,-1.299982 -0.408203,-2.646328 -0.408203,-4.023438 0,-1.377108 0.141053,-2.721503 0.408203,-4.021484 0.26715,-1.299981 0.660815,-2.554292 1.167969,-3.75 0.507153,-1.195708 1.127645,-2.332195 1.847656,-3.396485 0.720011,-1.064288 1.53959,-2.057167 2.445313,-2.96289 0.905722,-0.905723 1.898602,-1.725301 2.96289,-2.445313 1.064289,-0.720011 2.200777,-1.340502 3.396485,-1.847656 1.195708,-0.507153 2.450018,-0.900819 3.75,-1.1679686 0.500222,-0.1027971 1.008777,-0.1814898 1.521484,-0.2460938 l 0,-5.0371094 z m 5,0.025391 0,5.0117187 c 0.513417,0.064621 1.022878,0.1432274 1.523438,0.2460938 1.299981,0.2671493 2.554292,0.6608153 3.75,1.1679683 1.195706,0.507154 2.332195,1.127645 3.396484,1.847656 1.064288,0.720012 2.057168,1.53959 2.96289,2.445313 0.905724,0.905723 1.725302,1.898602 2.445313,2.96289 0.720011,1.064289 1.340503,2.200777 1.847656,3.396485 0.507154,1.195708 0.900819,2.450019 1.167969,3.75 0.26715,1.299981 0.40625,2.644376 0.40625,4.021484 0,1.37711 -0.1391,2.723456 -0.40625,4.023438 -0.26576,1.293217 -0.65877,2.540376 -1.162109,3.730469 l 4.333984,2.501953 a 25,25 0 0 0 2.234375,-10.25586 25,25 0 0 0 -22.5,-24.8496088 z M 30.939453,41.650391 26.572266,44.171875 A 25,25 0 0 0 46.84375,54.582031 25,25 0 0 0 67.109375,44.167969 L 62.75,41.650391 c -0.550437,0.723588 -1.131745,1.422761 -1.773438,2.064453 -0.905722,0.905722 -1.898602,1.725301 -2.96289,2.445312 -1.064289,0.720011 -2.200777,1.340503 -3.396484,1.847656 -1.195708,0.507154 -2.450019,0.90082 -3.75,1.167969 -1.299982,0.26715 -2.646329,0.40625 -4.023438,0.40625 -1.377109,0 -2.721503,-0.1391 -4.021484,-0.40625 -1.299982,-0.267149 -2.554292,-0.660813 -3.75,-1.167969 -1.195708,-0.507153 -2.332196,-1.127645 -3.396485,-1.847656 -1.064288,-0.720011 -2.057168,-1.53959 -2.96289,-2.445312 -0.641692,-0.641692 -1.223,-1.340865 -1.773438,-2.064453 z"
         transform="translate(246.83107,478.3255)"
         id="path4167"
         inkscape:connector-curvature="0" />
    </g>
  </g>
</svg>
