<?xml version="1.0" standalone="no"?>
<!DOCTYPE svg PUBLIC "-//W3C//DTD SVG 1.1//EN" "http://www.w3.org/Graphics/SVG/1.1/DTD/svg11.dtd" >
<svg xmlns="http://www.w3.org/2000/svg">
<metadata>
<json>
<![CDATA[
{
	"fontFamily": "cocalc-icons",
	"majorVersion": 1,
	"minorVersion": 0,
	"designer": "Harald Schilly",
	"version": "Version 1.0",
	"fontId": "cocalc-icons",
	"psName": "cocalc-icons",
	"subFamily": "Regular",
	"fullName": "cocalc-icons",
	"description": "Font generated by IcoMoon."
}
]]>
</json>
</metadata>
<defs>
<font id="cocalc-icons" horiz-adv-x="1024">
<font-face units-per-em="1024" ascent="960" descent="-64" />
<missing-glyph horiz-adv-x="1024" />
<glyph unicode="&#x20;" horiz-adv-x="512" d="" />
<glyph unicode="&#xe900;" glyph-name="markdown" data-tags="markdown" horiz-adv-x="878" d="M104.931 116.041v382.801h107.122l107.122-140.736 107.122 140.736h107.122v-382.801h-107.122v219.548l-107.122-140.736-107.122 140.736v-219.548zM664.64 67.852l-131.22 209.157h87.48v221.833h87.48v-221.833h87.48zM838.857 742.857c10.667-10.667 19.81-25.143 27.429-43.429s11.429-35.048 11.429-50.286v-658.286c0-15.238-5.333-28.19-16-38.857s-23.619-16-38.857-16h-768c-15.238 0-28.19 5.333-38.857 16s-16 23.619-16 38.857v914.286c0 15.238 5.333 28.19 16 38.857s23.619 16 38.857 16h512c15.238 0 32-3.81 50.286-11.429s32.762-16.762 43.429-27.429zM585.143 882.286v-214.857h214.857c-3.81 11.048-8 18.857-12.571 23.429l-178.857 178.857c-4.571 4.571-12.381 8.762-23.429 12.571zM804.571 9.143v585.143h-237.714c-15.238 0-28.19 5.333-38.857 16s-16 23.619-16 38.857v237.714h-438.857v-877.714z" />
<glyph unicode="&#xe901;" glyph-name="cocalc" data-tags="cocalc" horiz-adv-x="896" d="M446.877 650.852c-18.41 0-36.345-1.859-53.678-5.385-17.336-3.528-34.067-8.731-49.976-15.435s-31.005-14.925-45.139-24.455c-14.133-9.532-27.3-20.373-39.307-32.379-12.007-12.009-22.849-25.175-32.378-39.309-9.532-14.133-17.752-29.228-24.457-45.138s-11.908-32.641-15.434-49.976c-3.528-17.335-5.385-35.269-5.385-53.68s1.857-36.378 5.385-53.714c3.527-17.334 8.73-34.031 15.434-49.94s14.925-31.039 24.457-45.173c9.53-14.133 20.371-27.3 32.378-39.307s25.175-22.849 39.307-32.379c14.134-9.53 29.229-17.751 45.139-24.455 15.908-6.704 32.64-11.908 49.976-15.435 17.334-3.527 35.268-5.352 53.678-5.352s36.379 1.825 53.713 5.352c17.336 3.528 34.066 8.731 49.976 15.435s31.005 14.925 45.139 24.455c14.133 9.531 27.3 20.372 39.307 32.379s22.849 25.175 32.378 39.307c9.531 14.134 17.752 29.264 24.457 45.173s11.908 32.606 15.434 49.94c3.528 17.336 5.351 35.304 5.351 53.714s-1.823 36.345-5.351 53.68c-3.527 17.335-8.73 34.066-15.434 49.976s-14.926 31.005-24.457 45.138c-9.53 14.134-20.371 27.3-32.378 39.309-12.007 12.006-25.175 22.847-39.307 32.379-14.134 9.53-29.229 17.75-45.139 24.455s-32.64 11.908-49.976 15.435c-17.334 3.527-35.302 5.385-53.713 5.385zM403.2 829.76c-222.566-22.369-403.2-222.067-403.2-445.756v-0.006c0.111-53.119 17.986-135.502 39.9-183.891l77.805 44.941c-9.018 21.323-16.028 43.679-20.79 66.85-4.787 23.295-7.316 47.423-7.316 72.1s2.529 48.77 7.316 72.066 11.841 45.772 20.929 67.2c9.088 21.426 20.208 41.793 33.11 60.865 12.902 19.073 27.59 36.865 43.82 53.096 16.231 16.231 34.023 30.917 53.095 43.82 19.073 12.902 39.438 24.022 60.866 33.11 21.426 9.088 43.904 16.142 67.2 20.929 8.964 1.843 18.077 3.253 27.265 4.41v90.266zM492.8 829.307v-89.81c9.201-1.157 18.33-2.566 27.3-4.41 23.295-4.787 45.774-11.842 67.2-20.929 21.428-9.089 41.793-20.208 60.866-33.11s36.864-27.59 53.095-43.82c16.231-16.231 30.917-34.024 43.82-53.095 12.902-19.073 24.023-39.438 33.11-60.867 9.088-21.426 16.142-43.904 20.929-67.2 4.788-23.295 7.28-47.387 7.28-72.065s-2.492-48.805-7.28-72.1c-4.763-23.174-11.804-45.523-20.825-66.85l77.666-44.835c21.943 48.352 39.88 130.688 40.040 183.786-0.224 223.462-180.858 422.96-403.2 445.306zM162.995 167.736l-78.259-45.187c73.897-102.825 236.64-186.4 363.265-186.549 126.6 0.194 289.296 83.799 363.16 186.62l-78.12 45.117c-9.864-12.968-20.281-25.497-31.78-36.996-16.231-16.231-34.023-30.917-53.095-43.821-19.073-12.901-39.438-24.022-60.866-33.109-21.426-9.088-43.905-16.143-67.2-20.93s-47.422-7.28-72.1-7.28c-24.677 0-48.768 2.493-72.065 7.28s-45.774 11.842-67.2 20.93c-21.428 9.088-41.793 20.208-60.866 33.109-19.072 12.904-36.864 27.59-53.095 43.821-11.499 11.499-21.916 24.028-31.78 36.996z" />
<glyph unicode="&#xe902;" glyph-name="sagemath-file" data-tags="sagemath-file" horiz-adv-x="878" d="M54.857 960c-15.238 0-28.188-5.336-38.854-16.003s-16.003-23.616-16.003-38.854v-914.289c0-15.238 5.336-28.188 16.003-38.854s23.616-16.003 38.854-16.003h768c15.238 0 28.188 5.336 38.854 16.003s16.003 23.616 16.003 38.854v658.286c0 15.238-3.807 32.003-11.426 50.289s-16.762 32.765-27.429 43.431l-178.286 178.286c-10.667 10.667-25.146 19.81-43.431 27.429s-35.050 11.426-50.289 11.426h-511.997zM73.14 886.86h438.857v-237.72c0-15.238 5.336-28.188 16.003-38.854s23.616-16.003 38.854-16.003h237.72v-214.131l-138.334 165.489c0.117 0.824 0.291 1.503 0.291 2.503 0 15.174-12.735 27.489-28.251 27.489-7.782 0-14.606-3.432-19.749-8.451l-227.323 7.543c-5.564 11.458-17.192 19.56-31.003 19.56-19.094 0-34.714-15.136-34.714-33.797 0-5.854 1.88-11.196 4.56-15.994l-69.969-79.26c-2.638 0.582-5.254 1.243-8.203 1.243-22.7 0-41.177-18.144-41.177-40.294 0-0.239 0.026-0.391 0.034-0.617l-60.343-38.777c-5.022 2.793-10.652 4.723-16.86 4.723-19.13 0-34.714-15.324-34.714-33.986 0-10.675 5.263-20.025 13.183-26.22l-11.554-213.54c-7.558-4.953-12.677-13.199-12.677-22.714 0-15.174 12.734-27.497 28.251-27.497 0.303 0 0.854 0.047 1.226 0.043l58.423-58.449h-102.531v877.714zM585.146 882.283c11.048-3.81 18.854-7.994 23.426-12.566l178.86-178.86c4.571-4.571 8.756-12.378 12.566-23.426h-214.851v214.851zM390.849 545.246l221.631-7.311c1.587-3.871 3.955-7.24 7.071-10.020l-4.294-19.911c-10.229-3.126-18.639-9.941-23.709-18.96l-245.503-27.883 14.794 65.52c13.171 0.24 24.348 7.756 30.009 18.566zM648.634 520.277l139.809-167.16c-1.099-2.992-1.834-6.122-1.834-9.403 0-6.673 2.808-12.543 6.883-17.331l-8.203-22.611-120.214 150.3c2.139 4.884 3.514 10.122 3.514 15.72 0 15.757-9.502 29.124-23.091 35.709l3.137 14.777zM335.889 506.109l-10.68-47.28-34.714-3.994 45.394 51.274zM589.731 439.131l-71.289-271.886c-0.158-0.040-0.313-0.086-0.471-0.129l-182.22 201.223 76.869 8.323c5.114-7.005 13.316-11.709 22.766-11.709 15.54 0 28.251 12.409 28.251 27.583 0 0.756-0.199 1.4-0.266 2.126l120.703 43.8 5.657 0.669zM501.523 429.111l-46.946-17.091c-5.090 4.751-11.632 8.109-19.191 8.109-14.38 0-25.878-10.785-27.583-24.394l-78.429-8.571 5.151 22.911 166.997 19.037zM638.040 423.849l131.211-163.989-26.811-73.74-169.097-38.383c-1.757 2.518-3.701 4.885-5.914 7.046l70.611 269.066zM313.757 407.751l-2.786-12.189-9.729 10.766 12.514 1.423zM222.78 398.246c0.788-0.793 1.576-1.574 2.434-2.306l-4.029-20.563-40.971-4.5 42.566 27.369zM253.603 384.411l4.534-4.98-5.631-0.609 1.097 5.589zM274.2 361.697l23.357-25.783-10.286-45.591c-13.157-2.336-23.297-13.215-23.297-26.691 0-6.87 3.047-12.834 7.337-17.683l-63.591-95.177 40.86 208.106 25.62 2.82zM217.26 355.423l-48.077-245.040c-7.075-2.158-12.817-6.662-17.134-12.326l-8.46 1.586c-1.402 7.971-6.218 14.628-13.037 18.677l11.203 206.794c12.508 3.076 22.074 12.568 25.054 24.84l50.451 5.469zM313.791 317.889l167.64-185.203-279.214-29.186c-0.53 0.441-1.087 0.807-1.637 1.209l87.943 131.786c1.205-0.147 2.391-0.446 3.617-0.446 15.54 0 28.251 12.409 28.251 27.583 0 9.87-5.502 18.341-13.543 23.203l6.943 31.054zM804.574 299.177v-19.491l-4.869 6.094 4.869 13.397zM783.669 241.963l20.906-26.151v-15.506l-39.343-8.949 18.437 50.606zM804.574 159.72v-24.677l-58.594-125.897h-9.043l1.26 80.974c10.466 3.519 18.214 12.823 18.214 24.214 0 8.795-4.607 16.451-11.494 21.189l4.26 11.623 55.397 12.574zM726.352 141.986l-0.883-2.391c-12.643-2.042-22.569-12.345-22.569-25.26 0-10.386 6.484-19.078 15.514-23.271l-1.226-81.917h-201.034l20.743 62.717c21.548 1.891 39.117 16.95 44.083 37.037l145.371 33.086zM490.406 94.080c2.336-3.562 5.107-6.788 8.289-9.643l-24.934-75.291h-196.929l-61.080 56.1 274.654 28.834zM804.574 39.651v-30.506h-14.194l14.194 30.506zM212.049 14.623l5.966-5.477h-0.497l-5.469 5.477z" />
<glyph unicode="&#xe903;" glyph-name="ipynb" data-tags="ipynb" horiz-adv-x="885" d="M777.321 905.353c0-30.181-24.466-54.647-54.647-54.647s-54.647 24.466-54.647 54.647c0 30.181 24.466 54.647 54.647 54.647s54.647-24.466 54.647-54.647zM442.286 175.529c-167.262 0-313.073 60.010-388.916 148.876 57.456-159.090 209.907-272.982 388.916-272.982s331.459 113.891 388.916 272.982c-75.842-88.866-221.654-148.876-388.916-148.876zM442.286 753.668c167.262 0 313.073-60.010 388.916-148.876-57.456 159.090-209.907 272.982-388.916 272.982s-331.459-113.891-388.66-272.982c75.842 88.61 221.399 148.876 388.66 148.876zM228.549 1.883c0-36.386-29.497-65.883-65.883-65.883s-65.883 29.497-65.883 65.883c0 36.386 29.497 65.883 65.883 65.883s65.883-29.497 65.883-65.883zM137.895 830.276c0-22.142-17.95-40.092-40.092-40.092s-40.092 17.95-40.092 40.092c0 22.142 17.95 40.092 40.092 40.092s40.092-17.95 40.092-40.092zM27.701 537.71h28.678v-174.564h-28.678zM143.972 389.331v-92.581h-28.834v240.96h28.834v-26.496q9.040 15.586 22.756 23.067 13.872 7.637 33.042 7.637 31.796 0 51.59-25.249 19.95-25.249 19.95-66.397t-19.95-66.397q-19.794-25.249-51.59-25.249-19.171 0-33.042 7.481-13.716 7.637-22.756 23.223zM241.541 450.272q0 31.64-13.092 49.564-12.936 18.080-35.692 18.080t-35.848-18.080q-12.936-17.924-12.936-49.564t12.936-49.719q13.092-17.924 35.848-17.924t35.692 17.924q13.092 18.080 13.092 49.719zM391.479 346.937q-12.157-31.172-23.691-40.68t-30.86-9.507h-22.911v24.003h16.833q11.845 0 18.392 5.611t14.495 26.496l5.143 13.092-70.605 171.758h30.393l54.551-136.534 54.551 136.534h30.393l-76.683-190.773zM652.856 468.508v-105.362h-28.678v104.426q0 24.782-9.663 37.095t-28.99 12.313q-23.223 0-36.627-14.807t-13.404-40.368v-98.66h-28.834v174.564h28.834v-27.12q10.287 15.742 24.158 23.535 14.027 7.793 32.263 7.793 30.081 0 45.511-18.703 15.43-18.547 15.43-54.707zM835.681 450.272q0 31.64-13.092 49.564-12.936 18.080-35.692 18.080t-35.848-18.080q-12.936-17.924-12.936-49.564t12.936-49.719q13.092-17.924 35.848-17.924t35.692 17.924q13.092 18.080 13.092 49.719zM738.112 511.214q9.040 15.586 22.756 23.067 13.872 7.637 33.042 7.637 31.796 0 51.59-25.249 19.95-25.249 19.95-66.397t-19.95-66.397q-19.794-25.249-51.59-25.249-19.171 0-33.042 7.481-13.716 7.637-22.756 23.223v-26.185h-28.834v242.519h28.834v-94.451z" />
<glyph unicode="&#xe904;" glyph-name="jupyter" data-tags="jupyter" horiz-adv-x="885" d="M36.006 416.591c0-32.431-2.554-43.156-9.193-51.072-5.873-6.384-15.577-9.448-26.813-10.47l2.554-19.407c13.279 0 31.154 4.597 42.135 15.322 12.002 12.257 16.343 29.367 16.343 55.924v123.084h-24.77v-113.381zM220.377 431.401c0-14.045 0.255-26.302 1.021-37.027h-21.961l-1.277 22.216h-0.511c-6.384-10.981-20.684-25.281-44.944-25.281-21.195 0-46.731 11.747-46.731 59.499v79.417h24.77v-75.332c0-25.792 7.916-43.156 30.388-43.156 16.599 0 28.090 11.491 32.431 22.472 1.277 3.575 2.298 8.172 2.298 12.513v83.248h24.77v-98.57zM266.853 485.794c0 17.365-0.511 31.409-1.021 44.178h22.216l1.021-23.238h0.511c10.214 16.599 26.047 26.302 48.263 26.302 32.686 0 57.456-27.834 57.456-68.948 0-48.774-29.622-72.778-61.798-72.778-17.875 0-33.708 7.916-41.879 21.195h-0.511v-73.8h-24.515v147.088zM291.112 449.532c0-3.575 0.511-6.895 1.021-10.214 4.597-17.109 19.407-28.856 37.027-28.856 26.047 0 41.113 21.195 41.113 52.349 0 27.324-14.3 50.562-40.347 50.562-16.854 0-32.431-12.002-37.283-30.643-0.766-3.064-1.788-6.639-1.788-10.214v-22.983zM438.967 529.971l29.622-80.184c3.064-8.938 6.384-19.663 8.682-27.834h0.511c2.554 8.172 5.363 18.386 8.682 28.345l26.813 79.673h26.047l-37.027-96.782c-17.62-46.476-29.622-70.48-46.476-85.035-12.002-10.725-24.004-14.811-30.388-16.088l-6.129 20.684c6.129 2.043 14.3 5.873 21.706 12.002 6.639 5.363 15.066 14.811 20.684 27.579 1.021 2.554 2.043 4.597 2.043 5.873s-0.511 3.32-1.788 6.384l-50.306 125.127h27.324zM604.441 569.041v-39.070h35.24v-18.897h-35.24v-73.289c0-16.854 4.852-26.302 18.386-26.302 6.384 0 11.236 0.766 14.3 1.788l1.021-18.386c-4.852-2.043-12.257-3.32-21.961-3.32-11.491 0-20.684 3.575-26.558 10.47-6.895 7.405-9.448 19.407-9.448 35.24v74.055h-20.94v18.897h20.94v32.431l24.259 6.384zM685.391 457.704c0.511-33.452 21.961-46.987 46.476-46.987 17.62 0 28.345 3.064 37.538 6.895l4.086-17.62c-8.682-3.83-23.493-8.427-45.199-8.427-41.879 0-66.649 27.579-66.649 68.437s24.004 73.289 63.585 73.289c44.178 0 56.18-39.070 56.18-63.84 0-5.107-0.511-8.938-0.766-11.491h-95.25zM757.658 475.324c0.255 15.577-6.384 40.092-34.218 40.092-25.025 0-36.006-22.983-37.794-40.092h72.012zM817.668 487.836c0 16.088-0.255 29.622-1.021 42.39h21.706l0.766-26.558h1.021c6.129 18.131 20.94 29.622 37.538 29.622 2.809 0 4.852-0.255 6.895-0.766v-23.238c-2.554 0.511-5.107 0.766-8.427 0.766-17.365 0-29.622-13.279-33.197-31.665-0.511-3.32-1.021-7.405-1.021-11.491v-72.267h-24.259v93.207zM777.321 905.353c0-30.181-24.466-54.647-54.647-54.647s-54.647 24.466-54.647 54.647c0 30.181 24.466 54.647 54.647 54.647s54.647-24.466 54.647-54.647zM442.286 175.529c-167.262 0-313.073 60.010-388.916 148.876 57.456-159.090 209.907-272.982 388.916-272.982s331.459 113.891 388.916 272.982c-75.842-88.866-221.654-148.876-388.916-148.876zM442.286 753.668c167.262 0 313.073-60.010 388.916-148.876-57.456 159.090-209.907 272.982-388.916 272.982s-331.459-113.891-388.66-272.982c75.842 88.61 221.399 148.876 388.66 148.876zM228.549 1.883c0-36.386-29.497-65.883-65.883-65.883s-65.883 29.497-65.883 65.883c0 36.386 29.497 65.883 65.883 65.883s65.883-29.497 65.883-65.883zM137.895 830.276c0-22.142-17.95-40.092-40.092-40.092s-40.092 17.95-40.092 40.092c0 22.142 17.95 40.092 40.092 40.092s40.092-17.95 40.092-40.092z" />
<glyph unicode="&#xe905;" glyph-name="python" data-tags="python" d="M508.309 960c-259.955 0-243.722-112.917-243.722-112.917l0.29-116.981h248.069v-35.123h-346.6c0 0-166.345 18.896-166.345-243.832s145.19-253.411 145.19-253.411h86.65v121.916c0 0-4.671 145.428 142.871 145.428h246.040c0 0 138.234-2.238 138.234 133.817v224.964c0 0 20.988 136.139-250.677 136.139v0zM371.523 881.335c24.681 0 44.629-19.981 44.629-44.703s-19.948-44.703-44.629-44.703c-24.681 0-44.629 19.981-44.629 44.703s19.948 44.703 44.629 44.703v0zM515.691-60.342c259.955 0 243.722 112.917 243.722 112.917l-0.29 116.981h-248.069v35.123h346.6c0 0 166.345-18.896 166.345 243.832s-145.19 253.411-145.19 253.411h-86.65v-121.916c0 0 4.671-145.428-142.871-145.428h-246.040c0 0-138.234 2.238-138.234-133.817v-224.964c0 0-20.988-136.139 250.677-136.139v0zM652.477 18.323c-24.681 0-44.629 19.981-44.629 44.702s19.948 44.703 44.629 44.703c24.681 0 44.629-19.981 44.629-44.703s-19.948-44.702-44.629-44.702v0z" />
<glyph unicode="&#xe906;" glyph-name="r" data-tags="r" d="M512 880.5c-281.634 0-509.945-152.905-509.945-341.525 0-160.986 166.328-295.934 390.163-332.025v105.746c-113.617 40.706-189.765 115.389-189.765 200.798 0 128.948 173.535 233.481 387.602 233.481s372.044-71.518 372.044-233.481c0-76.475-35.214-132.766-94.895-170.898 2.298-1.981 4.599-4.117 6.887-6.547 8.55-9.082 13.784-18.447 15.809-22.423l1.622-2.735c81.077 60.471 130.423 140.413 130.423 228.083 0 188.62-228.309 341.525-509.945 341.525zM889.901 313.627l-0.53 0.892 1.525-2.928c0 0-0.365 0.801-0.994 2.036zM649.68 281.986c-7.722-0.527-15.545-0.94-23.453-1.254l0.014-74.671c21.222 3.253 41.94 7.394 62.061 12.359l-17.777 33.384c-0.131 0.225-4.248 7.288-9.76 15.58-3.565 5.364-8.266 11.14-11.086 14.602zM778.674 351.528c0 0 30.864-9.314 48.796-18.387 6.222-3.148 16.987-9.431 24.751-17.68 7.606-8.079 11.315-16.265 11.315-16.265l121.635-205.083-196.597-0.088-91.934 172.64c0 0-18.825 32.345-30.409 41.724-9.663 7.823-13.783 10.608-23.337 10.608-6.65 0-46.711 0-46.711 0l0.037-224.847-173.967-0.074v574.357h349.348c0 0 159.116-2.87 159.116-154.253s-152.044-162.652-152.044-162.652zM703.005 543.847l-105.318 0.068-0.052-97.662 105.37 0.034c0 0 48.796 0.151 48.796 49.68 0 50.524-48.796 47.88-48.796 47.88z" />
<glyph unicode="&#xe907;" glyph-name="file-o" data-tags="file-o" horiz-adv-x="878" d="M838.857 742.857c10.667-10.667 19.81-25.143 27.429-43.429s11.429-35.048 11.429-50.286v-658.286c0-15.238-5.333-28.19-16-38.857s-23.619-16-38.857-16h-768c-15.238 0-28.19 5.333-38.857 16s-16 23.619-16 38.857v914.286c0 15.238 5.333 28.19 16 38.857s23.619 16 38.857 16h512c15.238 0 32-3.81 50.286-11.429s32.762-16.762 43.429-27.429zM585.143 882.286v-214.857h214.857c-3.81 11.048-8 18.857-12.571 23.429l-178.857 178.857c-4.571 4.571-12.381 8.762-23.429 12.571zM804.571 9.143v585.143h-237.714c-15.238 0-28.19 5.333-38.857 16s-16 23.619-16 38.857v237.714h-438.857v-877.714z" />
<glyph unicode="&#xe908;" glyph-name="octave" data-tags="octave" d="M427.427 959.974c-95.204-1.112-182.987-35.829-247.864-106.331-38.053-41.353-64.739-91.281-80.534-146.362h169.97c1.815 0 3.615-0.073 5.415-0.141 12.371 27.43 28.688 52.666 49.095 74.843 96.138 104.475 254.414 110.881 394.373 29.61 8.594 12.824 20.915 22.968 35.371 28.847-100.45 77.584-212.605 118.389-316.593 119.533-3.086 0.034-6.163 0.036-9.235 0zM930.856 638.693c-6.080-8.577-13.863-15.84-22.832-21.364 64.785-113.379 83.34-241.53 51.383-346.069h16.577c16.11 0 31.353-4.044 44.803-11.134 13.811 120.194-17.335 256.036-89.931 378.566zM363.046 249.445c-25.476-21.815-58.391-35.11-94.047-35.11h-66.52c18.86-27.228 39.849-53.588 62.968-78.712 164.159-178.395 385.143-241.2 548.515-172.286-33.676 15.357-57.391 49.425-57.391 88.519v28.657c-119.403-24.996-263.007 25.704-372.516 144.709-7.285 7.916-14.284 15.997-21.011 24.223zM781.991 803.77c-19.126 0-34.848-15.782-34.848-34.908v-85.867c0-19.126 15.722-34.848 34.848-34.848h85.867c19.126 0 34.908 15.722 34.908 34.848v85.867c0 19.126-15.782 34.908-34.908 34.908zM66.712 628.694c-36.78 0-66.712-29.992-66.712-66.772v-202.285c0-36.781 29.932-66.713 66.712-66.713h202.285c36.78 0 66.772 29.932 66.772 66.713v202.285c0 36.78-29.992 66.772-66.772 66.772zM853.776 218.873c-24.635 0-44.813-20.178-44.813-44.813v-122.207c0-24.636 20.178-44.813 44.813-44.813h122.207c24.635 0 44.813 20.178 44.813 44.813v122.207c0 24.635-20.178 44.813-44.813 44.813z" />
<glyph unicode="&#xe909;" glyph-name="julia" data-tags="julia" horiz-adv-x="897" d="M204.044 34.504c-112.48 0-204.045 91.566-204.045 204.045s91.566 204.045 204.045 204.045c112.48 0 204.045-91.566 204.045-204.045s-91.566-204.045-204.045-204.045zM448.407 453.413c-112.48 0-204.045 91.566-204.045 204.045s91.566 204.045 204.045 204.045c112.48 0 204.045-91.566 204.045-204.045s-91.566-204.045-204.045-204.045zM692.771 34.504c-112.48 0-204.045 91.566-204.045 204.045s91.566 204.045 204.045 204.045c112.48 0 204.045-91.566 204.045-204.045s-91.566-204.045-204.045-204.045z" />
<glyph unicode="&#xe90a;" glyph-name="cocalc-ring" data-tags="cocalc-ring" d="M462.222 943.289c-247.296-24.854-448-246.741-448-495.283v-0.005c0.123-59.021 19.985-150.557 44.333-204.322l86.45 49.933c-10.020 23.693-17.809 48.532-23.1 74.278-5.319 25.883-8.128 52.692-8.128 80.111 0 27.42 2.809 54.188 8.128 80.072s13.158 50.858 23.256 74.667c10.098 23.807 22.453 46.437 36.789 67.628 14.336 21.192 30.656 40.96 48.689 58.994 18.034 18.034 37.804 34.353 58.994 48.689 21.192 14.336 43.819 26.69 67.628 36.789 23.807 10.098 48.782 17.937 74.667 23.256 9.96 2.048 20.086 3.614 30.294 4.9zM561.778 942.783v-99.789c10.223-1.286 20.366-2.851 30.333-4.9 25.883-5.319 50.86-13.159 74.667-23.256 23.808-10.099 46.436-22.453 67.628-36.789s40.96-30.656 58.994-48.689c18.034-18.034 34.353-37.805 48.689-58.994 14.336-21.192 26.691-43.818 36.789-67.628 10.098-23.807 17.937-48.782 23.256-74.667 5.32-25.883 8.089-52.653 8.089-80.072s-2.769-54.228-8.089-80.111c-5.292-25.749-13.115-50.581-23.139-74.278l86.294-49.817c24.381 53.724 44.312 145.208 44.489 204.206-0.249 248.292-200.953 469.954-448 494.783zM195.328 207.706l-86.956-50.206c82.107-114.25 262.934-207.111 403.628-207.278 140.667 0.215 321.44 93.111 403.511 207.356l-86.8 50.128c-10.96-14.409-22.534-28.329-35.311-41.106-18.034-18.034-37.804-34.352-58.994-48.689-21.192-14.335-43.819-26.691-67.628-36.789-23.807-10.098-48.783-17.937-74.667-23.256s-52.691-8.089-80.111-8.089c-27.419 0-54.188 2.77-80.072 8.089s-50.86 13.158-74.667 23.256c-23.808 10.098-46.436 22.454-67.628 36.789-21.191 14.337-40.96 30.655-58.994 48.689-12.777 12.777-24.351 26.697-35.311 41.106z" />
<glyph unicode="&#xe90b;" glyph-name="sagemath-bold" data-tags="sagemath-bold" d="M347.291 951.501c-24.341 0-44.251-19.303-44.251-43.092 0-7.463 2.394-14.271 5.811-20.388l-89.195-101.037c-3.363 0.742-6.699 1.588-10.458 1.588-28.937 0-52.486-23.13-52.486-51.367 0-0.305 0.034-0.498 0.045-0.787l-76.931-49.429c-6.401 3.561-13.577 6.017-21.491 6.017-24.386 0-44.251-19.536-44.251-43.325 0-13.608 6.71-25.529 16.807-33.426l-14.733-272.211c-9.635-6.314-16.158-16.831-16.158-28.961 0-19.343 16.234-35.051 36.015-35.051 0.386 0 1.093 0.063 1.567 0.058l203.872-203.996c0-0.015 0-0.026 0-0.044 0-19.343 16.205-35.167 36.015-35.167 5.853 0 11.219 1.68 16.105 4.115l106.606-55.796c-0.019-0.475-0.104-0.883-0.104-1.377 0-12.241 6.141-22.972 14.502-30.6s19.020-12.475 29.607-12.718c19.686-0.451 38.555 14.778 42.811 35.007l298.542 85.194c8.059-8.556 19.406-14.153 32.248-14.153 24.34 0 44.251 19.302 44.251 43.092 0 8.67-3.033 16.56-7.564 23.36l129.574 278.555c22.26 2.219 39.954 20.053 39.954 42.357 0 19.526-13.568 35.651-31.875 40.958l-39.738 129.502c6.084 6.299 10.384 14.378 10.384 23.702 0 19.343-16.205 35.167-36.015 35.167-1.244 0-2.149-0.242-3.245-0.379l-186.088 222.621c0.149 1.051 0.366 1.909 0.366 3.183 0 19.343-16.235 35.051-36.015 35.051-9.921 0-18.62-4.381-25.176-10.78l-289.777 9.615c-7.093 14.607-21.923 24.94-39.529 24.94zM386.357 888.982l282.534-9.316c2.023-4.935 5.039-9.225 9.011-12.769l-5.475-25.392c-13.040-3.985-23.757-12.671-30.219-24.168l-312.962-35.539 18.851 83.526c16.79 0.306 31.044 9.878 38.261 23.658zM714.977 857.159l178.218-213.094c-1.401-3.814-2.335-7.8-2.335-11.982 0-8.507 3.586-15.996 8.78-22.1l-10.466-28.823-153.236 191.599c2.727 6.226 4.476 12.902 4.476 20.038 0 20.086-12.113 37.132-29.436 45.525l3.998 18.836zM316.296 839.094l-13.614-60.268-44.258-5.092 57.872 65.359zM639.888 753.718l-90.873-346.595c-0.201-0.051-0.402-0.114-0.604-0.167l-232.293 256.514 97.997 10.613c6.52-8.93 16.972-14.932 29.018-14.932 19.81 0 36.015 15.824 36.015 35.167 0 0.964-0.251 1.785-0.336 2.71l153.863 55.839 7.213 0.852zM527.441 740.935l-59.841-21.786c-6.489 6.057-14.831 10.336-24.468 10.336-18.331 0-32.991-13.74-35.165-31.088l-99.974-10.926 6.564 29.202 212.883 24.263zM701.475 734.234l167.26-209.051-34.18-94.007-215.554-48.919c-2.24 3.21-4.72 6.226-7.542 8.981l90.016 342.997zM288.084 713.707l-3.551-15.53-12.405 13.716 15.956 1.814zM172.101 701.594c1.005-1.011 2.010-2.003 3.103-2.935l-5.132-26.222-52.232-5.733 54.261 34.89zM211.398 683.959l5.781-6.352-7.176-0.772 1.395 7.124zM237.656 655.005l29.779-32.865-13.114-58.119c-16.772-2.978-29.697-16.852-29.697-34.031 0-8.758 3.878-16.356 9.347-22.537l-81.064-121.33 52.091 265.284 32.658 3.598zM165.067 647l-61.288-312.367c-9.018-2.751-16.331-8.491-21.834-15.712l-10.787 2.025c-1.788 10.162-7.927 18.643-16.62 23.804l14.278 263.616c15.945 3.921 28.143 16.020 31.942 31.664l64.31 6.971zM288.121 599.159l213.704-236.097-355.93-37.199c-0.676 0.562-1.388 1.025-2.089 1.537l112.111 167.991c1.536-0.187 3.039-0.568 4.603-0.568 19.81 0 36.015 15.824 36.015 35.167 0 12.581-7.012 23.375-17.262 29.573l8.847 39.596zM918.58 588.568l21.924-71.565-32.949 41.22 11.025 30.345zM887.116 502.369l40.021-50.070-63.526-14.444 23.505 64.514zM930.128 401.245l-102.988-221.317 2.007 128.876c13.342 4.486 23.222 16.348 23.222 30.87 0 11.211-5.878 20.97-14.658 27.009l5.431 14.816 86.987 19.747zM814.048 374.921l-1.126-3.052c-16.117-2.602-28.764-15.732-28.764-32.195 0-13.239 8.256-24.321 19.768-29.668l-2.641-176.943c-7.445-3.023-13.691-7.817-18.418-14.044l-159.659 33.703c-2.719 16.72-16.947 29.821-34.822 29.821-17.495 0-31.65-12.498-34.829-28.735l-26.728-6.432 45.705 138.149c27.469 2.41 49.864 21.608 56.194 47.215l185.32 42.182zM513.268 313.844c2.978-4.541 6.507-8.649 10.563-12.288l-55.701-168.224-117.773-28.167-187.215 171.924 350.126 36.755zM158.428 212.56l111.559-102.428c-2.465-0.534-4.753-1.328-6.99-2.316l-104.569 104.744zM557.869 129.428c6.327-10.183 17.518-17.103 30.517-17.103 12.596 0 23.422 6.569 29.839 16.192l119.317-25.021-248.742-71.085 28.876 87.401 40.193 9.615zM459.089 105.9l-25.363-76.387c-0.265-0.066-0.529-0.133-0.791-0.204l-60.729 55.825 86.882 20.767z" />
<glyph unicode="&#xe90c;" glyph-name="sagemath" data-tags="sagemath" d="M345.319 951.546c-21.343 0-38.651-16.782-38.651-37.623 0-8.004 2.652-15.476 7.005-21.583l-95.056-107.679c-4.139 1.164-8.522 2.005-13.045 2.005-25.956 0-46.985-20.652-46.985-45.996 0-1.333 0.128-2.588 0.242-3.892l-83.703-53.78c-6.301 4.356-13.916 6.958-22.224 6.958-21.343 0-38.651-17.018-38.651-37.859 0-13.058 6.828-24.479 17.151-31.254l-15.219-281.168c-9.625-4.954-16.185-14.82-16.185-26.183 0-16.337 13.586-29.485 30.317-29.485 1.392 0 2.764-0.059 4.107 0.118l210.042-210.168c-0.064-0.786-0.121-1.556-0.121-2.359 0-16.337 13.586-29.603 30.317-29.603 6.134 0 11.777 1.775 16.547 4.836l114.019-59.677c-0.215-1.609-0.362-3.169-0.362-4.836 0-20.841 21.053-37.455 38.651-37.859s36.626 15.095 38.409 34.32l308.722 88.101c7.051-9.153 18.167-15.096 30.8-15.096 21.343 0 38.651 16.782 38.651 37.623 0 8.845-3.115 17.036-8.334 23.47l133.586 287.183c21.343 0 38.651 16.9 38.651 37.741 0 18.342-13.399 33.631-31.162 37.033l-41.912 136.574c6.733 5.425 11.112 13.691 11.112 22.88 0 16.336-13.586 29.603-30.317 29.603-2.018 0-4.011-0.34-5.918-0.708l-192.045 229.746c0.287 1.635 0.604 3.356 0.604 5.071 0 16.336-13.586 29.485-30.317 29.485-9.518 0-18.12-4.265-23.674-10.968l-298.697 9.907c-5.316 14.637-19.544 25.121-36.356 25.121zM381.433 900.36l293.262-9.671c1.79-6.955 6.007-12.965 11.837-16.983l-6.885-31.962c-14.371-3.185-26.223-12.808-32.249-25.593l-328.168-37.269 21.983 97.418c1.367-0.143 2.701-0.118 4.107-0.118 16.464 0 30.547 10.015 36.114 24.178zM717.452 871.465l187.214-223.849c-2.087-4.015-3.14-8.516-3.14-13.327 0-8.518 3.641-16.186 9.542-21.583l-15.339-42.222-164.024 205.097c3.475 6.403 5.314 13.595 5.314 21.347 0 19.724-12.672 36.559-30.558 43.048l6.281 29.603c1.664 0.486 3.18 1.143 4.711 1.887zM325.148 865.568l-19.929-88.219-63.532-7.312c-0.163 0.191-0.438 0.402-0.604 0.59zM649.572 764.376l-95.056-362.546c-2.627-0.582-5.251-1.209-7.73-2.123l-245.432 271.025 114.382 12.384c5.13-9.221 15.070-15.45 26.572-15.45 16.73 0 30.317 13.266 30.317 29.603 0 2.308-0.333 4.566-0.845 6.723l160.883 58.38zM577.223 756.12l-111.121-40.453c-5.55 6.807-14.191 11.204-23.794 11.204-16.731 0-30.317-13.266-30.317-29.603 0-0.458 0.1-0.844 0.121-1.297l-114.382-12.502 9.421 41.868zM700.905 750.931l179.001-223.731-36.839-101.31-225.019-51.068c-3.233 5.426-7.263 10.286-12.078 14.389zM293.262 723.805l-8.092-35.382-28.263 31.254zM168.734 712.247c2.608-3.211 5.674-6.179 9.059-8.61l-6.643-33.967-80.683-8.845c-0.077 0.318-0.157 0.628-0.242 0.944zM203.157 694.91c0.801-0.040 1.605-0.118 2.416-0.118 1.009 0 2.026 0.057 3.020 0.118l17.514-19.224-27.297-2.948zM236.856 663.774l34.302-37.859-14.736-65.338c-16.232-0.553-29.109-13.618-29.109-29.603 0-9.082 4.152-17.218 10.75-22.644l-101.337-151.67 59.425 302.633zM168.493 656.226l-64.257-327.518c-10.808-2.189-19.922-8.816-25.364-17.809l-18.238 3.42c-0.303 11.679-7.576 21.527-17.876 26.065l14.856 274.327c17.602 2.133 31.533 15.911 33.578 33.141zM282.029 613.768l228.884-252.862c-0.365-1.338-0.7-2.635-0.966-4.010l-370.080-38.684c-2.532 2.531-5.523 4.61-8.696 6.369l118.609 177.735c2.469-0.635 5.057-0.944 7.73-0.944 16.73 0 30.317 13.266 30.317 29.603 0 12.167-7.486 22.584-18.238 27.126zM922.663 605.984c0.841-0.256 1.665-0.406 2.536-0.59l35.631-116.288-55.44 69.348zM889.569 515.288l53.265-66.636-84.548-19.224zM945.854 409.261l-121.508-261.118 2.536 163.11c13.287 2.292 23.432 13.494 23.432 27.126 0 11.012-6.529 20.546-16.064 25.003l8.213 22.408zM827.244 382.37l-6.039-16.394c-15.302-0.395-27.659-12.561-27.659-27.598 0-12.42 8.511-22.914 20.050-26.418l-2.778-186.226c-9.6-2.706-17.634-8.979-22.586-17.219l-168.734 35.618c-0.174 16.191-13.574 29.249-30.196 29.249-16.227 0-29.533-12.415-30.317-28.070l-41.187-9.907 50.85 153.675c28.408 0.551 51.852 20.724 56.527 47.294zM516.228 318.565c3.739-6.616 8.729-12.416 14.736-17.101l-58.58-176.909-125.735-30.075-198.93 182.688c0.401 0.925 0.761 1.869 1.087 2.831zM69.33 286.25l4.59-0.826c0.288-1.658 0.706-3.259 1.208-4.836zM99.284 256.175c4.013-1.378 8.308-2.123 12.803-2.123 0.89 0 1.783 0.060 2.657 0.118l167.768-154.029c-2.499 0.652-5.141 1.061-7.851 1.061-5.908 0-11.404-1.744-16.064-4.6zM561.28 132.457c4.547-10.73 15.39-18.163 28.022-18.163 12.164 0 22.598 7 27.418 17.101l148.443-31.136-286.015-81.732 33.819 102.371zM467.673 110.166l-30.075-90.577c-2.563-0.378-4.996-1.042-7.368-1.887l-72.108 66.282zM311.983 72.897l19.325-17.691-26.572 13.917c0.054 0.656 0.111 1.338 0.121 2.005l7.126 1.769z" />
<glyph unicode="&#xe90d;" glyph-name="image" data-tags="image, picture, photo, graphic" d="M959.884 832c0.040-0.034 0.082-0.076 0.116-0.116v-767.77c-0.034-0.040-0.076-0.082-0.116-0.116h-895.77c-0.040 0.034-0.082 0.076-0.114 0.116v767.772c0.034 0.040 0.076 0.082 0.114 0.114h895.77zM960 896h-896c-35.2 0-64-28.8-64-64v-768c0-35.2 28.8-64 64-64h896c35.2 0 64 28.8 64 64v768c0 35.2-28.8 64-64 64v0zM832 672c0-53.020-42.98-96-96-96s-96 42.98-96 96 42.98 96 96 96 96-42.98 96-96zM896 128h-768v128l224 384 256-320h64l224 192z" />
<glyph unicode="&#xe90e;" glyph-name="tex-file" data-tags="tex-file" horiz-adv-x="878" d="M838.857 742.857c10.667-10.667 19.81-25.143 27.429-43.429s11.429-35.048 11.429-50.286v-658.286c0-15.238-5.333-28.19-16-38.857s-23.619-16-38.857-16h-768c-15.238 0-28.19 5.333-38.857 16s-16 23.619-16 38.857v914.286c0 15.238 5.333 28.19 16 38.857s23.619 16 38.857 16h512c15.238 0 32-3.81 50.286-11.429s32.762-16.762 43.429-27.429zM585.143 882.286v-214.857h214.857c-3.81 11.048-8 18.857-12.571 23.429l-178.857 178.857c-4.571 4.571-12.381 8.762-23.429 12.571zM804.571 9.143v585.143h-237.714c-15.238 0-28.19 5.333-38.857 16s-16 23.619-16 38.857v237.714h-438.857v-877.714zM102.236 468.364c-2.923 0-5.319-2.255-5.545-5.119l-6.945-90.987c-0.010-0.127-0.016-0.274-0.016-0.423 0-3.072 2.49-5.563 5.563-5.563h7.393c2.919 0.001 5.313 2.25 5.544 5.11 2.65 33.954 5.861 52.887 14.182 62.362 4.161 4.738 9.716 7.783 18.58 9.798s20.866 2.791 36.64 2.791h22.193c2.091-0.322 1.844-0.271 2.186-1.171 0.372-0.979 0.62-4.228 0.62-8.961v-223.908c0-3.639-0.15-6.347-0.555-7.895s-0.632-1.92-1.85-2.706c-2.437-1.571-10.844-3.239-27.925-3.239h-11.676c-3.072 0-5.562-2.491-5.562-5.562v-9.935c0.001-3.072 2.491-5.562 5.563-5.562 0.038 0 0.075 0 0.113 0.001 19.73 0.381 40.259 0.781 60.362 0.781 20.041 0 40.633-0.4 60.355-0.781 0.032-0.001 0.069-0.001 0.107-0.001 3.072 0 5.563 2.49 5.563 5.562v9.935c0 3.072-2.491 5.562-5.562 5.562h-11.478c-16.819 0-25.070 1.672-27.435 3.22-1.183 0.774-1.412 1.147-1.814 2.706s-0.55 4.275-0.55 7.915v223.902c0 4.543 0.214 7.675 0.598 8.745 0.338 0.942 0.319 1.001 1.984 1.388h21.832c15.56 0 27.418-0.77 36.189-2.779s14.289-5.043 18.442-9.781c8.306-9.476 11.588-28.411 14.233-62.371 0.231-2.88 2.625-5.13 5.545-5.131h7.405c0 0 0 0 0 0 3.072 0 5.563 2.491 5.563 5.563 0 0.145-0.006 0.288-0.016 0.43l-6.758 90.956c-0.221 2.89-2.62 5.151-5.548 5.151 0 0 0 0 0 0h-237.516zM317.317 377.686c0 0 0 0 0 0-2.297 0-4.159-1.862-4.159-4.159 0 0 0 0 0 0v-11.295c0 0 0 0 0 0 0-2.297 1.862-4.159 4.159-4.159 0 0 0 0 0 0 14.566 0 22.928-0.413 26.022-1.901 1.547-0.744 2.045-1.302 2.659-3.092s0.959-4.892 0.959-9.34v-221.977c0-4.45-0.341-7.556-0.952-9.347s-1.103-2.343-2.644-3.085c-3.082-1.484-11.446-1.899-26.043-1.899 0 0 0 0 0 0-2.297 0-4.159-1.862-4.159-4.159 0 0 0 0 0 0v-9.935c0 0 0 0 0 0 0-2.297 1.862-4.159 4.159-4.159 0 0 0 0 0 0h214.048c2.090 0.001 3.819 1.542 4.113 3.55l14.787 103.979c0.026 0.176 0.041 0.379 0.041 0.586 0 2.296-1.861 4.158-4.157 4.159h-7.391c-2.082 0-3.806-1.53-4.111-3.527-4.51-30.51-8.252-53.473-18.853-68.14s-28.182-22.477-63.721-22.477h-57.088c-4.020 0-6.985 0.149-8.906 0.483s-2.588 0.769-2.893 1.078c-0.304 0.31-0.657 0.89-0.918 2.619s-0.331 4.386-0.331 7.885v110.815h34.645c18.894 0 27.755-3.332 32.446-9.745s5.897-17.821 5.897-35.031c0 0 0 0 0 0 0-2.297 1.862-4.159 4.159-4.159 0 0 0 0 0 0h6.609c0 0 0 0 0 0 2.297 0 4.159 1.862 4.159 4.159 0 0 0 0 0 0v107.003c0 0 0 0 0 0 0 2.297-1.862 4.159-4.159 4.159 0 0 0 0 0 0h-6.609c0 0 0 0 0 0-2.297 0-4.159-1.862-4.159-4.159 0 0 0 0 0 0 0-16.915-1.205-28.083-5.879-34.358s-13.566-9.57-32.465-9.57h-34.651v97.779c0 3.433 0.072 6.036 0.331 7.721s0.599 2.229 0.899 2.53c0.301 0.301 0.982 0.739 2.907 1.072s4.891 0.479 8.91 0.479h56.238c31.275 0 47.368-6.039 56.876-17.889s12.943-30.997 15.813-58.070c0.229-2.1 1.993-3.72 4.135-3.72h7.411c2.296 0 4.158 1.862 4.158 4.159 0 0.158-0.009 0.314-0.026 0.468l-9.865 90.956c-0.234 2.095-1.995 3.709-4.133 3.71h-208.268zM517.614 468.552c-2.805-0.062-5.055-2.35-5.055-5.164v-9.936c0 0 0 0 0 0 0-2.853 2.313-5.165 5.165-5.165 0 0 0 0 0 0 11.231 0 18.35-0.319 23.063-1.786s7.605-3.772 11.794-9.661c0-0.001 0.001-0.001 0.001-0.001l77.302-113.535-69.55-101.602c-16.285-23.58-40.326-23.781-47.99-23.781 0 0 0 0 0 0-2.853 0-5.165-2.313-5.165-5.165 0 0 0 0 0 0v-9.935c0-2.852 2.313-5.164 5.165-5.164 0.151 0 0.3 0.006 0.447 0.019 8.906 0.741 24.598 0.761 34.466 0.761 11.099 0 30.53-0.021 40.287-0.765 0.118-0.010 0.255-0.015 0.393-0.015 2.852 0 5.165 2.312 5.165 5.164v9.935c-0.001 2.677-2.038 4.878-4.647 5.138-5.332 0.515-7.921 2.247-9.513 4.174s-2.25 4.426-2.25 6.784c0 4.015 1.086 5.283 3.135 8.171 0.005 0.006 0.021 0.029 0.036 0.052l61.529 89.798 67.298-98.92c0.031-0.046 0.052-0.075 0.073-0.104 1.481-2.080 2.074-3.251 2.222-3.63s0.047 0.244 0.047-0.372c0 0.683-0.454-5.256-13.225-6.003-2.72-0.164-4.864-2.41-4.864-5.156v-9.936c0-2.853 2.313-5.165 5.165-5.165 0.108 0 0.214 0.003 0.32 0.010 12.847 0.763 32.967 0.772 46.52 0.772 10.649 0 31.354-0.027 40.786-0.766 0.121-0.010 0.262-0.016 0.404-0.016 2.853 0 5.165 2.313 5.165 5.165v9.936c0 0 0 0 0 0 0 2.853-2.313 5.165-5.165 5.165 0 0 0 0 0 0-13.041 0-20.241 0.634-24.376 2.144s-6.135 3.702-10.064 9.28c-0.001 0.002-0.003 0.003-0.004 0.005l-88.393 129.317 58.813 85.027c6.116 8.669 16.138 24.245 48.086 24.67 2.823 0.039 5.096 2.336 5.096 5.164v9.93c0 2.852-2.313 5.164-5.165 5.164-0.151 0-0.3-0.006-0.447-0.019-8.93-0.742-24.599-0.762-34.466-0.762-13.553 0-30.468 0.017-40.287 0.766-0.118 0.010-0.255 0.015-0.393 0.015-2.852 0-5.165-2.312-5.165-5.164v-9.936c0-2.683 2.046-4.889 4.664-5.141 5.584-0.521 8.116-2.254 9.628-4.127s2.117-4.353 2.117-6.828c0-3.507-1.167-5.396-3.969-9.321-0.005-0.006-0.021-0.029-0.036-0.052l-50.041-72.583-56.544 82.765c-1.34 2.106-2.049 3.411-2.304 3.991-0.258 0.586-0.12 0.151-0.12 0.206 0-0.457 1.199 5.596 13.084 5.934 2.788 0.082 5.018 2.362 5.018 5.163v9.93c0 2.853-2.313 5.165-5.165 5.165-0.108 0-0.214-0.003-0.32-0.010-12.847-0.763-32.967-0.772-46.52-0.772-10.649 0-31.357 0.028-40.737 0.766-0.121 0.010-0.262 0.016-0.404 0.016-0.039 0-0.078 0-0.117-0.001z" />
<glyph unicode="&#xe90f;" glyph-name="ipynb-file" data-tags="ipynb-file" horiz-adv-x="878" d="M838.857 742.857c10.667-10.667 19.81-25.143 27.429-43.429s11.429-35.048 11.429-50.286v-658.286c0-15.238-5.333-28.19-16-38.857s-23.619-16-38.857-16h-768c-15.238 0-28.19 5.333-38.857 16s-16 23.619-16 38.857v914.286c0 15.238 5.333 28.19 16 38.857s23.619 16 38.857 16h512c15.238 0 32-3.81 50.286-11.429s32.762-16.762 43.429-27.429zM804.571 659.37c0 14.165-12.571 26.915-17.143 31.487l-178.857 178.857c-4.571 4.571-15.462 17.118-33.346 17.123l-502.082 0.019v-877.714h731.429v585.143zM674.934 735.813c0-21.542-17.463-39.006-39.006-39.006s-39.006 17.463-39.006 39.006c0 21.542 17.463 39.006 39.006 39.006s39.006-17.463 39.006-39.006zM435.796 214.886c-119.387 0-223.463 42.833-277.597 106.263 41.011-113.554 149.826-194.846 277.597-194.846s236.586 81.292 277.597 194.846c-54.134-63.43-158.21-106.263-277.597-106.263zM435.796 627.545c119.387 0 223.463-42.833 277.597-106.263-41.011 113.554-149.826 194.846-277.597 194.846s-236.586-81.292-277.415-194.846c54.134 63.248 158.028 106.263 277.415 106.263zM283.236 90.942c0-25.972-21.054-47.026-47.026-47.026s-47.026 21.054-47.026 47.026c0 25.972 21.054 47.026 47.026 47.026s47.026-21.054 47.026-47.026zM218.53 682.226c0-15.804-12.812-28.616-28.616-28.616s-28.616 12.812-28.616 28.616c0 15.804 12.812 28.616 28.616 28.616s28.616-12.812 28.616-28.616zM139.876 473.4h20.47v-124.599h-20.47zM222.868 367.491v-66.082h-20.581v171.99h20.581v-18.912q6.452 11.125 16.242 16.465 9.901 5.451 23.585 5.451 22.695 0 36.823-18.022 14.24-18.022 14.24-47.392t-14.24-47.392q-14.129-18.022-36.823-18.022-13.684 0-23.585 5.34-9.79 5.451-16.242 16.576zM292.509 410.99q0 22.583-9.345 35.377-9.234 12.905-25.476 12.905t-25.587-12.905q-9.234-12.794-9.234-35.377t9.234-35.488q9.345-12.794 25.587-12.794t25.476 12.794q9.345 12.905 9.345 35.488zM399.531 337.232q-8.677-22.25-16.91-29.036t-22.027-6.786h-16.354v17.132h12.015q8.455 0 13.127 4.005t10.346 18.912l3.671 9.345-50.396 122.596h21.694l38.937-97.454 38.937 97.454h21.693l-54.734-136.168zM586.095 424.006v-75.204h-20.47v74.537q0 17.689-6.897 26.477t-20.692 8.789q-16.576 0-26.143-10.569t-9.567-28.813v-70.42h-20.581v124.599h20.581v-19.357q7.342 11.236 17.244 16.799 10.012 5.562 23.028 5.562 21.471 0 32.485-13.35 11.014-13.239 11.014-39.048zM716.59 410.99q0 22.583-9.345 35.377-9.234 12.905-25.476 12.905t-25.587-12.905q-9.234-12.794-9.234-35.377t9.234-35.488q9.345-12.794 25.587-12.794t25.476 12.794q9.345 12.905 9.345 35.488zM646.948 454.488q6.452 11.125 16.242 16.465 9.901 5.451 23.585 5.451 22.695 0 36.823-18.022 14.24-18.022 14.24-47.392t-14.24-47.392q-14.129-18.022-36.823-18.022-13.684 0-23.585 5.34-9.79 5.451-16.242 16.576v-18.69h-20.581v173.103h20.581v-67.417z" />
<glyph unicode="&#xe910;" glyph-name="jupyter-file" data-tags="jupyter-file" horiz-adv-x="878" d="M838.857 742.857c10.667-10.667 19.81-25.143 27.429-43.429s11.429-35.048 11.429-50.286v-658.286c0-15.238-5.333-28.19-16-38.857s-23.619-16-38.857-16h-768c-15.238 0-28.19 5.333-38.857 16s-16 23.619-16 38.857v914.286c0 15.238 5.333 28.19 16 38.857s23.619 16 38.857 16h512c15.238 0 32-3.81 50.286-11.429s32.762-16.762 43.429-27.429zM804.571 659.37c0 14.165-12.571 26.915-17.143 31.487l-178.857 178.857c-4.571 4.571-15.462 17.118-33.346 17.123l-502.082 0.019v-877.714h731.429v585.143zM148.123 378.134c0-23.208-1.827-30.883-6.579-36.547-4.203-4.568-11.147-6.761-19.187-7.492l1.827-13.888c9.502 0 22.294 3.289 30.152 10.964 8.589 8.771 11.695 21.015 11.695 40.019v88.079h-17.725v-81.135zM280.059 388.733c0-10.051 0.183-18.822 0.731-26.497h-15.715l-0.914 15.898h-0.365c-4.568-7.858-14.802-18.091-32.162-18.091-15.167 0-33.441 8.406-33.441 42.578v56.831h17.725v-53.907c0-18.456 5.665-30.883 21.746-30.883 11.878 0 20.101 8.223 23.208 16.081 0.914 2.558 1.645 5.848 1.645 8.954v59.572h17.725v-70.536zM313.317 427.656c0 12.426-0.365 22.477-0.731 31.613h15.898l0.731-16.629h0.365c7.309 11.878 18.639 18.822 34.537 18.822 23.39 0 41.116-19.918 41.116-49.339 0-34.903-21.197-52.080-44.222-52.080-12.792 0-24.121 5.665-29.969 15.167h-0.365v-52.811h-17.543v105.256zM330.677 401.707c0-2.558 0.365-4.934 0.731-7.309 3.289-12.243 13.888-20.649 26.497-20.649 18.639 0 29.421 15.167 29.421 37.461 0 19.553-10.233 36.182-28.872 36.182-12.061 0-23.208-8.589-26.68-21.928-0.548-2.193-1.279-4.751-1.279-7.309v-16.446zM436.482 459.269l21.197-57.379c2.193-6.396 4.568-14.071 6.213-19.918h0.365c1.827 5.848 3.837 13.157 6.213 20.284l19.187 57.014h18.639l-26.497-69.257c-12.609-33.258-21.197-50.435-33.258-60.851-8.589-7.675-17.177-10.599-21.746-11.512l-4.386 14.802c4.386 1.462 10.233 4.203 15.533 8.589 4.751 3.837 10.781 10.599 14.802 19.736 0.731 1.827 1.462 3.289 1.462 4.203s-0.365 2.376-1.279 4.568l-35.999 89.541h19.553zM554.895 487.228v-27.959h25.218v-13.523h-25.218v-52.445c0-12.061 3.472-18.822 13.157-18.822 4.568 0 8.040 0.548 10.233 1.279l0.731-13.157c-3.472-1.462-8.771-2.376-15.715-2.376-8.223 0-14.802 2.558-19.005 7.492-4.934 5.299-6.761 13.888-6.761 25.218v52.994h-14.984v13.523h14.984v23.208l17.36 4.568zM612.823 407.555c0.365-23.939 15.715-33.624 33.258-33.624 12.609 0 20.284 2.193 26.862 4.934l2.924-12.609c-6.213-2.741-16.812-6.030-32.344-6.030-29.969 0-47.694 19.736-47.694 48.973s17.177 52.445 45.501 52.445c31.613 0 40.202-27.959 40.202-45.684 0-3.655-0.365-6.396-0.548-8.223h-68.161zM664.537 420.164c0.183 11.147-4.568 28.69-24.487 28.69-17.908 0-25.766-16.446-27.045-28.69h51.532zM707.48 429.118c0 11.512-0.183 21.197-0.731 30.334h15.533l0.548-19.005h0.731c4.386 12.974 14.984 21.197 26.862 21.197 2.010 0 3.472-0.183 4.934-0.548v-16.629c-1.827 0.365-3.655 0.548-6.030 0.548-12.426 0-21.197-9.502-23.756-22.659-0.365-2.376-0.731-5.299-0.731-8.223v-51.715h-17.36v66.699zM678.608 727.892c0-21.597-17.508-39.106-39.106-39.106s-39.106 17.508-39.106 39.106c0 21.597 17.508 39.106 39.106 39.106s39.106-17.508 39.106-39.106zM438.857 205.631c-119.693 0-224.035 42.943-278.308 106.536 41.116-113.845 150.21-195.346 278.308-195.346s237.192 81.501 278.308 195.346c-54.273-63.592-158.616-106.536-278.308-106.536zM438.857 619.347c119.693 0 224.035-42.943 278.308-106.536-41.116 113.845-150.21 195.346-278.308 195.346s-237.192-81.501-278.125-195.346c54.273 63.41 158.433 106.536 278.125 106.536zM285.906 81.37c0-26.038-21.108-47.146-47.146-47.146s-47.146 21.108-47.146 47.146c0 26.038 21.108 47.146 47.146 47.146s47.146-21.108 47.146-47.146zM221.035 674.168c0-15.845-12.845-28.69-28.69-28.69s-28.69 12.845-28.69 28.69c0 15.845 12.845 28.69 28.69 28.69s28.69-12.845 28.69-28.69z" />
<glyph unicode="&#xe914;" glyph-name="video-camera" data-tags="video-camera, video, media, film, movie" d="M384 672c0 88.366 71.634 160 160 160s160-71.634 160-160c0-88.366-71.634-160-160-160s-160 71.634-160 160zM0 672c0 88.366 71.634 160 160 160s160-71.634 160-160c0-88.366-71.634-160-160-160s-160 71.634-160 160zM768 352v96c0 35.2-28.8 64-64 64h-640c-35.2 0-64-28.8-64-64v-320c0-35.2 28.8-64 64-64h640c35.2 0 64 28.8 64 64v96l256-160v448l-256-160zM640 192h-512v192h512v-192z" />
<glyph unicode="&#xe921;" glyph-name="library" data-tags="library, bank, building" horiz-adv-x="1088" d="M1024 0v64h-64v384h64v64h-192v-64h64v-384h-192v384h64v64h-192v-64h64v-384h-192v384h64v64h-192v-64h64v-384h-192v384h64v64h-192v-64h64v-384h-64v-64h-64v-64h1088v64h-64zM512 960h64l512-320v-64h-1088v64l512 320z" />
<glyph unicode="&#xe9ca;" glyph-name="earth" data-tags="earth, globe, language, web, internet, sphere, planet" d="M512 960c-282.77 0-512-229.23-512-512s229.23-512 512-512 512 229.23 512 512-229.23 512-512 512zM512-0.002c-62.958 0-122.872 13.012-177.23 36.452l233.148 262.29c5.206 5.858 8.082 13.422 8.082 21.26v96c0 17.674-14.326 32-32 32-112.99 0-232.204 117.462-233.374 118.626-6 6.002-14.14 9.374-22.626 9.374h-128c-17.672 0-32-14.328-32-32v-192c0-12.122 6.848-23.202 17.69-28.622l110.31-55.156v-187.886c-116.052 80.956-192 215.432-192 367.664 0 68.714 15.49 133.806 43.138 192h116.862c8.488 0 16.626 3.372 22.628 9.372l128 128c6 6.002 9.372 14.14 9.372 22.628v77.412c40.562 12.074 83.518 18.588 128 18.588 70.406 0 137.004-16.26 196.282-45.2-4.144-3.502-8.176-7.164-12.046-11.036-36.266-36.264-56.236-84.478-56.236-135.764s19.97-99.5 56.236-135.764c36.434-36.432 85.218-56.264 135.634-56.26 3.166 0 6.342 0.080 9.518 0.236 13.814-51.802 38.752-186.656-8.404-372.334-0.444-1.744-0.696-3.488-0.842-5.224-81.324-83.080-194.7-134.656-320.142-134.656z" />
<glyph unicode="&#xe9cb;" glyph-name="link" data-tags="link, chain, url, uri, anchor" d="M440.236 324.234c-13.31 0-26.616 5.076-36.77 15.23-95.134 95.136-95.134 249.934 0 345.070l192 192c46.088 46.086 107.36 71.466 172.534 71.466s126.448-25.38 172.536-71.464c95.132-95.136 95.132-249.934 0-345.070l-87.766-87.766c-20.308-20.308-53.23-20.308-73.54 0-20.306 20.306-20.306 53.232 0 73.54l87.766 87.766c54.584 54.586 54.584 143.404 0 197.99-26.442 26.442-61.6 41.004-98.996 41.004s-72.552-14.562-98.996-41.006l-192-191.998c-54.586-54.586-54.586-143.406 0-197.992 20.308-20.306 20.306-53.232 0-73.54-10.15-10.152-23.462-15.23-36.768-15.23zM256-52c-65.176 0-126.45 25.38-172.534 71.464-95.134 95.136-95.134 249.934 0 345.070l87.764 87.764c20.308 20.306 53.234 20.306 73.54 0 20.308-20.306 20.308-53.232 0-73.54l-87.764-87.764c-54.586-54.586-54.586-143.406 0-197.992 26.44-26.44 61.598-41.002 98.994-41.002s72.552 14.562 98.998 41.006l192 191.998c54.584 54.586 54.584 143.406 0 197.992-20.308 20.308-20.306 53.232 0 73.54 20.306 20.306 53.232 20.306 73.54-0.002 95.132-95.134 95.132-249.932 0.002-345.068l-192.002-192c-46.090-46.088-107.364-71.466-172.538-71.466z" />
<glyph unicode="&#xe9cd;" glyph-name="attachment" data-tags="attachment, paperclip" d="M665.832 632.952l-64.952 64.922-324.81-324.742c-53.814-53.792-53.814-141.048 0-194.844 53.804-53.792 141.060-53.792 194.874 0l389.772 389.708c89.714 89.662 89.714 235.062 0 324.726-89.666 89.704-235.112 89.704-324.782 0l-409.23-409.178c-0.29-0.304-0.612-0.576-0.876-0.846-125.102-125.096-125.102-327.856 0-452.906 125.054-125.056 327.868-125.056 452.988 0 0.274 0.274 0.516 0.568 0.82 0.876l0.032-0.034 279.332 279.292-64.986 64.92-279.33-279.262c-0.296-0.268-0.564-0.57-0.846-0.844-89.074-89.058-233.98-89.058-323.076 0-89.062 89.042-89.062 233.922 0 322.978 0.304 0.304 0.604 0.582 0.888 0.846l-0.046 0.060 409.28 409.166c53.712 53.738 141.144 53.738 194.886 0 53.712-53.734 53.712-141.148 0-194.84l-389.772-389.7c-17.936-17.922-47.054-17.922-64.972 0-17.894 17.886-17.894 47.032 0 64.92l324.806 324.782z" />
<glyph unicode="&#xea73;" glyph-name="pilcrow" data-tags="pilcrow, wysiwyg" d="M384 960h512v-128h-128v-896h-128v896h-128v-896h-128v512c-141.384 0-256 114.616-256 256s114.616 256 256 256z" />
<glyph unicode="&#xea76;" glyph-name="section" data-tags="section, wysiwyg" d="M495.964-64c-49.36 0-91.116 14.406-124.104 42.82-33.224 28.614-50.068 62.038-50.068 99.344 0 18.128 6.6 33.756 19.622 46.458 13.232 12.914 29.782 19.744 47.85 19.744 18.002 0 34.194-6.41 46.826-18.542 12.472-11.972 18.796-27.824 18.796-47.104 0-11.318-1.85-23.818-5.494-37.146-3.616-13.178-4.376-19.938-4.376-23.292 0-3.682 0.924-8.076 7.774-12.756 12.76-8.824 28.066-13.084 46.876-13.084 22.576 0 42.718 7.858 61.574 24.022 18.578 15.942 27.612 32.318 27.612 50.056 0 19.736-5.27 36.826-16.12 52.242-18.336 25.758-52.878 55.954-102.612 89.668-79.858 53.454-133.070 99.766-162.58 141.52-22.89 32.684-34.476 67.89-34.476 104.704 0 37.062 12.142 73.948 36.092 109.63 20.508 30.554 50.8 58.12 90.228 82.138-21.096 22.7-36.896 44.064-47.094 63.688-12.872 24.76-19.398 50.372-19.398 76.122 0 47.814 18.91 89.16 56.206 122.89 37.32 33.76 83.86 50.878 138.322 50.878 50.086 0 92.206-14.082 125.182-41.852 33.328-28.082 50.222-60.898 50.222-97.54 0-18.656-6.986-35.364-20.766-49.66l-0.276-0.282c-7.976-7.924-22.618-17.37-47.046-17.37-19.148 0-35.934 6.272-48.54 18.136-12.558 11.794-18.93 25.918-18.93 41.966 0 6.934 1.702 17.416 5.352 32.98 1.778 7.364 2.668 14.142 2.668 20.25 0 10.338-3.726 18.272-11.724 24.966-8.282 6.93-20.108 10.302-36.142 10.302-24.868 0-45.282-7.562-62.41-23.118-17.19-15.606-25.544-34.088-25.544-56.508 0-20.156 4.568-36.762 13.58-49.362 17.112-23.938 46.796-49.79 88.22-76.836 84.17-54.588 142.902-104.672 174.518-148.826 23.35-33.12 35.152-68.34 35.152-104.792 0-36.598-11.882-73.496-35.318-109.676-20.208-31.18-50.722-59.276-90.884-83.71 22.178-23.466 37.812-44.042 47.554-62.538 12.082-22.97 18.208-48.048 18.208-74.542 0-49.664-18.926-91.862-56.244-125.422-37.34-33.554-83.866-50.566-138.288-50.566zM446.416 603.654c-48.222-28.952-71.712-62.19-71.712-101.314 0-22.756 6.498-43.13 19.86-62.278 19.936-27.926 59.27-62.054 116.804-101.288 24.358-16.586 46.36-32.712 65.592-48.060 49.060 29.504 72.956 62.366 72.956 100.178 0 20.598-8.142 42.774-24.204 65.916-16.808 24.196-52.85 55.796-107.128 93.914-28.328 19.562-52.558 37.334-72.168 52.932z" />
<glyph unicode="&#xeabd;" glyph-name="tux" data-tags="tux, brand, linux" d="M567.656 223.084c-81.944-38.118-158.158-37.716-209.34-34.020-61.052 4.41-110.158 21.124-131.742 35.732-13.3 9.006-31.384 5.522-40.39-7.782-9.004-13.302-5.52-31.386 7.782-40.39 34.698-23.486 96.068-40.954 160.162-45.58 10.866-0.784 22.798-1.278 35.646-1.278 55.782 0 126.626 5.316 202.42 40.57 14.564 6.778 20.878 24.074 14.104 38.64-6.776 14.566-24.076 20.872-38.642 14.108zM890.948 266.184c2.786 252.688 28.762 730.206-454.97 691.612-477.6-38.442-350.964-542.968-358.082-711.95-6.308-89.386-35.978-198.648-77.896-309.846h129.1c13.266 47.122 23.024 93.72 27.232 138.15 7.782-5.428 16.108-10.674 24.994-15.7 14.458-8.518 26.884-19.844 40.040-31.834 30.744-28.018 65.59-59.774 133.712-63.752 4.572-0.262 9.174-0.394 13.676-0.394 68.896 0 116.014 30.154 153.878 54.382 18.14 11.612 33.818 21.64 48.564 26.452 41.91 13.12 78.532 34.296 105.904 61.252 4.276 4.208 8.242 8.538 11.962 12.948 15.246-55.878 36.118-118.758 59.288-181.504h275.65c-66.174 102.224-134.436 202.374-133.052 330.184zM124.11 403.648c0 0.016 0 0.030-0.002 0.046-4.746 82.462 34.71 151.832 88.126 154.936 53.412 3.106 100.56-61.228 105.304-143.692 0-0.014 0.004-0.030 0.004-0.044 0.256-4.446 0.368-8.846 0.37-13.206-16.924-4.256-32.192-10.436-45.872-17.63-0.052 0.612-0.092 1.216-0.152 1.83 0 0.008 0 0.018 0 0.026-4.57 46.81-29.572 82.16-55.852 78.958-26.28-3.204-43.88-43.75-39.312-90.558 0-0.010 0.004-0.018 0.004-0.026 1.992-20.408 7.868-38.636 16.042-52.444-2.034-1.604-7.784-5.812-14.406-10.656-4.97-3.634-11.020-8.058-18.314-13.43-19.882 26.094-33.506 63.58-35.94 105.89zM665.26 199.822c-1.9-43.586-58.908-84.592-111.582-101.044l-0.296-0.096c-21.9-7.102-41.428-19.6-62.104-32.83-34.732-22.224-70.646-45.208-122.522-45.208-3.404 0-6.894 0.104-10.326 0.296-47.516 2.778-69.742 23.032-97.88 48.676-14.842 13.526-30.19 27.514-49.976 39.124l-0.424 0.244c-42.706 24.104-69.212 54.082-70.908 80.194-0.842 12.98 4.938 24.218 17.182 33.4 26.636 19.972 44.478 33.022 56.284 41.658 13.11 9.588 17.068 12.48 20 15.264 2.096 1.986 4.364 4.188 6.804 6.562 24.446 23.774 65.36 63.562 128.15 63.562 38.404 0 80.898-14.8 126.17-43.902 21.324-13.878 39.882-20.286 63.38-28.4 16.156-5.578 34.468-11.902 58.992-22.404l0.396-0.164c22.88-9.404 49.896-26.564 48.66-54.932zM652.646 302.194c-4.4 2.214-8.974 4.32-13.744 6.286-22.106 9.456-39.832 15.874-54.534 20.998 8.116 15.894 13.16 35.72 13.624 57.242 0 0.010 0 0.022 0 0.030 1.126 52.374-25.288 94.896-58.996 94.976-33.71 0.078-61.95-42.314-63.076-94.686 0-0.010 0-0.018 0-0.028-0.038-1.714-0.042-3.416-0.020-5.11-20.762 9.552-41.18 16.49-61.166 20.76-0.092 1.968-0.204 3.932-0.244 5.92 0 0.016 0 0.036 0 0.050-1.938 95.412 56.602 174.39 130.754 176.402 74.15 2.014 135.828-73.7 137.772-169.11 0-0.018 0-0.038 0-0.052 0.874-43.146-10.66-82.866-30.37-113.678z" />
</font>
</defs>
</svg>
