<?xml version="1.0" encoding="UTF-8" standalone="no"?>
<svg
   xmlns:dc="http://purl.org/dc/elements/1.1/"
   xmlns:cc="http://creativecommons.org/ns#"
   xmlns:rdf="http://www.w3.org/1999/02/22-rdf-syntax-ns#"
   xmlns:svg="http://www.w3.org/2000/svg"
   xmlns="http://www.w3.org/2000/svg"
   version="1.1"
   id="svg2"
   viewBox="0 0 2834.6457 1771.6535"
   height="500mm"
   width="800mm">
  <defs
     id="defs4">
    <marker
       style="overflow:visible"
       id="Arrow2Mend"
       refX="0"
       refY="0"
       orient="auto">
      <path
         transform="scale(-0.6,-0.6)"
         d="M 8.7185878,4.0337352 -2.2072895,0.01601326 8.7185884,-4.0017078 c -1.7454984,2.3720609 -1.7354408,5.6174519 -6e-7,8.035443 z"
         style="fill:#000000;fill-opacity:1;fill-rule:evenodd;stroke:#000000;stroke-width:0.625;stroke-linejoin:round;stroke-opacity:1"
         id="path4212" />
    </marker>
    <marker
       style="overflow:visible"
       id="Arrow1Lend"
       refX="0"
       refY="0"
       orient="auto">
      <path
         transform="matrix(-0.8,0,0,-0.8,-10,0)"
         style="fill:#000000;fill-opacity:1;fill-rule:evenodd;stroke:#000000;stroke-width:1pt;stroke-opacity:1"
         d="M 0,0 5,-5 -12.5,0 5,5 0,0 Z"
         id="path4188" />
    </marker>
    <marker
       style="overflow:visible"
       id="Arrow2Mend-3"
       refX="0"
       refY="0"
       orient="auto">
      <path
         transform="scale(-0.6,-0.6)"
         d="M 8.7185878,4.0337352 -2.2072895,0.01601326 8.7185884,-4.0017078 c -1.7454984,2.3720609 -1.7354408,5.6174519 -6e-7,8.035443 z"
         style="fill:#000000;fill-opacity:1;fill-rule:evenodd;stroke:#000000;stroke-width:0.625;stroke-linejoin:round;stroke-opacity:1"
         id="path4212-6" />
    </marker>
    <marker
       style="overflow:visible"
       id="Arrow2Mend-5"
       refX="0"
       refY="0"
       orient="auto">
      <path
         transform="scale(-0.6,-0.6)"
         d="M 8.7185878,4.0337352 -2.2072895,0.01601326 8.7185884,-4.0017078 c -1.7454984,2.3720609 -1.7354408,5.6174519 -6e-7,8.035443 z"
         style="fill:#000000;fill-opacity:1;fill-rule:evenodd;stroke:#000000;stroke-width:0.625;stroke-linejoin:round;stroke-opacity:1"
         id="path4212-62" />
    </marker>
  </defs>
  <metadata
     id="metadata7">
    <rdf:RDF>
      <cc:Work
         rdf:about="">
        <dc:format>image/svg+xml</dc:format>
        <dc:type
           rdf:resource="http://purl.org/dc/dcmitype/StillImage" />
        <dc:title></dc:title>
      </cc:Work>
    </rdf:RDF>
  </metadata>
  <g
     transform="translate(0,719.29129)"
     id="layer1">
    <g
       id="text4165"
       style="font-style:normal;font-variant:normal;font-weight:normal;font-stretch:normal;font-size:112.5px;line-height:100%;font-family:'Noto Sans';-inkscape-font-specification:'Noto Sans, Normal';text-align:start;letter-spacing:0px;word-spacing:0px;writing-mode:lr-tb;text-anchor:start;fill:#000000;fill-opacity:1;stroke:none;stroke-width:1px;stroke-linecap:butt;stroke-linejoin:miter;stroke-opacity:1">
      <path
         id="path4275"
         style=""
         d="m 566.18073,-381.92346 -10.16236,0 0,-71.41113 -25.10376,0 0,-8.89893 60.20508,0 0,8.89893 -24.93896,0 0,71.41113 z" />
      <path
         id="path4277"
         style=""
         d="m 623.91388,-380.82483 q -13.56812,0 -21.31348,-8.18481 -7.69043,-8.23975 -7.69043,-22.63184 0,-14.50195 7.19605,-23.07129 7.19604,-8.62427 19.4458,-8.62427 11.37085,0 18.12744,7.36084 6.75659,7.30591 6.75659,19.83033 l 0,5.98754 -41.30859,0 q 0.27466,10.27222 5.2185,15.60059 4.94385,5.32837 14.00757,5.32837 4.83399,0 9.17359,-0.82397 4.3396,-0.87891 10.16235,-3.35083 l 0,8.67919 q -4.99878,2.14234 -9.39331,3.02124 -4.39453,0.87891 -10.38208,0.87891 z m -2.47192,-54.43725 q -7.08619,0 -11.20606,4.55932 -4.11987,4.55933 -4.88892,12.68921 l 30.70679,0 q -0.10986,-8.45947 -3.90014,-12.854 -3.79029,-4.39453 -10.71167,-4.39453 z" />
      <path
         id="path4279"
         style=""
         d="m 699.00543,-381.92346 -1.92261,-8.56934 -0.43945,0 q -4.50439,5.65796 -9.00879,7.69043 -4.44946,1.97754 -11.26098,1.97754 -8.89893,0 -13.95264,-4.66919 -5.05371,-4.66919 -5.05371,-13.18359 0,-18.34717 28.94897,-19.22608 l 10.21729,-0.38452 0,-3.57055 q 0,-6.86646 -2.96631,-10.10743 -2.96631,-3.29589 -9.50317,-3.29589 -4.77906,0 -9.06372,1.42822 -4.22974,1.42822 -7.96509,3.18603 l -3.02124,-7.41577 q 4.55932,-2.41699 9.94262,-3.79028 5.3833,-1.37329 10.65674,-1.37329 10.9314,0 16.25977,4.83398 5.32837,4.83399 5.32837,15.38086 l 0,41.08887 -7.19605,0 z m -20.37964,-6.86646 q 8.29468,0 13.0188,-4.44946 4.77906,-4.50439 4.77906,-12.74414 l 0,-5.43823 -8.89893,0.38452 q -10.38208,0.38452 -15.16113,3.2959 -4.72412,2.91137 -4.72412,9.17358 0,4.72412 2.85644,7.25098 2.91138,2.52685 8.12988,2.52685 z" />
      <path
         id="path4281"
         style=""
         d="m 748.99323,-380.82483 q -13.0188,0 -20.26978,-7.96509 -7.25098,-8.02002 -7.25098,-22.96142 0,-15.16114 7.30591,-23.34595 7.36084,-8.23975 20.92896,-8.23975 4.39453,0 8.6792,0.93384 4.3396,0.87891 7.14111,2.30713 l -3.02124,8.23975 q -7.6355,-2.85645 -13.0188,-2.85645 -9.11865,0 -13.45825,5.76782 -4.3396,5.71289 -4.3396,17.08374 0,10.9314 4.3396,16.75415 4.3396,5.76783 12.854,5.76783 7.96509,0 15.65552,-3.51563 l 0,8.78906 q -6.26221,3.24097 -15.54565,3.24097 z" />
      <path
         id="path4283"
         style=""
         d="m 819.9649,-381.92346 0,-38.56201 q 0,-7.36084 -3.29589,-10.9314 -3.24097,-3.62549 -10.21729,-3.62549 -9.17358,0 -13.45825,5.10864 -4.22974,5.10865 -4.22974,16.86402 l 0,31.14624 -9.88769,0 0,-85.47363 9.88769,0 0,25.04882 q 0,4.94385 -0.54931,8.45948 l 0.65918,0 q 2.69165,-4.39454 7.63549,-6.86646 4.94385,-2.47192 11.15113,-2.47192 10.98633,0 16.53442,5.27343 5.5481,5.21851 5.5481,16.75416 l 0,39.27612 -9.77784,0 z" />
      <path
         id="path4285"
         style=""
         d="m 874.18243,-380.82483 q -13.56811,0 -21.31347,-8.18481 -7.69043,-8.23975 -7.69043,-22.63184 0,-14.50195 7.19604,-23.07129 7.19605,-8.62427 19.4458,-8.62427 11.37085,0 18.12744,7.36084 6.7566,7.30591 6.7566,19.83033 l 0,5.98754 -41.3086,0 q 0.27466,10.27222 5.21851,15.60059 4.94385,5.32837 14.00757,5.32837 4.83398,0 9.17358,-0.82397 4.3396,-0.87891 10.16235,-3.35083 l 0,8.67919 q -4.99877,2.14234 -9.39331,3.02124 -4.39453,0.87891 -10.38208,0.87891 z m -2.47192,-54.43725 q -7.08618,0 -11.20605,4.55932 -4.11988,4.55933 -4.88892,12.68921 l 30.70679,0 q -0.10987,-8.45947 -3.90015,-12.854 -3.79028,-4.39453 -10.71167,-4.39453 z" />
      <path
         id="path4287"
         style=""
         d="m 940.15533,-443.33704 q 4.01001,0 7.08619,0.65918 l -1.2085,9.11866 q -3.35083,-0.76905 -6.53687,-0.76905 -4.77905,0 -8.89892,2.63672 -4.06494,2.63672 -6.37207,7.30591 -2.30713,4.61426 -2.30713,10.27222 l 0,32.18994 -9.8877,0 0,-60.31494 8.12989,0 1.09863,11.04126 0.43945,0 q 3.4607,-5.98755 8.18482,-9.06372 4.72412,-3.07618 10.27221,-3.07618 z" />
      <path
         id="path4289"
         style=""
         d="m 997.88849,-398.56775 q 0,8.45947 -6.31714,13.12866 -6.31714,4.61426 -17.74292,4.61426 -11.92017,0 -18.95142,-3.79028 l 0,-9.00879 q 9.94263,4.83398 19.17115,4.83398 7.4707,0 10.87646,-2.41699 3.40576,-2.41699 3.40576,-6.48193 0,-3.57056 -3.2959,-6.04248 -3.24096,-2.47193 -11.59057,-5.65796 -8.51441,-3.2959 -11.9751,-5.60303 -3.46069,-2.36206 -5.10864,-5.27344 -1.59302,-2.91137 -1.59302,-7.08618 0,-7.41577 6.04248,-11.70044 6.04248,-4.28467 16.58936,-4.28467 10.27221,0 19.22607,4.06495 l -3.35083,7.85522 q -9.17358,-3.84521 -16.53442,-3.84521 -6.15235,0 -9.33838,1.97753 -3.18604,1.92261 -3.18604,5.32837 0,3.2959 2.74659,5.49317 2.74658,2.14233 12.79907,5.98755 7.52563,2.80151 11.09619,5.2185 3.62549,2.41699 5.32837,5.43823 1.70288,3.02124 1.70288,7.25098 z" />
    </g>
    <g
       id="text4171"
       style="font-style:normal;font-variant:normal;font-weight:normal;font-stretch:normal;font-size:112.5px;line-height:100%;font-family:'Noto Sans';-inkscape-font-specification:'Noto Sans, Normal';text-align:start;letter-spacing:0px;word-spacing:0px;writing-mode:lr-tb;text-anchor:start;fill:#000000;fill-opacity:1;stroke:none;stroke-width:1px;stroke-linecap:butt;stroke-linejoin:miter;stroke-opacity:1">
      <path
         id="path4222"
         style=""
         d="m 1939.4161,-403.40173 q 0,10.49194 -7.5805,16.53442 -7.5806,6.04248 -21.0938,6.04248 -14.2822,0 -22.0825,-3.79028 l 0,-9.66797 q 5.1086,2.19726 11.1511,3.46069 6.0974,1.26343 11.3709,1.26343 9.0088,0 13.5681,-3.46069 4.5593,-3.4607 4.5593,-9.50318 0,-4.01001 -1.6479,-6.59179 -1.648,-2.58179 -5.5481,-4.83399 -3.8452,-2.2522 -11.7005,-5.10864 -11.1511,-4.06494 -15.9301,-9.55811 -4.7791,-5.54809 -4.7791,-14.28222 0,-9.39331 7.0313,-14.94141 7.0861,-5.54809 18.6218,-5.54809 12.03,0 22.1374,4.50439 l -3.1311,8.6792 q -10.3271,-4.28467 -19.226,-4.28467 -7.1412,0 -11.2061,3.07617 -4.01,3.07617 -4.01,8.62427 0,3.95508 1.5381,6.5918 1.593,2.58178 5.0537,4.72412 3.5156,2.14233 10.9863,4.88891 8.9539,3.2959 13.3484,6.42701 4.3945,3.07617 6.4819,7.14111 2.0874,4.01001 2.0874,9.61304 z" />
      <path
         id="path4224"
         style=""
         d="m 1974.4076,-388.89978 q 1.9226,0 4.5044,-0.38452 2.5818,-0.38452 3.9001,-0.87891 l 0,7.58057 q -1.3733,0.60425 -4.2846,1.15356 -2.8565,0.60425 -5.8228,0.60425 -17.688,0 -17.688,-18.62183 l 0,-35.10131 -8.5144,0 0,-4.72412 8.6243,-3.95508 3.9551,-12.85401 5.8777,0 0,13.84278 17.4133,0 0,7.69043 -17.4133,0 0,34.82666 q 0,5.2185 2.4719,8.02002 2.5268,2.80151 6.9763,2.80151 z" />
      <path
         id="path4226"
         style=""
         d="m 2004.2355,-442.2384 0,38.83667 q 0,7.3059 3.2409,10.87646 3.2959,3.51563 10.1624,3.51563 9.2834,0 13.5132,-5.16358 4.2297,-5.16357 4.2297,-16.64428 l 0,-31.4209 9.9426,0 0,60.31494 -8.1298,0 -1.4283,-7.96509 -0.4943,0 q -2.6917,4.3396 -7.6355,6.70166 -4.9439,2.36206 -11.4808,2.36206 -10.8764,0 -16.4245,-5.2185 -5.4932,-5.21851 -5.4932,-16.69922 l 0,-39.49585 9.9976,0 z" />
      <path
         id="path4228"
         style=""
         d="m 2085.9188,-380.82483 q -11.7553,0 -18.2373,-8.12988 -6.4819,-8.12988 -6.4819,-23.01636 0,-14.77661 6.4819,-23.07129 6.5369,-8.29468 18.3472,-8.29468 12.1399,0 18.6767,8.89893 l 0.7142,0 q -0.1648,-1.09863 -0.4395,-4.39453 -0.2747,-3.35083 -0.2747,-4.5044 l 0,-24.06005 9.8877,0 0,85.47363 -7.965,0 -1.4832,-8.07495 -0.4395,0 q -6.3171,9.17358 -18.7866,9.17358 z m 1.593,-8.18481 q 9.0088,0 13.1287,-4.88892 4.1748,-4.94385 4.1748,-16.1499 l 0,-1.81275 q 0,-12.57934 -4.2297,-17.90771 -4.1748,-5.3833 -13.1836,-5.3833 -7.6355,0 -11.8103,6.09741 -4.1748,6.04248 -4.1748,17.30347 0,11.20605 4.1198,16.97387 4.1748,5.76783 11.9751,5.76783 z" />
      <path
         id="path4230"
         style=""
         d="m 2159.4174,-380.82483 q -13.5682,0 -21.3135,-8.18481 -7.6904,-8.23975 -7.6904,-22.63184 0,-14.50195 7.196,-23.07129 7.196,-8.62427 19.4458,-8.62427 11.3708,0 18.1274,7.36084 6.7566,7.30591 6.7566,19.83033 l 0,5.98754 -41.3086,0 q 0.2747,10.27222 5.2185,15.60059 4.9439,5.32837 14.0076,5.32837 4.834,0 9.1736,-0.82397 4.3396,-0.87891 10.1623,-3.35083 l 0,8.67919 q -4.9987,2.14234 -9.3933,3.02124 -4.3945,0.87891 -10.382,0.87891 z m -2.472,-54.43725 q -7.0861,0 -11.206,4.55932 -4.1199,4.55933 -4.8889,12.68921 l 30.7068,0 q -0.1099,-8.45947 -3.9002,-12.854 -3.7903,-4.39453 -10.7117,-4.39453 z" />
      <path
         id="path4232"
         style=""
         d="m 2238.3541,-381.92346 0,-38.56201 q 0,-7.36084 -3.2959,-10.9314 -3.2409,-3.62549 -10.2173,-3.62549 -9.2834,0 -13.5131,5.16358 -4.1748,5.10864 -4.1748,16.69921 l 0,31.25611 -9.8877,0 0,-60.31494 7.965,0 1.4832,8.23974 0.5493,0 q 2.8015,-4.44946 7.8552,-6.86645 5.0538,-2.47193 11.1512,-2.47193 11.0962,0 16.4795,5.3833 5.3833,5.38331 5.3833,16.75416 l 0,39.27612 -9.7779,0 z" />
      <path
         id="path4234"
         style=""
         d="m 2287.0785,-388.89978 q 1.9226,0 4.5044,-0.38452 2.5818,-0.38452 3.9001,-0.87891 l 0,7.58057 q -1.3733,0.60425 -4.2846,1.15356 -2.8565,0.60425 -5.8228,0.60425 -17.688,0 -17.688,-18.62183 l 0,-35.10131 -8.5144,0 0,-4.72412 8.6243,-3.95508 3.9551,-12.85401 5.8776,0 0,13.84278 17.4134,0 0,7.69043 -17.4134,0 0,34.82666 q 0,5.2185 2.472,8.02002 2.5268,2.80151 6.9763,2.80151 z" />
      <path
         id="path4236"
         style=""
         d="m 2346.8441,-398.56775 q 0,8.45947 -6.3171,13.12866 -6.3172,4.61426 -17.7429,4.61426 -11.9202,0 -18.9515,-3.79028 l 0,-9.00879 q 9.9427,4.83398 19.1712,4.83398 7.4707,0 10.8764,-2.41699 3.4058,-2.41699 3.4058,-6.48193 0,-3.57056 -3.2959,-6.04248 -3.241,-2.47193 -11.5906,-5.65796 -8.5144,-3.2959 -11.9751,-5.60303 -3.4607,-2.36206 -5.1086,-5.27344 -1.593,-2.91137 -1.593,-7.08618 0,-7.41577 6.0425,-11.70044 6.0424,-4.28467 16.5893,-4.28467 10.2722,0 19.2261,4.06495 l -3.3508,7.85522 q -9.1736,-3.84521 -16.5345,-3.84521 -6.1523,0 -9.3383,1.97753 -3.1861,1.92261 -3.1861,5.32837 0,3.2959 2.7466,5.49317 2.7466,2.14233 12.7991,5.98755 7.5256,2.80151 11.0962,5.2185 3.6255,2.41699 5.3283,5.43823 1.7029,3.02124 1.7029,7.25098 z" />
    </g>
    <g
       id="text4175"
       style="font-style:normal;font-variant:normal;font-weight:normal;font-stretch:normal;font-size:90px;line-height:100%;font-family:'Noto Sans';-inkscape-font-specification:'Noto Sans, Normal';text-align:start;letter-spacing:0px;word-spacing:0px;writing-mode:lr-tb;text-anchor:start;fill:#000000;fill-opacity:1;stroke:none;stroke-width:1px;stroke-linecap:butt;stroke-linejoin:miter;stroke-opacity:1">
      <path
         id="path4254"
         style=""
         d="m 563.87909,-159.06647 -7.73438,-19.90722 -25.48828,0 -7.64648,19.90722 -8.17383,0 25.09277,-64.51172 7.29493,0 25.04882,64.51172 -8.39355,0 z m -10.15137,-27.07031 -7.20703,-19.46777 -3.07617,-9.62403 q -1.31836,5.27344 -2.76856,9.62403 l -7.29492,19.46777 20.34668,0 z" />
      <path
         id="path4256"
         style=""
         d="m 611.38397,-172.3819 q 0,6.76758 -5.05371,10.50293 -5.05371,3.69141 -14.19433,3.69141 -9.53614,0 -15.16114,-3.03223 l 0,-7.20703 q 7.9541,3.86719 15.33692,3.86719 5.97656,0 8.70117,-1.9336 2.72461,-1.93359 2.72461,-5.18554 0,-2.85645 -2.63672,-4.83399 -2.59277,-1.97754 -9.27246,-4.52636 -6.81153,-2.63672 -9.58008,-4.48243 -2.76855,-1.88964 -4.08691,-4.21875 -1.27442,-2.3291 -1.27442,-5.66894 0,-5.93262 4.83399,-9.36035 4.83398,-3.42774 13.27148,-3.42774 8.21777,0 15.38086,3.25196 l -2.68066,6.28418 q -7.33887,-3.07618 -13.22754,-3.07618 -4.92188,0 -7.47071,1.58204 -2.54882,1.53808 -2.54882,4.26269 0,2.63672 2.19726,4.39453 2.19727,1.71387 10.23926,4.79004 6.02051,2.24121 8.87695,4.17481 2.90039,1.93359 4.2627,4.35058 1.3623,2.41699 1.3623,5.80078 z" />
      <path
         id="path4258"
         style=""
         d="m 654.45038,-172.3819 q 0,6.76758 -5.05371,10.50293 -5.05371,3.69141 -14.19434,3.69141 -9.53613,0 -15.16113,-3.03223 l 0,-7.20703 q 7.9541,3.86719 15.33691,3.86719 5.97657,0 8.70117,-1.9336 2.72461,-1.93359 2.72461,-5.18554 0,-2.85645 -2.63671,-4.83399 -2.59278,-1.97754 -9.27247,-4.52636 -6.81152,-2.63672 -9.58007,-4.48243 -2.76856,-1.88964 -4.08692,-4.21875 -1.27441,-2.3291 -1.27441,-5.66894 0,-5.93262 4.83398,-9.36035 4.83399,-3.42774 13.27149,-3.42774 8.21777,0 15.38086,3.25196 l -2.68067,6.28418 q -7.33887,-3.07618 -13.22754,-3.07618 -4.92187,0 -7.4707,1.58204 -2.54883,1.53808 -2.54883,4.26269 0,2.63672 2.19727,4.39453 2.19726,1.71387 10.23926,4.79004 6.0205,2.24121 8.87695,4.17481 2.90039,1.93359 4.26269,4.35058 1.36231,2.41699 1.36231,5.80078 z" />
      <path
         id="path4260"
         style=""
         d="m 674.00604,-159.06647 -7.91015,0 0,-48.25195 7.91015,0 0,48.25195 z m -8.52539,-61.30371 q 0,-2.63672 1.31836,-3.82324 1.36231,-1.18652 3.33984,-1.18652 1.84571,0 3.20801,1.18652 1.40625,1.18652 1.40625,3.82324 0,2.59278 -1.40625,3.82324 -1.3623,1.23047 -3.20801,1.23047 -1.97753,0 -3.33984,-1.23047 -1.31836,-1.23046 -1.31836,-3.82324 z" />
      <path
         id="path4262"
         style=""
         d="m 707.66815,-164.64752 q 7.29492,0 10.59082,-3.91113 3.33985,-3.95508 3.33985,-12.65625 l 0,-1.88965 q 0,-9.66797 -3.33985,-14.0625 -3.33984,-4.39453 -10.7666,-4.39453 -6.06445,0 -9.4043,4.83398 -3.29589,4.79004 -3.29589,13.71094 0,8.96484 3.208,13.66699 3.25196,4.70215 9.66797,4.70215 z m 13.84278,5.1416 0.26367,-5.93262 -0.35157,0 q -4.87793,7.25098 -14.9414,7.25098 -9.36035,0 -14.63379,-6.50391 -5.22949,-6.54785 -5.22949,-18.41308 0,-11.64551 5.27343,-18.36914 5.31739,-6.72364 14.50196,-6.72364 9.7998,0 15.11719,7.29493 l 0.48339,0 1.05469,-6.41602 6.28418,0 0,49.04297 q 0,10.37109 -5.27344,15.60058 -5.22949,5.2295 -16.30371,5.2295 -10.54687,0 -17.3584,-3.07618 l 0,-7.29492 q 7.03125,3.7793 17.79786,3.7793 6.15234,0 9.71191,-3.60352 3.60352,-3.60351 3.60352,-9.97558 l 0,-1.88965 z" />
      <path
         id="path4264"
         style=""
         d="m 777.5412,-159.06647 0,-30.84961 q 0,-5.88867 -2.63672,-8.74511 -2.59277,-2.90039 -8.17383,-2.90039 -7.42676,0 -10.81055,4.13085 -3.33984,4.08692 -3.33984,13.35938 l 0,25.00488 -7.91016,0 0,-48.25195 6.37208,0 1.18652,6.5918 0.43945,0 q 2.24121,-3.55957 6.28418,-5.49317 4.04297,-1.97754 8.9209,-1.97754 8.87695,0 13.18359,4.30664 4.30664,4.30664 4.30664,13.40332 l 0,31.4209 -7.82226,0 z" />
      <path
         id="path4266"
         style=""
         d="m 861.78436,-159.06647 0,-31.06933 q 0,-11.42578 -9.7998,-11.42578 -6.72363,0 -9.8877,3.91113 -3.16406,3.91113 -3.16406,11.95312 l 0,26.63086 -7.86621,0 0,-31.06933 q 0,-5.71289 -2.41699,-8.56934 -2.37305,-2.85644 -7.47071,-2.85644 -6.67968,0 -9.7998,4.08691 -3.07617,4.08691 -3.07617,13.40332 l 0,25.00488 -7.91016,0 0,-48.25195 6.37207,0 1.18652,6.5918 0.43946,0 q 2.06543,-3.51563 5.80078,-5.49317 3.7793,-1.97754 8.4375,-1.97754 11.33789,0 14.76562,8.08594 l 0.43946,0 q 2.3291,-3.86719 6.32812,-5.97656 4.04297,-2.10938 9.14063,-2.10938 8.17383,0 12.21679,4.21875 4.08692,4.21875 4.08692,13.49121 l 0,31.4209 -7.82227,0 z" />
      <path
         id="path4268"
         style=""
         d="m 905.11444,-158.18756 q -10.85449,0 -17.05078,-6.54785 -6.15234,-6.5918 -6.15234,-18.10547 0,-11.60156 5.75683,-18.45703 5.75684,-6.89942 15.55664,-6.89942 9.09668,0 14.50196,5.88868 5.40527,5.84472 5.40527,15.86425 l 0,4.79004 -33.04688,0 q 0.21973,8.21778 4.17481,12.48047 3.95508,4.2627 11.20605,4.2627 3.86719,0 7.33887,-0.65918 3.47168,-0.70313 8.12988,-2.68067 l 0,6.94336 q -3.99902,1.71387 -7.51465,2.41699 -3.51562,0.70313 -8.30566,0.70313 z m -1.97754,-43.54981 q -5.66894,0 -8.96484,3.64747 -3.2959,3.64746 -3.91113,10.15136 l 24.56542,0 q -0.0879,-6.76758 -3.12011,-10.2832 -3.03223,-3.51563 -8.56934,-3.51563 z" />
      <path
         id="path4270"
         style=""
         d="m 968.26385,-159.06647 0,-30.84961 q 0,-5.88867 -2.63671,-8.74511 -2.59278,-2.90039 -8.17383,-2.90039 -7.42676,0 -10.81055,4.13085 -3.33984,4.08692 -3.33984,13.35938 l 0,25.00488 -7.91016,0 0,-48.25195 6.37207,0 1.18652,6.5918 0.43946,0 q 2.24121,-3.55957 6.28418,-5.49317 4.04297,-1.97754 8.9209,-1.97754 8.87695,0 13.18359,4.30664 4.30664,4.30664 4.30664,13.40332 l 0,31.4209 -7.82227,0 z" />
      <path
         id="path4272"
         style=""
         d="m 1007.2433,-164.64752 q 1.5381,0 3.6036,-0.30762 2.0654,-0.30762 3.1201,-0.70312 l 0,6.06445 q -1.0987,0.4834 -3.4278,0.92285 -2.2851,0.4834 -4.6582,0.4834 -14.15035,0 -14.15035,-14.89746 l 0,-28.08106 -6.81152,0 0,-3.77929 6.89941,-3.16407 3.16406,-10.2832 4.70215,0 0,11.07422 13.93065,0 0,6.15234 -13.93065,0 0,27.86133 q 0,4.17481 1.97755,6.41602 2.0215,2.24121 5.581,2.24121 z" />
    </g>
    <path
       id="path4179"
       d="m 1094.2857,-121.92357 628.5715,160"
       style="fill:none;fill-rule:evenodd;stroke:#000000;stroke-width:10;stroke-linecap:butt;stroke-linejoin:miter;stroke-miterlimit:4;stroke-dasharray:none;stroke-opacity:1;marker-end:url(#Arrow2Mend)" />
    <g
       id="text4967"
       style="font-style:normal;font-variant:normal;font-weight:normal;font-stretch:normal;font-size:90px;line-height:100%;font-family:'Noto Sans';-inkscape-font-specification:'Noto Sans, Normal';text-align:start;letter-spacing:0px;word-spacing:0px;writing-mode:lr-tb;text-anchor:start;fill:#000000;fill-opacity:1;stroke:none;stroke-width:1px;stroke-linecap:butt;stroke-linejoin:miter;stroke-opacity:1">
      <path
         id="path4204"
         style=""
         d="m 1938.6306,146.64786 -8.0859,0 0,-29.97071 -32.959,0 0,29.97071 -8.0859,0 0,-64.248049 8.0859,0 0,27.158199 32.959,0 0,-27.158199 8.0859,0 0,64.248049 z" />
      <path
         id="path4206"
         style=""
         d="m 1997.1218,122.43399 q 0,11.82129 -5.9765,18.45703 -5.9766,6.63574 -16.5235,6.63574 -6.5478,0 -11.6015,-3.03222 -5.0537,-3.07617 -7.7784,-8.78907 -2.7246,-5.71289 -2.7246,-13.27148 0,-11.77734 5.8887,-18.32519 5.8887,-6.591802 16.5234,-6.591802 10.1954,0 16.1719,6.723632 6.0205,6.67969 6.0205,18.19336 z m -36.4306,0 q 0,9.09668 3.5595,13.84277 3.6035,4.70215 10.5909,4.70215 6.8994,0 10.5029,-4.70215 3.6035,-4.74609 3.6035,-13.84277 0,-9.09668 -3.6475,-13.66699 -3.6035,-4.61426 -10.5908,-4.61426 -14.0185,0 -14.0185,18.28125 z" />
      <path
         id="path4208"
         style=""
         d="m 2071.0818,146.64786 0,-31.06934 q 0,-11.42578 -9.7998,-11.42578 -6.7237,0 -9.8877,3.91113 -3.1641,3.91114 -3.1641,11.95313 l 0,26.63086 -7.8662,0 0,-31.06934 q 0,-5.71289 -2.417,-8.56933 -2.373,-2.85645 -7.4707,-2.85645 -6.6797,0 -9.7998,4.08691 -3.0762,4.08692 -3.0762,13.40332 l 0,25.00489 -7.9101,0 0,-48.251955 6.3721,0 1.1865,6.591795 0.4394,0 q 2.0655,-3.51562 5.8008,-5.493163 3.7793,-1.977539 8.4375,-1.977539 11.3379,0 14.7656,8.085942 l 0.4395,0 q 2.3291,-3.86719 6.3281,-5.976567 4.043,-2.109375 9.1406,-2.109375 8.1739,0 12.2168,4.218752 4.087,4.21875 4.087,13.49121 l 0,31.4209 -7.8223,0 z" />
      <path
         id="path4210"
         style=""
         d="m 2114.4119,147.52676 q -10.8545,0 -17.0508,-6.54785 -6.1524,-6.59179 -6.1524,-18.10547 0,-11.60156 5.7569,-18.45703 5.7568,-6.899412 15.5566,-6.899412 9.0967,0 14.502,5.888672 5.4052,5.84473 5.4052,15.86426 l 0,4.79004 -33.0468,0 q 0.2197,8.21777 4.1748,12.48047 3.9551,4.26269 11.206,4.26269 3.8672,0 7.3389,-0.65918 3.4717,-0.70312 8.1299,-2.68066 l 0,6.94336 q -3.999,1.71386 -7.5147,2.41699 -3.5156,0.70312 -8.3056,0.70312 z m -1.9776,-43.5498 q -5.6689,0 -8.9648,3.64746 -3.2959,3.64746 -3.9112,10.15137 l 24.5655,0 q -0.088,-6.76758 -3.1201,-10.28321 -3.0323,-3.51562 -8.5694,-3.51562 z" />
      <path
         id="path4213"
         style=""
         d="m 2183.2302,146.64786 -8.2617,-27.15821 q -1.1426,-3.38378 -3.3398,-12.78808 l -0.3516,0 q -1.8457,8.56933 -3.252,12.87598 l -8.6572,27.07031 -8.9648,0 -13.2276,-48.251955 8.1739,0 q 4.5703,17.797855 6.9433,27.070315 2.417,9.27246 2.8565,13.0957 l 0.3515,0 0.6153,-2.72461 q 1.3623,-6.28418 2.6367,-10.23926 l 8.5693,-27.202145 8.6133,0 8.3057,27.202145 q 0.4394,1.53809 0.9228,3.2959 0.5274,1.71387 0.9668,3.42774 0.4395,1.66992 0.791,3.29589 0.3516,1.58204 0.5274,2.85645 l 0.3955,0 q 0.3955,-3.33984 3.208,-14.32617 l 6.7676,-25.751955 8.0859,0 -13.4033,48.251955 -9.2725,0 z" />
      <path
         id="path4215"
         style=""
         d="m 2256.575,122.43399 q 0,11.82129 -5.9766,18.45703 -5.9766,6.63574 -16.5234,6.63574 -6.5479,0 -11.6016,-3.03222 -5.0537,-3.07617 -7.7783,-8.78907 -2.7246,-5.71289 -2.7246,-13.27148 0,-11.77734 5.8886,-18.32519 5.8887,-6.591802 16.5235,-6.591802 10.1953,0 16.1718,6.723632 6.0206,6.67969 6.0206,18.19336 z m -36.4307,0 q 0,9.09668 3.5596,13.84277 3.6035,4.70215 10.5908,4.70215 6.8994,0 10.5029,-4.70215 3.6035,-4.74609 3.6035,-13.84277 0,-9.09668 -3.6474,-13.66699 -3.6036,-4.61426 -10.5909,-4.61426 -14.0185,0 -14.0185,18.28125 z" />
      <path
         id="path4217"
         style=""
         d="m 2291.6433,97.516998 q 3.208,0 5.669,0.527344 l -0.9668,7.294918 q -2.6807,-0.61523 -5.2295,-0.61523 -3.8233,0 -7.1192,2.10937 -3.2519,2.10938 -5.0976,5.84473 -1.8457,3.69141 -1.8457,8.21777 l 0,25.75196 -7.9102,0 0,-48.251955 6.5039,0 0.8789,8.833005 0.3516,0 q 2.7685,-4.79004 6.5478,-7.250974 3.7793,-2.460938 8.2178,-2.460938 z" />
      <path
         id="path4219"
         style=""
         d="m 2314.2312,121.81876 2.6807,-3.42774 3.0761,-3.6914 15.4248,-16.303715 9.2286,0 -19.5118,20.610355 20.8741,27.6416 -9.5362,0 -16.7431,-22.5 -5.4932,4.79004 0,17.70996 -7.8223,0 0,-68.378909 7.8223,0 0,35.727539 -0.3516,7.82227 0.3516,0 z" />
    </g>
    <path
       id="path4179-7"
       d="m 1743.8926,211.52262 -628.5714,160"
       style="fill:none;fill-rule:evenodd;stroke:#000000;stroke-width:10;stroke-linecap:butt;stroke-linejoin:miter;stroke-miterlimit:4;stroke-dasharray:none;stroke-opacity:1;marker-end:url(#Arrow2Mend-3)" />
    <g
       id="text4175-5"
       style="font-style:normal;font-variant:normal;font-weight:normal;font-stretch:normal;font-size:90px;line-height:100%;font-family:'Noto Sans';-inkscape-font-specification:'Noto Sans, Normal';text-align:start;letter-spacing:0px;word-spacing:0px;writing-mode:lr-tb;text-anchor:start;fill:#000000;fill-opacity:1;stroke:none;stroke-width:1px;stroke-linecap:butt;stroke-linejoin:miter;stroke-opacity:1">
      <path
         id="path4239"
         style=""
         d="m 631.11542,470.10257 22.19238,0 0,31.50879 q -5.09766,1.62598 -10.37109,2.46094 -5.27344,0.83496 -12.2168,0.83496 -14.67773,0 -22.71973,-8.70117 -8.04199,-8.70118 -8.04199,-24.30176 0,-10.06348 3.99902,-17.57813 3.99903,-7.51465 11.51368,-11.46972 7.55859,-3.99903 17.79785,-3.99903 10.2832,0 19.16015,3.7793 l -3.07617,7.03125 q -8.48144,-3.69141 -16.56738,-3.69141 -11.46973,0 -17.92969,6.94336 -6.45996,6.94336 -6.45996,18.98438 0,12.74414 6.19629,19.37988 6.19629,6.63574 18.01758,6.63574 6.45996,0 12.6123,-1.53808 l 0,-19.07227 -14.10644,0 0,-7.20703 z" />
      <path
         id="path4241"
         style=""
         d="m 690.17792,454.89749 q 3.20801,0 5.66894,0.52735 l -0.96679,7.29492 q -2.68067,-0.61524 -5.2295,-0.61524 -3.82324,0 -7.11914,2.10938 -3.25195,2.10937 -5.09765,5.84472 -1.84571,3.69141 -1.84571,8.21778 l 0,25.75195 -7.91015,0 0,-48.25195 6.5039,0 0.87891,8.83301 0.35156,0 q 2.76856,-4.79004 6.54785,-7.25098 3.7793,-2.46094 8.21778,-2.46094 z" />
      <path
         id="path4243"
         style=""
         d="m 733.85956,504.02835 -1.53809,-6.85547 -0.35156,0 q -3.60352,4.52637 -7.20703,6.15235 -3.55957,1.58203 -9.00879,1.58203 -7.11914,0 -11.16211,-3.73535 -4.04297,-3.73536 -4.04297,-10.54688 0,-14.67773 23.15918,-15.38086 l 8.17383,-0.30762 0,-2.85644 q 0,-5.49317 -2.37305,-8.08594 -2.37304,-2.63672 -7.60254,-2.63672 -3.82324,0 -7.25097,1.14258 -3.38379,1.14258 -6.37207,2.54883 l -2.417,-5.93262 q 3.64746,-1.93359 7.95411,-3.03223 4.30664,-1.09863 8.52539,-1.09863 8.74511,0 13.00781,3.86719 4.26269,3.86719 4.26269,12.30469 l 0,32.87109 -5.75683,0 z m -16.30371,-5.49316 q 6.63574,0 10.41504,-3.55957 3.82324,-3.60352 3.82324,-10.19532 l 0,-4.35058 -7.11914,0.30762 q -8.30567,0.30761 -12.12891,2.63671 -3.7793,2.32911 -3.7793,7.33887 0,3.7793 2.28516,5.80078 2.3291,2.02149 6.50391,2.02149 z" />
      <path
         id="path4245"
         style=""
         d="m 771.60858,504.90726 q -9.4043,0 -14.58984,-6.50391 -5.18555,-6.50391 -5.18555,-18.41309 0,-11.82128 5.18555,-18.45703 5.22949,-6.63574 14.67773,-6.63574 9.71192,0 14.94141,7.11914 l 0.57129,0 q -0.13184,-0.8789 -0.35157,-3.51562 -0.21972,-2.68067 -0.21972,-3.60352 l 0,-19.24805 7.91015,0 0,68.37891 -6.37207,0 -1.18652,-6.45996 -0.35156,0 q -5.05371,7.33887 -15.0293,7.33887 z m 1.27442,-6.54785 q 7.20703,0 10.50293,-3.91114 3.33984,-3.95508 3.33984,-12.91992 l 0,-1.45019 q 0,-10.06348 -3.38379,-14.32618 -3.33984,-4.30664 -10.54688,-4.30664 -6.10839,0 -9.44824,4.87793 -3.33984,4.83399 -3.33984,13.84278 0,8.96484 3.2959,13.5791 3.33984,4.61426 9.58008,4.61426 z" />
      <path
         id="path4247"
         style=""
         d="m 817.7951,504.02835 -7.91015,0 0,-48.25195 7.91015,0 0,48.25195 z m -8.52539,-61.30371 q 0,-2.63672 1.31836,-3.82324 1.36231,-1.18653 3.33985,-1.18653 1.8457,0 3.20801,1.18653 1.40625,1.18652 1.40625,3.82324 0,2.59277 -1.40625,3.82324 -1.36231,1.23047 -3.20801,1.23047 -1.97754,0 -3.33985,-1.23047 -1.31836,-1.23047 -1.31836,-3.82324 z" />
      <path
         id="path4249"
         style=""
         d="m 865.95917,504.02835 0,-30.84961 q 0,-5.88867 -2.63672,-8.74512 -2.59277,-2.90039 -8.17383,-2.90039 -7.42676,0 -10.81055,4.13086 -3.33984,4.08692 -3.33984,13.35938 l 0,25.00488 -7.91016,0 0,-48.25195 6.37207,0 1.18653,6.59179 0.43945,0 q 2.24121,-3.55957 6.28418,-5.49316 4.04297,-1.97754 8.9209,-1.97754 8.87695,0 13.18359,4.30664 4.30664,4.30664 4.30664,13.40332 l 0,31.4209 -7.82226,0 z" />
      <path
         id="path4251"
         style=""
         d="m 907.17987,498.4473 q 7.29492,0 10.59082,-3.91114 3.33984,-3.95507 3.33984,-12.65625 l 0,-1.88965 q 0,-9.66796 -3.33984,-14.0625 -3.33984,-4.39453 -10.7666,-4.39453 -6.06445,0 -9.4043,4.83399 -3.2959,4.79004 -3.2959,13.71094 0,8.96484 3.20801,13.66699 3.25195,4.70215 9.66797,4.70215 z m 13.84277,5.1416 0.26368,-5.93262 -0.35157,0 q -4.87793,7.25098 -14.9414,7.25098 -9.36035,0 -14.63379,-6.50391 -5.22949,-6.54785 -5.22949,-18.41309 0,-11.6455 5.27343,-18.36914 5.31739,-6.72363 14.50196,-6.72363 9.7998,0 15.11718,7.29492 l 0.4834,0 1.05469,-6.41601 6.28418,0 0,49.04297 q 0,10.37109 -5.27344,15.60058 -5.22949,5.22949 -16.30371,5.22949 -10.54687,0 -17.3584,-3.07617 l 0,-7.29492 q 7.03125,3.7793 17.79785,3.7793 6.15235,0 9.71192,-3.60352 3.60351,-3.60351 3.60351,-9.97558 l 0,-1.88965 z" />
    </g>
    <path
       id="path4179-9"
       d="m 1104.6789,580.09406 628.5714,159.99999"
       style="fill:none;fill-rule:evenodd;stroke:#000000;stroke-width:10;stroke-linecap:butt;stroke-linejoin:miter;stroke-miterlimit:4;stroke-dasharray:none;stroke-opacity:1;marker-end:url(#Arrow2Mend-5)" />
    <g
       id="text4967-1"
       style="font-style:normal;font-variant:normal;font-weight:normal;font-stretch:normal;font-size:70px;line-height:100%;font-family:'Noto Sans';-inkscape-font-specification:'Noto Sans, Normal';text-align:start;letter-spacing:0px;word-spacing:0px;writing-mode:lr-tb;text-anchor:start;fill:#000000;fill-opacity:1;stroke:none;stroke-width:1px;stroke-linecap:butt;stroke-linejoin:miter;stroke-opacity:1">
      <path
         id="path4186"
         style="font-size:90px"
         d="m 1930.1931,827.18365 -8.0859,0 0,-64.24804 35.9033,0 0,7.11914 -27.8174,0 0,22.76367 26.1035,0 0,7.0752 -26.1035,0 0,27.29003 z" />
      <path
         id="path4189"
         style="font-size:90px"
         d="m 1988.2888,828.06256 q -10.8545,0 -17.0508,-6.54785 -6.1523,-6.5918 -6.1523,-18.10547 0,-11.60156 5.7568,-18.45703 5.7569,-6.89941 15.5567,-6.89941 9.0966,0 14.5019,5.88867 5.4053,5.84472 5.4053,15.86426 l 0,4.79003 -33.0469,0 q 0.2197,8.21778 4.1748,12.48047 3.9551,4.2627 11.2061,4.2627 3.8672,0 7.3388,-0.65918 3.4717,-0.70313 8.1299,-2.68067 l 0,6.94336 q -3.999,1.71387 -7.5146,2.417 -3.5156,0.70312 -8.3057,0.70312 z m -1.9775,-43.5498 q -5.669,0 -8.9649,3.64746 -3.2959,3.64746 -3.9111,10.15136 l 24.5654,0 q -0.088,-6.76757 -3.1201,-10.2832 -3.0322,-3.51562 -8.5693,-3.51562 z" />
      <path
         id="path4191"
         style="font-size:90px"
         d="m 2039.0896,828.06256 q -10.8545,0 -17.0508,-6.54785 -6.1523,-6.5918 -6.1523,-18.10547 0,-11.60156 5.7568,-18.45703 5.7568,-6.89941 15.5567,-6.89941 9.0966,0 14.5019,5.88867 5.4053,5.84472 5.4053,15.86426 l 0,4.79003 -33.0469,0 q 0.2197,8.21778 4.1748,12.48047 3.9551,4.2627 11.2061,4.2627 3.8671,0 7.3388,-0.65918 3.4717,-0.70313 8.1299,-2.68067 l 0,6.94336 q -3.999,1.71387 -7.5146,2.417 -3.5157,0.70312 -8.3057,0.70312 z m -1.9775,-43.5498 q -5.669,0 -8.9649,3.64746 -3.2959,3.64746 -3.9111,10.15136 l 24.5654,0 q -0.088,-6.76757 -3.1201,-10.2832 -3.0322,-3.51562 -8.5693,-3.51562 z" />
      <path
         id="path4193"
         style="font-size:90px"
         d="m 2086.4626,828.06256 q -9.4043,0 -14.5898,-6.50391 -5.1855,-6.5039 -5.1855,-18.41308 0,-11.82129 5.1855,-18.45703 5.2295,-6.63574 14.6777,-6.63574 9.712,0 14.9414,7.11914 l 0.5713,0 q -0.1318,-0.87891 -0.3515,-3.51563 -0.2198,-2.68066 -0.2198,-3.60351 l 0,-19.24805 7.9102,0 0,68.3789 -6.3721,0 -1.1865,-6.45996 -0.3516,0 q -5.0537,7.33887 -15.0293,7.33887 z m 1.2745,-6.54785 q 7.207,0 10.5029,-3.91113 3.3398,-3.95508 3.3398,-12.91993 l 0,-1.45019 q 0,-10.06348 -3.3838,-14.32617 -3.3398,-4.30664 -10.5468,-4.30664 -6.1084,0 -9.4483,4.87793 -3.3398,4.83398 -3.3398,13.84277 0,8.96484 3.2959,13.5791 3.3398,4.61426 9.5801,4.61426 z" />
      <path
         id="path4195"
         style="font-size:90px"
         d="m 2147.5906,778.14069 q 9.5361,0 14.7217,6.59179 5.1855,6.54785 5.1855,18.3252 0,11.95312 -5.2734,18.50097 -5.2735,6.50391 -14.6338,6.50391 -4.878,0 -8.7012,-1.75781 -3.8232,-1.75781 -6.2402,-5.22949 l -0.6153,0 q -1.3623,5.27343 -1.6259,6.10839 l -5.669,0 0,-68.3789 7.9102,0 0,16.61133 q 0,4.96582 -0.4395,9.93164 l 0.4395,0 q 4.8779,-7.20703 14.9414,-7.20703 z m -1.3184,6.54785 q -7.2949,0 -10.459,4.13086 -3.164,4.13086 -3.164,13.97461 l 0,0.35156 q 0,9.88769 3.208,14.15039 3.2519,4.21875 10.5908,4.21875 6.5039,0 9.668,-4.74609 3.208,-4.79004 3.208,-13.79883 0,-9.14063 -3.208,-13.71094 -3.208,-4.57031 -9.8438,-4.57031 z" />
      <path
         id="path4197"
         style="font-size:90px"
         d="m 2209.905,827.18365 -1.5381,-6.85546 -0.3515,0 q -3.6035,4.52636 -7.2071,6.15234 -3.5595,1.58203 -9.0087,1.58203 -7.1192,0 -11.1621,-3.73535 -4.043,-3.73535 -4.043,-10.54688 0,-14.67773 23.1592,-15.38085 l 8.1738,-0.30762 0,-2.85645 q 0,-5.49316 -2.3731,-8.08593 -2.373,-2.63672 -7.6025,-2.63672 -3.8232,0 -7.251,1.14257 -3.3838,1.14258 -6.372,2.54883 l -2.417,-5.93261 q 3.6474,-1.9336 7.9541,-3.03223 4.3066,-1.09863 8.5254,-1.09863 8.7451,0 13.0078,3.86718 4.2627,3.86719 4.2627,12.30469 l 0,32.87109 -5.7569,0 z m -16.3037,-5.49316 q 6.6358,0 10.4151,-3.55957 3.8232,-3.60352 3.8232,-10.19531 l 0,-4.35059 -7.1191,0.30762 q -8.3057,0.30762 -12.1289,2.63672 -3.7793,2.3291 -3.7793,7.33887 0,3.77929 2.2851,5.80078 2.3291,2.02148 6.5039,2.02148 z" />
      <path
         id="path4199"
         style="font-size:90px"
         d="m 2249.8953,828.06256 q -10.4151,0 -16.2159,-6.37207 -5.8007,-6.41601 -5.8007,-18.36914 0,-12.12891 5.8447,-18.67676 5.8887,-6.59179 16.7432,-6.59179 3.5156,0 6.9433,0.74707 3.4717,0.70312 5.7129,1.8457 l -2.417,6.5918 q -6.1084,-2.28516 -10.415,-2.28516 -7.295,0 -10.7666,4.61426 -3.4717,4.57031 -3.4717,13.66699 0,8.74512 3.4717,13.40332 3.4716,4.61426 10.2832,4.61426 6.372,0 12.5244,-2.8125 l 0,7.03125 q -5.0098,2.59277 -12.4365,2.59277 z" />
      <path
         id="path4201"
         style="font-size:90px"
         d="m 2281.6238,802.35455 2.6806,-3.42773 3.0762,-3.69141 15.4248,-16.30371 9.2285,0 -19.5117,20.61035 20.874,27.6416 -9.5361,0 -16.7432,-22.5 -5.4931,4.79004 0,17.70996 -7.8223,0 0,-68.3789 7.8223,0 0,35.72754 -0.3516,7.82226 0.3516,0 z" />
    </g>
    <flowRoot
       style="font-style:normal;font-variant:normal;font-weight:normal;font-stretch:normal;font-size:70px;line-height:100%;font-family:'Noto Sans';-inkscape-font-specification:'Noto Sans, Normal';text-align:start;letter-spacing:0px;word-spacing:0px;writing-mode:lr-tb;text-anchor:start;fill:#000000;fill-opacity:1;stroke:none;stroke-width:1px;stroke-linecap:butt;stroke-linejoin:miter;stroke-opacity:1"
       id="flowRoot5957"
       xml:space="preserve"><flowRegion
         id="flowRegion5959"><rect
           y="497.41269"
           x="1608.5714"
           height="1305.7142"
           width="937.14288"
           id="rect5961" /></flowRegion><flowPara
         id="flowPara5963" /></flowRoot>  </g>
</svg>
