<?xml version="1.0" encoding="UTF-8" standalone="no"?>
<!-- Created with Inkscape (http://www.inkscape.org/) -->

<svg
   xmlns:dc="http://purl.org/dc/elements/1.1/"
   xmlns:cc="http://creativecommons.org/ns#"
   xmlns:rdf="http://www.w3.org/1999/02/22-rdf-syntax-ns#"
   xmlns:svg="http://www.w3.org/2000/svg"
   xmlns="http://www.w3.org/2000/svg"
   xmlns:sodipodi="http://sodipodi.sourceforge.net/DTD/sodipodi-0.dtd"
   xmlns:inkscape="http://www.inkscape.org/namespaces/inkscape"
   width="93.689163"
   height="93.689163"
   viewBox="0 0 93.689164 93.689166"
   id="svg4175"
   version="1.1"
   inkscape:version="0.91 r13725"
   sodipodi:docname="open-cocalc-logo.svg">
  <defs
     id="defs4177" />
  <sodipodi:namedview
     id="base"
     pagecolor="#ffffff"
     bordercolor="#666666"
     borderopacity="1.0"
     inkscape:pageopacity="0.0"
     inkscape:pageshadow="2"
     inkscape:zoom="5.6"
     inkscape:cx="-19.029788"
     inkscape:cy="20.462406"
     inkscape:document-units="px"
     inkscape:current-layer="layer1"
     showgrid="false"
     fit-margin-top="0"
     fit-margin-left="0"
     fit-margin-right="0"
     fit-margin-bottom="0"
     inkscape:window-width="2560"
     inkscape:window-height="1410"
     inkscape:window-x="0"
     inkscape:window-y="1110"
     inkscape:window-maximized="1"
     units="px" />
  <metadata
     id="metadata4180">
    <rdf:RDF>
      <cc:Work
         rdf:about="">
        <dc:format>image/svg+xml</dc:format>
        <dc:type
           rdf:resource="http://purl.org/dc/dcmitype/StillImage" />
        <dc:title></dc:title>
      </cc:Work>
    </rdf:RDF>
  </metadata>
  <g
     inkscape:label="Layer 1"
     inkscape:groupmode="layer"
     id="layer1"
     transform="translate(101.13029,-271.73058)">
    <g
       transform="scale(1.0014175,0.99858451)"
       style="font-style:normal;font-variant:normal;font-weight:normal;font-stretch:normal;font-size:19.55169678px;line-height:100%;font-family:CoCalc;-inkscape-font-specification:CoCalc;text-align:start;letter-spacing:0px;word-spacing:0px;writing-mode:lr-tb;text-anchor:start;fill:#434343;fill-opacity:1;stroke:none;stroke-width:1px;stroke-linecap:butt;stroke-linejoin:miter;stroke-opacity:1"
       id="text4155">
      <path
         d="m -91.423171,362.73782 c 0.997137,0.25417 2.052928,0.29328 3.10872,0.0978 1.055792,-0.19552 2.013825,-0.54745 2.874099,-1.11445 l -2.346203,-1.68144 c -0.703861,0.37148 -2.111583,0.39103 -3.050065,0.17596 -0.664758,-0.15641 -1.27086,-0.43013 -1.818308,-0.84072 -0.547447,-0.39103 -0.997136,-0.84072 -1.38817,-1.40772 -0.391034,-0.58655 -0.625654,-1.23176 -0.762516,-1.93562 -0.136862,-0.70386 -0.09776,-1.38817 0.05866,-2.07248 0.156413,-0.66476 0.430137,-1.29041 0.821171,-1.81831 0.391034,-0.54744 0.840723,-0.99713 1.427274,-1.38817 0.566999,-0.37148 1.231757,-0.6061 1.935618,-0.74296 1.38817,-0.25417 2.678582,0.0391 3.890788,0.86027 l 1.50548,-2.13113 c -0.840723,-0.58655 -1.759653,-0.97759 -2.756789,-1.23176 -0.997137,-0.25417 -2.033377,-0.27372 -3.089168,-0.0782 -1.055792,0.19552 -2.013825,0.567 -2.8741,1.134 -0.879826,0.567 -1.603239,1.25131 -2.18979,2.09203 -0.566999,0.82117 -0.958033,1.72055 -1.212205,2.71769 -0.254172,1.01669 -0.293275,2.05293 -0.09776,3.10872 0.195517,1.03624 0.547447,1.97472 1.114446,2.85455 0.567,0.87982 1.290412,1.60324 2.111584,2.18979 0.840723,0.567 1.720549,0.95803 2.737237,1.2122 z"
         id="path4740"
         inkscape:connector-curvature="0" />
      <path
         d="m -76.382665,347.33109 c -2.170238,0 -4.008098,0.78206 -5.513578,2.3071 -1.525033,1.52503 -2.3071,3.36289 -2.3071,5.51357 0,2.17024 0.782067,3.98855 2.3071,5.51358 1.525032,1.52503 3.34334,2.3071 5.513578,2.3071 2.170239,0 3.988546,-0.78207 5.513579,-2.3071 1.544584,-1.50548 2.326652,-3.34334 2.326652,-5.51358 0,-2.15068 -0.782068,-3.98854 -2.326652,-5.51357 -1.525033,-1.52504 -3.34334,-2.3071 -5.513579,-2.3071 z m 0,2.61992 c 1.427274,0 2.659031,0.50835 3.675719,1.52503 1.016689,1.01669 1.525033,2.24845 1.525033,3.67572 0,1.42728 -0.488793,2.65903 -1.525033,3.69527 -1.016688,1.01669 -2.248445,1.50549 -3.675719,1.50549 -1.427274,0 -2.678582,-0.4888 -3.69527,-1.50549 -1.016689,-1.01668 -1.505481,-2.26799 -1.505481,-3.69527 0,-1.42727 0.488792,-2.65903 1.505481,-3.67572 1.03624,-1.03624 2.267996,-1.52503 3.69527,-1.52503 z"
         id="path4742"
         inkscape:connector-curvature="0" />
      <path
         d="m -60.777268,362.73782 c 0.997136,0.25417 2.052928,0.29328 3.10872,0.0978 1.055791,-0.19552 2.013824,-0.54745 2.874099,-1.11445 l -2.346204,-1.68144 c -0.703861,0.37148 -2.111583,0.39103 -3.050064,0.17596 -0.664758,-0.15641 -1.270861,-0.43013 -1.818308,-0.84072 -0.547448,-0.39103 -0.997137,-0.84072 -1.388171,-1.40772 -0.391033,-0.58655 -0.625654,-1.23176 -0.762516,-1.93562 -0.136862,-0.70386 -0.09776,-1.38817 0.05866,-2.07248 0.156414,-0.66476 0.430138,-1.29041 0.821172,-1.81831 0.391034,-0.54744 0.840723,-0.99713 1.427274,-1.38817 0.566999,-0.37148 1.231756,-0.6061 1.935618,-0.74296 1.38817,-0.25417 2.678582,0.0391 3.890787,0.86027 l 1.505481,-2.13113 c -0.840723,-0.58655 -1.759653,-0.97759 -2.756789,-1.23176 -0.997137,-0.25417 -2.033377,-0.27372 -3.089169,-0.0782 -1.055791,0.19552 -2.013824,0.567 -2.874099,1.134 -0.879826,0.567 -1.603239,1.25131 -2.18979,2.09203 -0.566999,0.82117 -0.958033,1.72055 -1.212205,2.71769 -0.254172,1.01669 -0.293276,2.05293 -0.09776,3.10872 0.195517,1.03624 0.547448,1.97472 1.114447,2.85455 0.566999,0.87982 1.290412,1.60324 2.111583,2.18979 0.840723,0.567 1.72055,0.95803 2.737238,1.2122 z"
         id="path4744"
         inkscape:connector-curvature="0" />
      <path
         d="m -47.997312,357.77169 2.3071,-4.59465 2.287548,4.59465 2.932755,0 -5.220303,-10.4406 -7.820679,15.64135 2.893651,0 1.329516,-2.61992 1.290412,-2.58083 z m 8.817815,2.60038 -2.893651,0 1.290412,2.60037 2.913202,0 -1.309963,-2.60037 z"
         id="path4746"
         inkscape:connector-curvature="0" />
      <path
         d="m -32.460057,360.35252 -2.600375,2.61992 10.421054,0 0,-2.61992 -7.820679,0 z m -2.600375,-13.02143 0,0.43013 0,11.67237 2.600375,-2.61993 0,-9.05244 0,-0.43013 -2.600375,0 z"
         id="path4748"
         inkscape:connector-curvature="0" />
      <path
         d="m -17.164183,362.73782 c 0.997136,0.25417 2.052928,0.29328 3.108719,0.0978 1.055792,-0.19552 2.013825,-0.54745 2.8741,-1.11445 l -2.346204,-1.68144 c -0.703861,0.37148 -2.111583,0.39103 -3.050064,0.17596 -0.664758,-0.15641 -1.270861,-0.43013 -1.818308,-0.84072 -0.547448,-0.39103 -0.997137,-0.84072 -1.388171,-1.40772 -0.391034,-0.58655 -0.625654,-1.23176 -0.762516,-1.93562 -0.136862,-0.70386 -0.09776,-1.38817 0.05866,-2.07248 0.156414,-0.66476 0.430138,-1.29041 0.821171,-1.81831 0.391034,-0.54744 0.840723,-0.99713 1.427274,-1.38817 0.567,-0.37148 1.231757,-0.6061 1.935618,-0.74296 1.388171,-0.25417 2.678583,0.0391 3.890788,0.86027 l 1.505481,-2.13113 c -0.840723,-0.58655 -1.759653,-0.97759 -2.75679,-1.23176 -0.997136,-0.25417 -2.033376,-0.27372 -3.089168,-0.0782 -1.055791,0.19552 -2.013824,0.567 -2.874099,1.134 -0.879826,0.567 -1.603239,1.25131 -2.18979,2.09203 -0.566999,0.82117 -0.958033,1.72055 -1.212205,2.71769 -0.254172,1.01669 -0.293276,2.05293 -0.09776,3.10872 0.195517,1.03624 0.547448,1.97472 1.114447,2.85455 0.566999,0.87982 1.290412,1.60324 2.111583,2.18979 0.840723,0.567 1.720549,0.95803 2.737238,1.2122 z"
         id="path4750"
         inkscape:connector-curvature="0" />
    </g>
    <g
       id="g4177"
       transform="translate(0,-18.000005)">
      <path
         inkscape:connector-curvature="0"
         id="path4192"
         d="m -55.13029,291.91975 c -1.801173,0 -3.555725,0.18177 -5.251679,0.52684 -1.695953,0.34507 -3.332792,0.85419 -4.889261,1.51008 -1.55647,0.65587 -3.033388,1.46018 -4.416107,2.3926 -1.382722,0.93244 -2.670932,1.99309 -3.84564,3.1678 -1.174705,1.17471 -2.235357,2.46292 -3.167785,3.84562 -0.932426,1.38273 -1.736733,2.85965 -2.392618,4.41613 -0.655882,1.55646 -1.164991,3.19329 -1.510066,4.88925 -0.345074,1.69596 -0.526844,3.45051 -0.526844,5.25168 0,1.80117 0.18177,3.55909 0.526844,5.25503 0.345075,1.69597 0.854184,3.32944 1.510066,4.8859 0.655885,1.55648 1.460192,3.03675 2.392618,4.41948 0.932428,1.38272 1.99308,2.67092 3.167785,3.84563 1.174708,1.17471 2.462918,2.23537 3.84564,3.16779 1.382719,0.93242 2.859637,1.73673 4.416107,2.39262 1.556469,0.65589 3.193308,1.16499 4.889261,1.51008 1.695954,0.34506 3.450506,0.52347 5.251679,0.52347 1.801173,0 3.559081,-0.17841 5.255033,-0.52347 1.695955,-0.34509 3.332792,-0.85419 4.889263,-1.51008 1.55647,-0.65589 3.033387,-1.4602 4.416107,-2.39262 1.382721,-0.93242 2.670932,-1.99308 3.845639,-3.16779 1.174706,-1.17471 2.235357,-2.46291 3.167785,-3.84563 0.932427,-1.38273 1.736733,-2.863 2.392617,-4.41948 0.655882,-1.55646 1.164993,-3.18993 1.510068,-4.8859 0.345074,-1.69594 0.523488,-3.45386 0.523488,-5.25503 0,-1.80117 -0.178414,-3.55572 -0.523488,-5.25168 -0.345075,-1.69596 -0.854186,-3.33279 -1.510068,-4.88925 -0.655884,-1.55648 -1.46019,-3.0334 -2.392617,-4.41613 -0.932428,-1.3827 -1.993079,-2.67091 -3.167785,-3.84562 -1.174707,-1.17471 -2.462918,-2.23536 -3.845639,-3.1678 -1.38272,-0.93242 -2.859637,-1.73673 -4.416107,-2.3926 -1.556471,-0.65589 -3.193308,-1.16501 -4.889263,-1.51008 -1.695952,-0.34507 -3.45386,-0.52684 -5.255033,-0.52684 z"
         style="color:#000000;clip-rule:nonzero;display:inline;overflow:visible;visibility:visible;opacity:1;isolation:auto;mix-blend-mode:normal;color-interpolation:sRGB;color-interpolation-filters:linearRGB;solid-color:#000000;solid-opacity:1;fill:#4474c0;fill-opacity:1;fill-rule:nonzero;stroke:none;stroke-width:1;stroke-linecap:square;stroke-linejoin:round;stroke-miterlimit:4;stroke-dasharray:none;stroke-dashoffset:0;stroke-opacity:1;color-rendering:auto;image-rendering:auto;shape-rendering:auto;text-rendering:auto;enable-background:accumulate" />
      <path
         inkscape:connector-curvature="0"
         id="path4173"
         d="m -57.73029,291.91972 a 26,26.065159 0 0 0 -23.4,25.93484 26,26.065159 0 0 0 2.315625,10.69894 l 4.515468,-2.61466 c -0.523343,-1.2406 -0.930221,-2.54134 -1.206563,-3.88941 -0.277837,-1.35539 -0.424531,-2.75908 -0.424531,-4.19487 0,-1.43578 0.146694,-2.83747 0.424531,-4.19281 0.277836,-1.35538 0.687248,-2.66314 1.214687,-3.90979 0.52744,-1.24664 1.172752,-2.43157 1.921565,-3.5412 0.748811,-1.10964 1.601173,-2.14483 2.543124,-3.08913 0.941952,-0.94431 1.974546,-1.79882 3.081406,-2.5495 1.106861,-0.75069 2.288808,-1.3976 3.532345,-1.92637 1.243536,-0.52876 2.548018,-0.9392 3.9,-1.21773 0.52023,-0.10714 1.049128,-0.18924 1.582343,-0.25659 l 0,-5.25172 z m 5.2,0.0265 0,5.22525 c 0.533954,0.0673 1.063793,0.14934 1.584375,0.25659 1.35198,0.27851 2.656463,0.68896 3.9,1.21772 1.243536,0.52877 2.425484,1.17571 3.532344,1.92638 1.106861,0.75068 2.139455,1.60519 3.081406,2.5495 0.941953,0.94431 1.794313,1.97948 2.543124,3.08913 0.748813,1.10963 1.394124,2.29454 1.921564,3.54122 0.52744,1.24662 0.936851,2.5544 1.214688,3.90975 0.277837,1.35537 0.422499,2.75705 0.422499,4.19282 0,1.4358 -0.144662,2.83951 -0.422499,4.19487 -0.27639,1.34833 -0.685122,2.64859 -1.208594,3.88942 l 4.507344,2.60855 a 26,26.065159 0 0 0 2.323749,-10.69284 26,26.065159 0 0 0 -23.4,-25.90836 z m -19.140469,38.49092 -4.541875,2.6289 a 26,26.065159 0 0 0 21.082344,10.85371 26,26.065159 0 0 0 21.07625,-10.85778 l -4.533749,-2.62483 c -0.572456,0.75441 -1.177016,1.48338 -1.844376,2.15241 -0.941951,0.94433 -1.974545,1.7988 -3.081406,2.54949 -1.10686,0.75069 -2.288807,1.39762 -3.532344,1.92638 -1.243538,0.52876 -2.54802,0.93921 -3.9,1.21772 -1.351981,0.27855 -2.752181,0.42358 -4.184375,0.42358 -1.432195,0 -2.830363,-0.14503 -4.182344,-0.42358 -1.351982,-0.27851 -2.656464,-0.68896 -3.9,-1.21772 -1.243537,-0.52876 -2.425483,-1.17569 -3.532345,-1.92638 -1.10686,-0.75069 -2.139454,-1.60516 -3.081406,-2.54949 -0.66736,-0.66903 -1.27192,-1.398 -1.844375,-2.15241 z"
         style="color:#000000;clip-rule:nonzero;display:inline;overflow:visible;visibility:visible;opacity:1;isolation:auto;mix-blend-mode:normal;color-interpolation:sRGB;color-interpolation-filters:linearRGB;solid-color:#000000;solid-opacity:1;fill:#fbb635;fill-opacity:1;fill-rule:nonzero;stroke:none;stroke-width:1;stroke-linecap:square;stroke-linejoin:round;stroke-miterlimit:4;stroke-dasharray:none;stroke-dashoffset:0;stroke-opacity:1;color-rendering:auto;image-rendering:auto;shape-rendering:auto;text-rendering:auto;enable-background:accumulate" />
    </g>
    <g
       style="font-style:normal;font-variant:normal;font-weight:normal;font-stretch:normal;font-size:17.5px;line-height:100%;font-family:CoCalc;-inkscape-font-specification:CoCalc;text-align:start;letter-spacing:0px;word-spacing:0px;writing-mode:lr-tb;text-anchor:start;fill:#565656;fill-opacity:1;stroke:none;stroke-width:1px;stroke-linecap:butt;stroke-linejoin:miter;stroke-opacity:1"
       id="text4181">
      <path
         d="m -74.615341,328.63193 c -1.9425,0 -3.5875,0.7 -4.935,2.065 -1.365,1.365 -2.065,3.01 -2.065,4.935 0,1.9425 0.7,3.57 2.065,4.935 1.365,1.365 2.9925,2.065 4.935,2.065 1.9425,0 3.57,-0.7 4.935,-2.065 1.3825,-1.3475 2.0825,-2.9925 2.0825,-4.935 0,-1.925 -0.7,-3.57 -2.0825,-4.935 -1.365,-1.365 -2.9925,-2.065 -4.935,-2.065 z m 0,2.345 c 1.2775,0 2.38,0.455 3.29,1.365 0.91,0.91 1.365,2.0125 1.365,3.29 0,1.2775 -0.4375,2.38 -1.365,3.3075 -0.91,0.91 -2.0125,1.3475 -3.29,1.3475 -1.2775,0 -2.3975,-0.4375 -3.3075,-1.3475 -0.91,-0.91 -1.3475,-2.03 -1.3475,-3.3075 0,-1.2775 0.4375,-2.38 1.3475,-3.29 0.9275,-0.9275 2.03,-1.365 3.3075,-1.365 z"
         style=""
         id="path4146" />
      <path
         d="m -55.013957,329.99693 c -0.91,-0.91 -2.0125,-1.365 -3.29,-1.365 l -7,0 2.3275,2.345 4.6725,0 c 0.63,0 1.1725,0.2275 1.6275,0.6825 0.4725,0.455 0.7,1.015 0.7,1.645 0,0.6475 -0.245,1.19 -0.7,1.645 -0.455,0.455 -0.9975,0.6825 -1.6275,0.6825 l -4.6725,0 -2.3275,0 0,7 2.3275,0 0,-4.655 4.6725,0 c 1.2775,0 2.38,-0.455 3.29,-1.365 0.9275,-0.91 1.365,-2.03 1.365,-3.3075 0,-1.2775 -0.455,-2.38 -1.365,-3.3075 z"
         style=""
         id="path4148" />
      <path
         d="m -51.309118,342.43943 0,0.1925 9.3275,0 0,-2.345 -7,0 -2.3275,2.1525 z m 0,-13.8075 2.3275,2.345 7,0 0,-2.345 -9.3275,0 z m 0,5.845 0,2.3275 2.3275,0 7,0 0,-2.3275 -7,0 -2.3275,0 z"
         style=""
         id="path4150" />
      <path
         d="m -29.283578,328.63193 0,8.3825 -9.31,-8.3825 0,3.535 11.6375,10.465 0,-0.0175 0,-0.0175 0,-13.965 -2.3275,0 z"
         style=""
         id="path4152" />
    </g>
  </g>
</svg>
